<?xml version="1.0" standalone="no"?>
<!DOCTYPE svg PUBLIC "-//W3C//DTD SVG 1.1//EN" "http://www.w3.org/Graphics/SVG/1.1/DTD/svg11.dtd" >
<svg xmlns="http://www.w3.org/2000/svg" xmlns:xlink="http://www.w3.org/1999/xlink" version="1.1">
<metadata>
Created by FontForge 20170731 at Sun Dec  8 03:45:58 2019
 By Aleksey,,,
Copyright (c) 2019 by Fontastica. All rights reserved.
</metadata>
<defs>
<font id="Noir-Thin" horiz-adv-x="792" >
  <font-face 
    font-family="Noir Thin"
    font-weight="100"
    font-stretch="normal"
    units-per-em="1000"
    panose-1="0 0 2 0 0 0 0 0 0 0"
    ascent="800"
    descent="-200"
    x-height="880"
    cap-height="880"
    bbox="41 -104 1422 985"
    underline-thickness="50"
    underline-position="-200"
    unicode-range="U+000D-2122"
  />
<missing-glyph horiz-adv-x="743" 
d="M41 887h661v-885h-661v885zM652 42v807h-562v-807h562z" />
    <glyph glyph-name=".notdef" horiz-adv-x="743" 
d="M41 887h661v-885h-661v885zM652 42v807h-562v-807h562z" />
    <glyph glyph-name="uni0000" horiz-adv-x="0" 
 />
    <glyph glyph-name="nonmarkingreturn" horiz-adv-x="333" 
 />
    <glyph glyph-name="CR" unicode="&#xd;" horiz-adv-x="0" 
 />
    <glyph glyph-name="space" unicode=" " horiz-adv-x="672" 
 />
    <glyph glyph-name="exclam" unicode="!" horiz-adv-x="216" 
d="M79 299h54v550h-54v-550zM108 62q22 0 37 13.5t15 32.5q0 20 -15 34t-37 14t-37 -14t-15 -34q0 -19 15 -32.5t37 -13.5z" />
    <glyph glyph-name="quotedbl" unicode="&#x22;" horiz-adv-x="336" 
d="M96 667v209h-40v-209h40zM280 667v209h-39v-209h39z" />
    <glyph glyph-name="numbersign" unicode="#" horiz-adv-x="798" 
d="M56 260h119l-49 -198h73l50 198h214l-49 -198h73l49 198h141v61h-126l58 238h133v61h-119l50 198h-76l-48 -198h-214l50 198h-75l-49 -198h-140v-61h126l-57 -238h-134v-61zM533 559l-55 -238h-215l58 238h212z" />
    <glyph glyph-name="dollar" unicode="$" horiz-adv-x="625" 
d="M95 62h182v-166h72v161l22 3l23 3q76 12 125.5 69t49.5 134q0 87 -59.5 145.5t-145.5 58.5h-104q-56 0 -94 44t-38 100q0 57 37.5 101t94.5 44h219l29 59h-159v166h-72v-160l-22 -4l-22 -3q-77 -13 -127 -69.5t-50 -133.5q0 -85 60 -144.5t144 -59.5h104q57 0 94.5 -44
t37.5 -100t-37.5 -99.5t-94.5 -43.5h-234z" />
    <glyph glyph-name="percent" unicode="%" horiz-adv-x="1122" 
d="M262 410q84 0 145 60t61 144q0 85 -61 144.5t-145 59.5q-85 0 -145.5 -59t-60.5 -145t60.5 -145t145.5 -59zM372 62l458 756h-81l-459 -756h82zM262 470q-57 0 -95.5 43.5t-38.5 100.5q0 58 38.5 101.5t95.5 43.5q56 0 95 -44t39 -101q0 -56 -39 -100t-95 -44zM858 62
q84 0 146 59.5t62 144.5t-61.5 144.5t-146.5 59.5q-84 0 -144 -60t-60 -144q0 -85 60 -144.5t144 -59.5zM858 123q-56 0 -94.5 43.5t-38.5 99.5t38 100t95 44t96 -43.5t39 -100.5t-39 -100t-96 -43z" />
    <glyph glyph-name="ampersand" unicode="&#x26;" horiz-adv-x="702" 
d="M73 648q0 -88 61 -172l13 -17l-14 -16q-77 -88 -77 -191q0 -58 19 -108q25 -63 78.5 -103.5t116.5 -40.5h65q91 0 152 76t61 176v164h98v85h-376q-57 0 -91.5 46.5t-34.5 100.5q0 55 34.5 101.5t91.5 46.5h65q55 0 85.5 -40t37.5 -93h73q-3 39 -16 75q-25 66 -71 104
t-109 38h-65q-58 0 -106 -36t-72 -93q-19 -47 -19 -103zM335 86h-65q-65 0 -103.5 51.5t-38.5 114.5q0 62 39.5 113t102.5 51h205v-164q0 -63 -38 -114.5t-102 -51.5z" />
    <glyph glyph-name="quotesingle" unicode="'" horiz-adv-x="152" 
d="M96 667v209h-40v-209h40z" />
    <glyph glyph-name="parenleft" unicode="(" horiz-adv-x="329" 
d="M273 890l-1 61q-90 -9 -153 -74t-63 -156v-562q0 -91 63 -155t154 -73l-1 60q-61 10 -102.5 57t-41.5 111v562q0 65 41 114.5t104 54.5z" />
    <glyph glyph-name="parenright" unicode=")" horiz-adv-x="329" 
d="M56 952l1 -63q61 -10 102.5 -57t41.5 -111v-562q0 -64 -42 -111t-103 -57l1 -60q90 9 153 73.5t63 154.5v562q0 92 -63.5 159t-153.5 72z" />
    <glyph glyph-name="asterisk" unicode="*" horiz-adv-x="290" 
d="M225 810l-65 -37l65 -39l-9 -17l-60 35v-75h-22v75l-60 -35l-10 17l62 38l-61 37l8 16l61 -37v78h22v-78l60 37z" />
    <glyph glyph-name="plus" unicode="+" horiz-adv-x="446" 
d="M56 449v-37h147v-152h40v152h147v37h-147v153h-40v-153h-147z" />
    <glyph glyph-name="comma" unicode="," horiz-adv-x="216" 
d="M56 108q0 -18 11 -28.5t37 -19.5l17 -6v-57h39v111q0 20 -15 34t-37 14t-37 -14t-15 -34z" />
    <glyph glyph-name="hyphen" unicode="-" horiz-adv-x="446" 
d="M390 351v36h-334v-36h334z" />
    <glyph glyph-name="period" unicode="." horiz-adv-x="216" 
d="M108 62q22 0 37 13.5t15 32.5q0 20 -15 34t-37 14t-37 -14t-15 -34q0 -19 15 -32.5t37 -13.5z" />
    <glyph glyph-name="slash" unicode="/" horiz-adv-x="585" 
d="M132 -71l397 1023h-76l-397 -1023h76z" />
    <glyph glyph-name="zero" unicode="0" horiz-adv-x="951" 
d="M56 440q0 -180 122.5 -310t296.5 -130q171 0 295 130q125 128 125 310q0 117 -56 218.5t-153 161.5t-211 60q-115 0 -212 -60t-152 -161t-55 -219zM508 51l-9 776l32 -8q5 -1 16 -3.5t17 -4.5q124 -34 200 -136.5t76 -234.5q0 -131 -72 -230t-194 -139q-13 -5 -34 -10z
M380 810q5 1 16 4t17 4l31 8l8 -774l-32 8q-6 1 -17 4t-16 4q-126 34 -201.5 136t-75.5 236q0 130 74 233t196 137z" />
    <glyph glyph-name="one" unicode="1" horiz-adv-x="254" 
d="M198 880h-77l-65 -58h88v-822h54v880z" />
    <glyph glyph-name="two" unicode="2" horiz-adv-x="588" 
d="M205 58l300 441q27 58 27 106q0 114 -75.5 194.5t-185.5 80.5h-215v-58h215q86 0 147 -64.5t61 -152.5q0 -47 -14.5 -79t-43.5 -70l-338 -456h431v58h-309z" />
    <glyph glyph-name="three" unicode="3" horiz-adv-x="625" 
d="M569 234q0 59 -20.5 100.5t-66.5 86.5l-19 18l19 19q46 47 66.5 88.5t20.5 99.5q0 96 -65 165t-157 69h-291v-58h291q71 0 120 -51.5t49 -124.5q0 -72 -49 -125t-120 -53h-136v-57h136q70 0 119.5 -53t49.5 -124q0 -72 -49 -124t-120 -52h-291v-58h291q92 0 157 69
t65 165z" />
    <glyph glyph-name="four" unicode="4" horiz-adv-x="721" 
d="M612 2h53v880h-53v-411h-503v411h-53v-469h556v-411z" />
    <glyph glyph-name="five" unicode="5" 
d="M56 59v-58h419q110 0 185.5 80.5t75.5 195.5q0 116 -76 196q-78 80 -185 80h-366v328h-53v-386h419q86 0 147 -65t61 -153t-61 -153t-147 -65h-419z" />
    <glyph glyph-name="six" unicode="6" 
d="M56 357q0 -148 98 -252.5t241 -104.5t242 104.5t99 252.5t-99 253t-242 105q-72 0 -125 -24t-120 -78l-41 -35v302h-53v-523zM109 357q0 124 82 212t204 88q118 0 203 -89t85 -211t-84.5 -210.5t-203.5 -88.5q-122 0 -204 87.5t-82 211.5z" />
    <glyph glyph-name="seven" unicode="7" horiz-adv-x="635" 
d="M579 880h-523v-58h470v-354h-313v-57h313v-411h53v880z" />
    <glyph glyph-name="eight" unicode="8" horiz-adv-x="645" 
d="M452 18q62 28 99.5 87t37.5 129q0 59 -20 100.5t-66 86.5l-18 18l18 19q46 47 66 88.5t20 99.5q0 70 -37.5 129t-99.5 88q-40 17 -68 17h-124q-27 0 -67 -18q-62 -27 -99.5 -86.5t-37.5 -129.5q0 -58 20 -99.5t66 -88.5l18 -19l-19 -18q-45 -45 -65 -86.5t-20 -100.5
q0 -70 37.5 -129t99.5 -87q38 -18 67 -18h124q30 0 68 18zM278 822h89q71 0 120 -51.5t49 -124.5q0 -72 -49 -125t-120 -53h-89q-71 0 -120 53t-49 125q0 73 49 124.5t120 51.5zM278 411h89q70 0 119.5 -53t49.5 -124q0 -73 -49 -124.5t-120 -51.5h-89q-71 0 -120 51.5
t-49 124.5q0 72 49 124.5t120 52.5z" />
    <glyph glyph-name="nine" unicode="9" 
d="M736 524q0 148 -98 252.5t-241 104.5t-242 -104.5t-99 -252.5t99 -253t242 -105q72 0 125 24.5t120 78.5l41 34v-302h53v523zM683 524q0 -124 -82.5 -212t-203.5 -88q-119 0 -203.5 89t-84.5 211t84.5 211t203.5 89q122 0 204 -88t82 -212z" />
    <glyph glyph-name="colon" unicode=":" horiz-adv-x="216" 
d="M108 392q22 0 37 14t15 33q0 20 -15 34t-37 14t-37 -14t-15 -34q0 -19 15 -33t37 -14zM108 62q22 0 37 13.5t15 32.5q0 20 -15 34t-37 14t-37 -14t-15 -34q0 -19 15 -32.5t37 -13.5z" />
    <glyph glyph-name="semicolon" unicode=";" horiz-adv-x="216" 
d="M108 392q22 0 37 14t15 33q0 20 -15 34t-37 14t-37 -14t-15 -34q0 -19 15 -33t37 -14zM56 108q0 -18 11 -28.5t37 -19.5l17 -6v-57h39v111q0 20 -15 34t-37 14t-37 -14t-15 -34z" />
    <glyph glyph-name="less" unicode="&#x3c;" horiz-adv-x="475" 
d="M419 673l-363 -202v-71l363 -203v73l-297 166l297 166v71z" />
    <glyph glyph-name="equal" unicode="=" horiz-adv-x="446" 
d="M390 531v37h-334v-37h334zM390 294v37h-334v-37h334z" />
    <glyph glyph-name="greater" unicode="&#x3e;" horiz-adv-x="475" 
d="M56 602l297 -166l-297 -166v-73l363 203v71l-363 202v-71z" />
    <glyph glyph-name="question" unicode="?" horiz-adv-x="602" 
d="M56 646h72q9 52 43.5 88.5t88.5 36.5h80q57 0 95 -43.5t38 -101.5t-38 -101t-95 -43h-76v-176h72v114l21 3q8 2 22 4q75 14 121 68t46 131q0 86 -60.5 145.5t-145.5 59.5h-80q-81 0 -137.5 -52t-66.5 -133zM300 74q22 0 37.5 14t15.5 32q0 20 -15.5 34t-37.5 14
t-36.5 -14t-14.5 -34q0 -18 15 -32t36 -14z" />
    <glyph glyph-name="at" unicode="@" horiz-adv-x="993" 
d="M496 -1h246v60h-246q-109 0 -200 61t-135 164q-33 79 -33 159q0 158 107 271t261 113t260.5 -113t106.5 -271v-183h-121v183q0 102 -72.5 173t-173.5 71q-104 0 -175 -69.5t-71 -174.5q0 -53 17 -94q27 -68 91 -110t138 -42h441v246q0 121 -60 223.5t-161.5 162
t-219.5 59.5q-182 0 -311 -129.5t-129 -315.5q0 -121 59.5 -223.5t161 -161.5t219.5 -59zM671 443v-183h-175q-74 0 -124 54.5t-50 128.5t50 129.5t124 55.5q75 0 125 -54.5t50 -130.5z" />
    <glyph glyph-name="A" unicode="A" horiz-adv-x="887" 
d="M831 0l-387 814l-388 -814h60l328 685l328 -685h59z" />
    <glyph glyph-name="B" unicode="B" 
d="M736 234q0 59 -20 101t-65 86l-19 18l18 19q45 47 65.5 89t20.5 99q0 96 -65 165t-157 69h-458v-58h458q71 0 120 -51.5t49 -124.5q0 -72 -49 -125t-120 -53h-458v-57h458q70 0 119.5 -53t49.5 -124q0 -73 -49 -124.5t-120 -51.5h-458v-58h458q92 0 157 69t65 165z" />
    <glyph glyph-name="C" unicode="C" horiz-adv-x="789" 
d="M733 95l-38 39q-96 -75 -219 -75q-153 0 -259.5 112.5t-106.5 269.5t106.5 269t259.5 112q123 0 219 -75l38 40q-113 93 -257 93q-173 0 -296.5 -130t-123.5 -309q0 -117 56 -218.5t153 -161.5t211 -60q145 0 257 94z" />
    <glyph glyph-name="D" unicode="D" 
d="M56 0h261q173 0 296 130.5t123 309.5q0 116 -56 217.5t-152.5 162t-210.5 60.5h-261v-58h261q152 0 258 -111q108 -114 108 -271q0 -74 -28 -144.5t-77 -125.5q-104 -112 -261 -112h-261v-58z" />
    <glyph glyph-name="E" unicode="E" horiz-adv-x="635" 
d="M579 822v58h-523v-58h523zM579 411v57h-523v-57h523zM579 0v58h-523v-58h523z" />
    <glyph glyph-name="F" unicode="F" horiz-adv-x="635" 
d="M579 822v58h-523v-58h523zM579 329v58h-523v-387h53v329h470z" />
    <glyph glyph-name="G" unicode="G" horiz-adv-x="821" 
d="M733 95l-38 39q-96 -75 -219 -75q-153 0 -259.5 112.5t-106.5 269.5t106.5 269t259.5 112q123 0 219 -75l38 40q-113 93 -257 93q-173 0 -296.5 -130t-123.5 -309q0 -117 56 -218.5t153 -161.5t211 -60q145 0 257 94zM765 468h-238v-57h238v57z" />
    <glyph glyph-name="H" unicode="H" 
d="M109 880h-53v-880h53v411h574v-411h53v469h-627v411z" />
    <glyph glyph-name="I" unicode="I" horiz-adv-x="165" 
d="M56 0h53v880h-53v-880z" />
    <glyph glyph-name="J" unicode="J" horiz-adv-x="788" 
d="M110 304h-54q18 -131 113 -217.5t224 -86.5q144 0 241.5 104.5t97.5 252.5v523h-53v-523q0 -124 -82 -211.5t-204 -87.5q-104 0 -184.5 71t-98.5 175z" />
    <glyph glyph-name="K" unicode="K" horiz-adv-x="831" 
d="M279 440l421 -439h75l-419 440l419 440h-75zM56 0h53v880h-53v-880z" />
    <glyph glyph-name="L" unicode="L" horiz-adv-x="635" 
d="M579 58h-470v822h-53v-880h523v58z" />
    <glyph glyph-name="M" unicode="M" horiz-adv-x="950" 
d="M108 0l1 840l-53 55v-895h52zM894 895l-367 -385v-81l315 330v-759h52v895z" />
    <glyph glyph-name="N" unicode="N" horiz-adv-x="791" 
d="M56 895v-893h53v844zM442 278l293 -276v893h-53v-771l-240 217v-63z" />
    <glyph glyph-name="O" unicode="O" horiz-adv-x="951" 
d="M770 130q125 128 125 310q0 117 -56 218.5t-153 161.5t-211 60q-115 0 -212 -60t-152 -161t-55 -219q0 -180 122.5 -310t296.5 -130q171 0 295 130zM475 58q-156 0 -260.5 111t-104.5 271q0 159 105 270.5t260 111.5q154 0 259.5 -112t105.5 -270t-105 -270t-260 -112z
" />
    <glyph glyph-name="P" unicode="P" 
d="M109 0v329h366q108 0 185 80q76 79 76 195q0 115 -75.5 195.5t-185.5 80.5h-419v-58h419q86 0 147 -65t61 -153q0 -87 -61 -152.5t-147 -65.5h-419v-386h53z" />
    <glyph glyph-name="Q" unicode="Q" horiz-adv-x="950" 
d="M666 46l-42 44q-72 -32 -149 -32q-156 0 -261 112t-105 271q0 158 106 271t260 113q153 0 259.5 -113.5t106.5 -270.5q0 -84 -33 -159l41 -43q45 90 45 201q0 120 -55 221t-151.5 160t-212.5 59q-175 0 -296 -128q-123 -129 -123 -317q0 -182 121 -308.5t298 -126.5
q103 0 191 46zM464 408l169 -177l38 40l-169 177z" />
    <glyph glyph-name="R" unicode="R" horiz-adv-x="746" 
d="M379 387l213 -387h61l-177 326l26 11l27 12q74 34 117.5 103.5t43.5 152.5q0 115 -75.5 195t-185.5 80h-373v-58h373q86 0 147 -64.5t61 -152.5t-60.5 -153.5t-147.5 -65.5q-34 0 -50 1zM56 578v-578h53v578h-53z" />
    <glyph glyph-name="S" unicode="S" 
d="M461 880h-183q-93 0 -157.5 -69t-64.5 -165q0 -99 65 -167t157 -68h235q71 0 120 -54q50 -53 50 -123q0 -75 -49 -125.5t-122 -50.5q-76 0 -228 2v-60h229q93 0 158 68.5t65 165.5t-66 166q-65 68 -157 68h-235q-74 0 -122 54q-47 51 -47 124q0 74 48.5 125t120.5 51h183
v58z" />
    <glyph glyph-name="T" unicode="T" horiz-adv-x="551" 
d="M495 880h-439v-58h386v-822h53v880z" />
    <glyph glyph-name="U" unicode="U" horiz-adv-x="788" 
d="M732 304h-54q-18 -104 -98.5 -175t-184.5 -71q-122 0 -204 87.5t-82 211.5v523h-53v-523q0 -148 98 -252.5t241 -104.5q129 0 224 86.5t113 217.5z" />
    <glyph glyph-name="V" unicode="V" horiz-adv-x="1062" 
d="M473 130l-357 750h-60l387 -813zM946 880l-184 -385h60l184 385h-60z" />
    <glyph glyph-name="W" unicode="W" horiz-adv-x="1478" 
d="M444 68l30 63l-358 749h-60zM1034 67l388 813h-60l-327 -686l-208 435l-31 -64z" />
    <glyph glyph-name="X" unicode="X" horiz-adv-x="837" 
d="M127 0l653 880h-67l-657 -880h71zM293 561l36 48l-202 271h-71zM543 320l-34 -46l205 -276l67 1z" />
    <glyph glyph-name="Y" unicode="Y" horiz-adv-x="836" 
d="M127 0l653 880h-67l-657 -880h71zM293 560l36 48l-202 272h-71z" />
    <glyph glyph-name="Z" unicode="Z" horiz-adv-x="884" 
d="M174 0l654 880h-772v-58h661l-613 -822h70z" />
    <glyph glyph-name="bracketleft" unicode="[" horiz-adv-x="330" 
d="M274 891v61h-218v-1023h218v60h-146v902h146z" />
    <glyph glyph-name="backslash" unicode="\" horiz-adv-x="585" 
d="M132 -71l397 1023h-76l-397 -1023h76z" />
    <glyph glyph-name="bracketright" unicode="]" horiz-adv-x="330" 
d="M202 891v-902h-146v-60h218v1023h-218v-61h146z" />
    <glyph glyph-name="underscore" unicode="_" horiz-adv-x="604" 
d="M548 -71v60h-492v-60h492z" />
    <glyph glyph-name="a" unicode="a" horiz-adv-x="887" 
d="M831 0l-387 814l-388 -814h60l328 685l328 -685h59z" />
    <glyph glyph-name="b" unicode="b" 
d="M736 234q0 59 -20 101t-65 86l-19 18l18 19q45 47 65.5 89t20.5 99q0 96 -65 165t-157 69h-458v-58h458q71 0 120 -51.5t49 -124.5q0 -72 -49 -125t-120 -53h-458v-57h458q70 0 119.5 -53t49.5 -124q0 -73 -49 -124.5t-120 -51.5h-458v-58h458q92 0 157 69t65 165z" />
    <glyph glyph-name="c" unicode="c" horiz-adv-x="789" 
d="M733 95l-38 39q-96 -75 -219 -75q-153 0 -259.5 112.5t-106.5 269.5t106.5 269t259.5 112q123 0 219 -75l38 40q-113 93 -257 93q-173 0 -296.5 -130t-123.5 -309q0 -117 56 -218.5t153 -161.5t211 -60q145 0 257 94z" />
    <glyph glyph-name="d" unicode="d" 
d="M56 0h261q173 0 296 130.5t123 309.5q0 116 -56 217.5t-152.5 162t-210.5 60.5h-261v-58h261q152 0 258 -111q108 -114 108 -271q0 -74 -28 -144.5t-77 -125.5q-104 -112 -261 -112h-261v-58z" />
    <glyph glyph-name="e" unicode="e" horiz-adv-x="635" 
d="M579 822v58h-523v-58h523zM579 411v57h-523v-57h523zM579 0v58h-523v-58h523z" />
    <glyph glyph-name="f" unicode="f" horiz-adv-x="635" 
d="M579 822v58h-523v-58h523zM579 329v58h-523v-387h53v329h470z" />
    <glyph glyph-name="g" unicode="g" horiz-adv-x="821" 
d="M733 95l-38 39q-96 -75 -219 -75q-153 0 -259.5 112.5t-106.5 269.5t106.5 269t259.5 112q123 0 219 -75l38 40q-113 93 -257 93q-173 0 -296.5 -130t-123.5 -309q0 -117 56 -218.5t153 -161.5t211 -60q145 0 257 94zM765 468h-238v-57h238v57z" />
    <glyph glyph-name="h" unicode="h" 
d="M109 880h-53v-880h53v411h574v-411h53v469h-627v411z" />
    <glyph glyph-name="i" unicode="i" horiz-adv-x="165" 
d="M56 0h53v880h-53v-880z" />
    <glyph glyph-name="j" unicode="j" horiz-adv-x="788" 
d="M110 304h-54q18 -131 113 -217.5t224 -86.5q144 0 241.5 104.5t97.5 252.5v523h-53v-523q0 -124 -82 -211.5t-204 -87.5q-104 0 -184.5 71t-98.5 175z" />
    <glyph glyph-name="k" unicode="k" horiz-adv-x="831" 
d="M279 440l421 -439h75l-419 440l419 440h-75zM56 0h53v880h-53v-880z" />
    <glyph glyph-name="l" unicode="l" horiz-adv-x="635" 
d="M579 58h-470v822h-53v-880h523v58z" />
    <glyph glyph-name="m" unicode="m" horiz-adv-x="950" 
d="M108 0l1 840l-53 55v-895h52zM894 895l-367 -385v-81l315 330v-759h52v895z" />
    <glyph glyph-name="n" unicode="n" horiz-adv-x="791" 
d="M56 895v-893h53v844zM442 278l293 -276v893h-53v-771l-240 217v-63z" />
    <glyph glyph-name="o" unicode="o" horiz-adv-x="951" 
d="M770 130q125 128 125 310q0 117 -56 218.5t-153 161.5t-211 60q-115 0 -212 -60t-152 -161t-55 -219q0 -180 122.5 -310t296.5 -130q171 0 295 130zM475 58q-156 0 -260.5 111t-104.5 271q0 159 105 270.5t260 111.5q154 0 259.5 -112t105.5 -270t-105 -270t-260 -112z
" />
    <glyph glyph-name="p" unicode="p" 
d="M109 0v329h366q108 0 185 80q76 79 76 195q0 115 -75.5 195.5t-185.5 80.5h-419v-58h419q86 0 147 -65t61 -153q0 -87 -61 -152.5t-147 -65.5h-419v-386h53z" />
    <glyph glyph-name="q" unicode="q" horiz-adv-x="950" 
d="M666 46l-42 44q-72 -32 -149 -32q-156 0 -261 112t-105 271q0 158 106 271t260 113q153 0 259.5 -113.5t106.5 -270.5q0 -84 -33 -159l41 -43q45 90 45 201q0 120 -55 221t-151.5 160t-212.5 59q-175 0 -296 -128q-123 -129 -123 -317q0 -182 121 -308.5t298 -126.5
q103 0 191 46zM464 408l169 -177l38 40l-169 177z" />
    <glyph glyph-name="r" unicode="r" horiz-adv-x="746" 
d="M379 387l213 -387h61l-177 326l26 11l27 12q74 34 117.5 103.5t43.5 152.5q0 115 -75.5 195t-185.5 80h-373v-58h373q86 0 147 -64.5t61 -152.5t-60.5 -153.5t-147.5 -65.5q-34 0 -50 1zM56 578v-578h53v578h-53z" />
    <glyph glyph-name="s" unicode="s" 
d="M462 880h-184q-93 0 -157.5 -69t-64.5 -165q0 -99 65 -167t157 -68h235q71 0 120 -54q50 -53 50 -123q0 -75 -49 -125.5t-122 -50.5q-76 0 -228 2v-60h229q93 0 158 68.5t65 165.5t-66 166q-65 68 -157 68h-235q-74 0 -122 54q-47 51 -47 124q0 74 48.5 125t120.5 51h184
v58z" />
    <glyph glyph-name="t" unicode="t" horiz-adv-x="551" 
d="M495 880h-439v-58h386v-822h53v880z" />
    <glyph glyph-name="u" unicode="u" horiz-adv-x="788" 
d="M732 304h-54q-18 -104 -98.5 -175t-184.5 -71q-122 0 -204 87.5t-82 211.5v523h-53v-523q0 -148 98 -252.5t241 -104.5q129 0 224 86.5t113 217.5z" />
    <glyph glyph-name="v" unicode="v" horiz-adv-x="1062" 
d="M473 130l-357 750h-60l387 -813zM946 880l-184 -385h60l184 385h-60z" />
    <glyph glyph-name="w" unicode="w" horiz-adv-x="1478" 
d="M444 68l30 63l-358 749h-60zM1034 67l388 813h-60l-327 -686l-208 435l-31 -64z" />
    <glyph glyph-name="x" unicode="x" horiz-adv-x="837" 
d="M127 0l653 880h-67l-657 -880h71zM293 560l36 48l-202 272h-71zM543 320l-34 -46l205 -276l67 1z" />
    <glyph glyph-name="y" unicode="y" horiz-adv-x="836" 
d="M127 0l653 880h-67l-657 -880h71zM293 560l36 48l-202 272h-71z" />
    <glyph glyph-name="z" unicode="z" horiz-adv-x="884" 
d="M174 0l654 880h-772v-58h661l-613 -822h70z" />
    <glyph glyph-name="cent" unicode="&#xa2;" horiz-adv-x="759" 
d="M656 682l47 47q-92 82 -231 101l-23 3v152h-73v-158l-37 -11q-127 -38 -205 -140.5t-78 -236.5q0 -132 78.5 -234.5t204.5 -140.5l37 -11v-142h73v136l22 3q127 17 222 95l-64 30q-56 -42 -148 -65l-32 -8v673l31 -7q111 -25 176 -86zM301 734q4 2 17.5 9t20.5 11l37 19
v-665l-37 19l-38 19q-80 43 -126 121.5t-46 171.5t46 173t126 122z" />
    <glyph glyph-name="copyright" unicode="&#xa9;" horiz-adv-x="950" 
d="M56 440q0 -180 122.5 -310t296.5 -130q171 0 295 130q125 128 125 310q0 117 -56 218.5t-153 161.5t-211 60q-115 0 -212 -60t-152 -161t-55 -219zM110 440q0 159 105 270.5t260 111.5q154 0 259.5 -112t105.5 -270t-105 -270t-260 -112q-156 0 -260.5 111t-104.5 271z
M607 271l-18 20q-47 -38 -107 -38q-75 0 -127.5 55.5t-52.5 132.5t52.5 132t127.5 55q59 0 107 -37l18 19q-55 46 -125 46q-85 0 -145.5 -63.5t-60.5 -151.5t60 -152t146 -64q70 0 125 46z" />
    <glyph glyph-name="registered" unicode="&#xae;" horiz-adv-x="951" 
d="M56 440q0 -180 122.5 -310t296.5 -130q171 0 295 130q125 128 125 310q0 117 -56 218.5t-153 161.5t-211 60q-115 0 -212 -60t-152 -161t-55 -219zM110 440q0 159 105 270.5t260 111.5q154 0 259.5 -112t105.5 -270t-105 -270t-260 -112q-156 0 -260.5 111t-104.5 271z
M488 417l93 -170h27l-78 143l12 5q3 1 11 5q33 13 52 44t19 69q0 50 -33.5 85.5t-81.5 35.5h-164v-26h164q39 0 65.5 -28t26.5 -67t-26.5 -67.5t-65.5 -28.5h-21zM345 501v-254h23v254h-23z" />
    <glyph glyph-name="multiply" unicode="&#xd7;" horiz-adv-x="419" 
d="M56 299l27 -27l126 132l128 -133l26 28l-127 132l127 133l-26 27l-128 -132l-126 132l-27 -28l127 -132z" />
    <glyph glyph-name="divide" unicode="&#xf7;" horiz-adv-x="446" 
d="M259 621q0 14 -10 24t-26 10q-15 0 -26 -10t-11 -24q0 -15 10.5 -26t26.5 -11q15 0 25.5 11t10.5 26zM390 412v37h-334v-37h334zM259 245q0 14 -10 24t-26 10q-15 0 -26 -10t-11 -24q0 -15 11 -25.5t26 -10.5t25.5 11t10.5 25z" />
    <glyph glyph-name="dagger" unicode="&#x2020;" horiz-adv-x="755" 
d="M404 627h295v58h-295v257h-53v-257h-295v-58h295v-565h53v565z" />
    <glyph glyph-name="Euro" unicode="&#x20ac;" horiz-adv-x="848" 
d="M748 115v52q-93 -77 -210 -77q-90 0 -166 45t-124 123q-4 6 -25 43l-24 40h369l21 38h-392v137h469l21 38h-488l24 40q16 28 25 42q48 79 124 124t166 45q137 0 235 -95l19 35q-49 47 -117.5 73.5t-136.5 26.5q-120 0 -217.5 -70t-142.5 -187l-12 -34h-89l-21 -38h98
v-137h-77l-21 -38h110l12 -35q45 -116 142 -186t218 -70q116 0 210 65z" />
    <glyph glyph-name="trademark" unicode="&#x2122;" horiz-adv-x="798" 
d="M299 903v-46h-83v-287h-48v287h-82v46h213zM573 699l185 190v-319h-46v205l-117 -120h-43q-61 63 -119 122v-207h-45v318z" />
    <glyph glyph-name="_FSHallmark" horiz-adv-x="1092" 
d="M1036 865v-116h-978v116h978zM825 202q-41 0 -80 10q-37 10 -69 33q-31 23 -49 55t-18 77l113 -2q0 -5 6 -18q1 -16 17 -30q15 -15 29 -20q20 -11 55 -11q40 0 63 13q23 12 23 31q0 36 -93 54q-96 27 -143 53q-59 29 -59 97q0 55 39 88q31 27 86 47q43 9 80 9
q53 0 110 -22q56 -22 79 -77q13 -37 13 -57h-118q0 12 -9 26q-6 9 -21 21q-3 1 -12.5 5.5t-15.5 5.5q-25 5 -28 5q-27 0 -57 -16q-23 -14 -23 -34q0 -36 22 -48q34 -16 51 -19l43 -11l36 -8q27 -8 35 -8q19 -3 28 -8q14 -6 24 -12q23 -13 37 -32q12 -20 15 -52
q3 -28 -13 -58q-29 -52 -86 -70q-52 -17 -110 -17zM187 359v-157h-129v485h412v-110h-283v-110h235v-108h-235zM517 204q-21 0 -39 18q-20 17 -20 38q0 26 18 42q16 15 41 15t47 -17q20 -15 20 -40q0 -23 -20 -41q-21 -15 -47 -15zM1034 141v-116h-978v116h978z" />
    <glyph glyph-name="_Fontastica" horiz-adv-x="848" 
d="M179 358v-205h-121q-1 2 -1 5v710h532v-108h-410v-292h410v-110h-410zM788 868v-713h-532v109h411v292h-411v110h411v202h121zM677 39q-5 0 -21 6q-9 14 -10 24q0 14 9 23q12 12 22 12q14 0 28 -12l-6 -9q-1 2 -3.5 3.5t-3.5 2.5t-10 1h-5q-8 -4 -10 -7q-6 -4 -6 -10
q0 -11 4 -15q7 -7 12 -7q12 0 22 7l6 -7q-10 -12 -28 -12zM74 64v-23h-16v60h45v-11h-29v-16h28v-10h-28zM158 36q-9 0 -14 5q-18 6 -18 27q0 16 8 24q8 9 25 9q18 0 30 -15q10 -13 2 -28q-4 -16 -26 -19zM269 39q-3 0 -9 6l-8 9q0 2 -3 5l-3 3l-11 16v-37h-14v60h11
q5 -1 6 -8q3 -2 7.5 -7.5t6.5 -7.5l12 -18v41h14v-60h-5q-3 -2 -4 -2zM335 90v-49h-13v49h-20v11h52v-11h-19zM483 39q-20 0 -27 10v2l1 2q0 1 2 5l20 -7h8l5 3q0 9 -14 14q-3 0 -3 1h-6q-10 4 -10 14q-3 11 9 16q6 2 13 2q16 0 25 -4l-4 -11l-5 2h-3q-1 1 -5 1q-1 0 -2 1
h-8q-4 0 -4 -2q-2 -3 4 -10q3 -1 8.5 -3t6.5 -2q12 0 12 -15q2 -13 -11 -17q-1 -2 -12 -2zM561 90v-49h-15v49h-20v11h54v-11h-19zM620 101v-60h-15v60h15zM744 53l-6 -12h-13q12 20 24 60h17l13 -28l7 -19q0 -1 2.5 -6t4.5 -7h-14l-6 12h-29zM385 44l-4 -3h-12l25 58h15
q0 -1 6 -13q6 -10 7 -14q4 -9 6 -18q0 -2 2 -8l3 -5h-14q-1 1 -1 4q0 2 -3 8h-30v-8v-1zM159 51h6q11 4 11 18v3q0 9 -5 14q-4 4 -13 4q-2 -1 -6 -1q-1 0 -4 -4t-6 -7q-7 -6 -2 -14q4 -13 19 -13zM401 88l-11 -24h21l-2 5l-5 5q-1 3 -1 7q-1 1 -1 3.5t-1 3.5zM758 88
l-10 -24h20l-2 5q0 3 -2 5q-3 3 -3 7l-1 3q-1 3 -2 4z" />
    </font>
</defs>
</svg>
