<?xml version="1.0" standalone="no"?>
<!DOCTYPE svg PUBLIC "-//W3C//DTD SVG 1.1//EN" "http://www.w3.org/Graphics/SVG/1.1/DTD/svg11.dtd" >
<svg xmlns="http://www.w3.org/2000/svg" xmlns:xlink="http://www.w3.org/1999/xlink" version="1.1">
<metadata>
Created by FontForge 20170731 at Sun Dec  8 03:45:15 2019
 By Aleksey,,,
Copyright (c) 2019 by Fontastica. All rights reserved.
</metadata>
<defs>
<font id="Noir-Bold" horiz-adv-x="885" >
  <font-face 
    font-family="Noir Bold"
    font-weight="700"
    font-stretch="normal"
    units-per-em="1000"
    panose-1="0 0 8 0 0 0 0 0 0 0"
    ascent="800"
    descent="-200"
    x-height="901"
    cap-height="901"
    bbox="56 -91 1552 993"
    underline-thickness="50"
    underline-position="-200"
    unicode-range="U+000D-2122"
  />
<missing-glyph horiz-adv-x="806" 
d="M56 11h694v879h-694v-879zM621 791l-458 -595v595h458zM642 688v-576h-438z" />
    <glyph glyph-name=".notdef" horiz-adv-x="806" 
d="M56 11h694v879h-694v-879zM621 791l-458 -595v595h458zM642 688v-576h-438z" />
    <glyph glyph-name=".null" horiz-adv-x="0" 
 />
    <glyph glyph-name="nonmarkingreturn" horiz-adv-x="333" 
 />
    <glyph glyph-name="CR" unicode="&#xd;" horiz-adv-x="0" 
 />
    <glyph glyph-name="space" unicode=" " horiz-adv-x="672" 
 />
    <glyph glyph-name="exclam" unicode="!" horiz-adv-x="310" 
d="M228 868v-597h-150v597h150zM155 239q-47 0 -73 -29.5t-26 -62.5t26.5 -62t72.5 -29t72.5 29t26.5 62t-26 62.5t-73 29.5z" />
    <glyph glyph-name="quotedbl" unicode="&#x22;" horiz-adv-x="424" 
d="M193 892h-137v-287h137v287zM368 892h-136v-287h136v287z" />
    <glyph glyph-name="numbersign" unicode="#" horiz-adv-x="891" 
d="M148 228l-45 -174h209l46 174h60l-46 -174h209l46 174h147v183h-99l20 79h140v183h-92l46 174h-212l-45 -174h-59l46 174h-210l-46 -174h-146v-183h99l-20 -79h-140v-183h92zM465 411h-60l21 79h59z" />
    <glyph glyph-name="dollar" unicode="$" horiz-adv-x="743" 
d="M277 54v-145h204v150q92 18 149 86.5t57 152.5q0 98 -73.5 170.5t-186.5 72.5h-97q-23 0 -39.5 19t-16.5 43q0 25 16.5 43.5t39.5 18.5h247l94 182h-190v145h-204v-150q-93 -18 -150 -86.5t-57 -152.5q0 -97 74 -170t186 -73h97q23 0 39 -18.5t16 -43.5q0 -24 -16 -42.5
t-39 -18.5h-258l-113 -183h221z" />
    <glyph glyph-name="percent" unicode="%" horiz-adv-x="1194" 
d="M970 847h-235l-157 -242q-1 97 -76 169.5t-185 72.5q-112 0 -186.5 -73t-74.5 -171t74.5 -170.5t186.5 -72.5q64 0 120 27l-215 -333h236l158 244q0 -98 74 -171t185 -73t187 73.5t76 170.5t-75.5 170t-187.5 73q-64 0 -120 -27zM260 603q0 25 16.5 43.5t40.5 18.5
q23 0 40.5 -19t17.5 -43t-17.5 -43t-40.5 -19q-24 0 -40.5 19t-16.5 43zM819 298q0 24 17 43t39 19q24 0 41 -19t17 -43t-17 -42.5t-41 -18.5q-22 0 -39 18.5t-17 42.5z" />
    <glyph glyph-name="ampersand" unicode="&#x26;" horiz-adv-x="801" 
d="M123 471q-67 -79 -67 -186q0 -63 23 -118q30 -70 96 -118.5t150 -48.5h60q82 0 145.5 45.5t93 109.5t29.5 130v80h92v203h-420q-20 0 -35 20t-15 45t14.5 45t35.5 20h60q22 0 36 -23q13 -23 13 -52v-42h204v18q0 83 -20 136q-29 72 -88.5 119t-144.5 47h-60
q-78 0 -139.5 -44t-90.5 -109q-23 -50 -23 -115q0 -89 51 -162zM385 205h-60q-28 0 -46.5 24t-18.5 56q0 31 18.5 55.5t46.5 24.5h123v-80q0 -31 -18 -55.5t-45 -24.5z" />
    <glyph glyph-name="quotesingle" unicode="'" horiz-adv-x="249" 
d="M193 892h-137v-287h137v287z" />
    <glyph glyph-name="parenleft" unicode="(" horiz-adv-x="452" 
d="M56 697v-493q0 -109 85 -187.5t209 -78.5h46v182h-46q-37 0 -63.5 25t-26.5 59v493q0 35 22.5 59.5t57.5 24.5h56v183h-46q-124 0 -209 -79t-85 -188z" />
    <glyph glyph-name="parenright" unicode=")" horiz-adv-x="452" 
d="M102 120h-46v-182h46q124 0 209 78.5t85 187.5v493q0 106 -80.5 186.5t-202.5 80.5h-57v-183h46q37 0 64 -25t27 -59v-493q0 -34 -26.5 -59t-64.5 -25z" />
    <glyph glyph-name="asterisk" unicode="*" horiz-adv-x="463" 
d="M126 605l34 19v-39h143v39l35 -19l69 115l-39 21l39 22l-68 114l-36 -19v39h-143v-38l-34 20l-70 -116l39 -22l-39 -21z" />
    <glyph glyph-name="plus" unicode="+" horiz-adv-x="561" 
d="M56 362h138v-134h174v134h137v161h-137v134h-174v-134h-138v-161z" />
    <glyph glyph-name="comma" unicode="," horiz-adv-x="346" 
d="M117 67v-70h173v162q0 44 -33.5 75.5t-83.5 31.5t-83.5 -31.5t-33.5 -75.5q0 -28 16.5 -53.5t44.5 -38.5z" />
    <glyph glyph-name="hyphen" unicode="-" horiz-adv-x="561" 
d="M505 469h-449v-161h449v161z" />
    <glyph glyph-name="period" unicode="." horiz-adv-x="346" 
d="M290 159q0 44 -33.5 75.5t-83.5 31.5t-83.5 -31.5t-33.5 -75.5q0 -43 34 -74t83 -31t83 31t34 74z" />
    <glyph glyph-name="slash" unicode="/" horiz-adv-x="754" 
d="M698 964h-217l-425 -1026h218z" />
    <glyph glyph-name="zero" unicode="0" horiz-adv-x="1034" 
d="M842 133q136 132 136 318q0 184 -136 317t-326 133t-325 -133q-135 -134 -135 -317q0 -184 135 -318q136 -133 325 -133q188 0 326 133zM608 706q83 -28 132.5 -100t49.5 -155q0 -84 -46.5 -153t-129.5 -101zM420 705l6 -511q-85 28 -134 99.5t-49 157.5q0 114 79 192
q45 43 98 62z" />
    <glyph glyph-name="one" unicode="1" horiz-adv-x="494" 
d="M271 901l-215 -180h195v-721h187v901h-167z" />
    <glyph glyph-name="two" unicode="2" horiz-adv-x="737" 
d="M56 0h608v180h-230l235 334q3 7 4 10q0 1 0.5 2.5l1 3t0.5 3.5l3 23q3 25 3 40q0 124 -92 215q-92 90 -221 90h-269v-180h269q53 0 90 -38t37 -87q0 -39 -23 -73l-18 -20z" />
    <glyph glyph-name="three" unicode="3" horiz-adv-x="729" 
d="M601 451q72 76 72 180q0 105 -78 187.5t-199 82.5h-340v-180h340q38 0 64.5 -26.5t26.5 -63.5q0 -36 -26.5 -64t-64.5 -28h-194v-178h194q38 0 64.5 -27.5t26.5 -63.5q0 -37 -26.5 -63.5t-64.5 -26.5h-340v-180h340q121 0 199 82.5t78 187.5q0 106 -72 181z" />
    <glyph glyph-name="four" unicode="4" horiz-adv-x="818" 
d="M762 2v901h-186v-361h-334v361h-186v-540h520v-361h186z" />
    <glyph glyph-name="five" unicode="5" 
d="M56 1h460q130 0 223 90q90 89 90 216q0 128 -90 217q-93 90 -223 90h-274v288h-186v-468h460q53 0 90 -38.5t37 -88.5q0 -49 -37 -87.5t-90 -38.5h-460v-180z" />
    <glyph glyph-name="six" unicode="6" 
d="M716 111q113 110 113 267t-113 267q-114 111 -274 111q-111 0 -200 -53v198h-186v-523q0 -156 112 -267q114 -111 274 -111q158 0 274 111zM442 576q84 0 142.5 -60t58.5 -138t-58 -138t-143 -60q-87 0 -143.5 58.5t-56.5 139.5t56.5 139.5t143.5 58.5z" />
    <glyph glyph-name="seven" unicode="7" horiz-adv-x="739" 
d="M56 901v-180h440v-182h-293v-178h293v-361h187v901h-627z" />
    <glyph glyph-name="eight" unicode="8" horiz-adv-x="747" 
d="M691 270q0 107 -70 181q70 76 70 180q0 79 -44.5 147t-123.5 102q-51 21 -91 21h-116q-40 0 -91 -21q-79 -33 -124 -102t-45 -147q0 -103 70 -180q-70 -74 -70 -181q0 -79 44.5 -147t123.5 -102q54 -21 92 -21h116q40 0 91 21q79 34 123.5 102t44.5 147zM415 721
q38 0 64 -26.5t26 -63.5t-26 -64.5t-64 -27.5h-83q-38 0 -64 27.5t-26 64.5t26 63.5t64 26.5h83zM415 361q37 0 63.5 -27.5t26.5 -63.5q0 -37 -26 -63.5t-64 -26.5h-83q-38 0 -64 26.5t-26 63.5q0 36 26.5 63.5t63.5 27.5h83z" />
    <glyph glyph-name="nine" unicode="9" 
d="M169 791q-113 -110 -113 -267q0 -155 113 -267q114 -111 275 -111q110 0 199 53v-198h186v523q0 158 -112 267q-114 111 -273 111q-161 0 -275 -111zM444 326q-85 0 -143.5 60t-58.5 138t58.5 138t143.5 60q87 0 143 -58.5t56 -139.5q0 -80 -56 -139t-143 -59z" />
    <glyph glyph-name="colon" unicode=":" horiz-adv-x="346" 
d="M290 450q0 43 -33 74.5t-84 31.5q-50 0 -83.5 -31.5t-33.5 -74.5t33.5 -74.5t83.5 -31.5t83.5 31.5t33.5 74.5zM290 159q0 44 -33.5 75.5t-83.5 31.5t-83.5 -31.5t-33.5 -75.5q0 -43 34 -74t83 -31t83 31t34 74z" />
    <glyph glyph-name="semicolon" unicode=";" horiz-adv-x="346" 
d="M290 450q0 43 -33 74.5t-84 31.5q-50 0 -83.5 -31.5t-33.5 -74.5t33.5 -74.5t83.5 -31.5t83.5 31.5t33.5 74.5zM117 67v-70h173v162q0 44 -33.5 75.5t-83.5 31.5t-83.5 -31.5t-33.5 -75.5q0 -28 16.5 -53.5t44.5 -38.5z" />
    <glyph glyph-name="less" unicode="&#x3c;" horiz-adv-x="588" 
d="M56 515v-138l476 -249v211l-206 108l206 108v209z" />
    <glyph glyph-name="equal" unicode="=" horiz-adv-x="561" 
d="M505 627h-449v-161h449v161zM505 419h-449v-161h449v161z" />
    <glyph glyph-name="greater" unicode="&#x3e;" horiz-adv-x="588" 
d="M262 447l-206 -108v-211l476 249v138l-476 249v-209z" />
    <glyph glyph-name="question" unicode="?" horiz-adv-x="679" 
d="M377 535h-121v-257h167v110q67 11 116.5 51.5t67.5 92.5q16 45 16 85q0 51 -24 101q-27 56 -86 94.5t-136 38.5h-76q-82 0 -141 -41.5t-84 -102.5q-20 -51 -20 -100v-21h167v21q0 36 21 64t57 28h76q35 0 56.5 -25t21.5 -57t-21.5 -57t-56.5 -25zM339 250
q-46 0 -72 -29.5t-26 -62.5t26 -62t72 -29t73 29t27 62t-26.5 62.5t-73.5 29.5z" />
    <glyph glyph-name="at" unicode="@" horiz-adv-x="1049" 
d="M524 -1h284v152h-284q-94 0 -167 50t-106 125q-28 62 -28 125t28 125q34 75 106.5 124.5t166.5 49.5q93 0 166.5 -50t106.5 -124q27 -60 27 -125v-118h-16v118q0 55 -22 103q-30 70 -99.5 118.5t-162.5 48.5q-94 0 -164.5 -48t-98.5 -119q-20 -51 -20 -103q0 -60 20 -105
q30 -69 100 -118t163 -49h469v272q0 91 -37 174q-51 116 -165.5 197t-266.5 81q-154 0 -268.5 -81t-163.5 -197q-36 -84 -36 -174q0 -91 36 -173q50 -116 165 -197.5t267 -81.5zM641 451v-118h-117q-51 0 -83.5 36.5t-32.5 81.5t32.5 82t83.5 37q37 0 66.5 -20t40.5 -50
q10 -32 10 -49z" />
    <glyph glyph-name="A" unicode="A" horiz-adv-x="1055" 
d="M56 0l465 915l478 -915h-207l-264 517l-265 -517h-207z" />
    <glyph glyph-name="B" unicode="B" 
d="M759 451q70 76 70 180q0 105 -78 187.5t-198 82.5h-497v-180h497q38 0 64 -26.5t26 -63.5t-26 -64.5t-64 -27.5h-497v-178h497q37 0 63.5 -27.5t26.5 -63.5q0 -37 -26 -63.5t-64 -26.5h-497v-180h497q120 0 198 82.5t78 187.5q0 107 -70 181z" />
    <glyph glyph-name="C" unicode="C" horiz-adv-x="912" 
d="M710 258q-80 -77 -193 -77q-118 0 -196 81.5t-78 188.5q0 108 78 189t196 81q113 0 193 -77l15 -14l131 126l-12 12q-136 133 -327 133q-94 0 -178 -36q-133 -57 -208 -169.5t-75 -244.5t75 -244t208 -169q83 -37 178 -37q191 0 327 133l12 12l-131 126z" />
    <glyph glyph-name="D" unicode="D" 
d="M793 278q36 78 36 173q0 94 -36 172q-54 121 -167 199.5t-257 78.5h-313v-180h313q112 0 192 -78q82 -80 82 -192q0 -110 -81 -193q-75 -78 -193 -78h-313v-180h313q92 0 178.5 36t147.5 98q60 59 98 144z" />
    <glyph glyph-name="E" unicode="E" horiz-adv-x="739" 
d="M683 901h-627v-180h627v180zM683 539h-627v-178h627v178zM683 180h-627v-180h627v180z" />
    <glyph glyph-name="F" unicode="F" horiz-adv-x="739" 
d="M683 901h-627v-180h627v180zM683 469h-627v-469h186v288h441v181z" />
    <glyph glyph-name="G" unicode="G" horiz-adv-x="913" 
d="M710 258q-80 -77 -193 -77q-118 0 -196 81.5t-78 188.5q0 108 78 189t196 81q113 0 193 -77l15 -14l131 126l-12 12q-136 133 -327 133q-94 0 -178 -36q-133 -57 -208 -169.5t-75 -244.5t75 -244t208 -169q83 -37 178 -37q191 0 327 133l12 12l-131 126zM497 539v-178
h360v178h-360z" />
    <glyph glyph-name="H" unicode="H" 
d="M56 901v-901h186v361h401v-361h186v540h-587v361h-186z" />
    <glyph glyph-name="I" unicode="I" horiz-adv-x="298" 
d="M242 0v901h-186v-901h186z" />
    <glyph glyph-name="J" unicode="J" 
d="M242 395h-186v-17q0 -157 113 -267q114 -111 275 -111q159 0 273 111q112 111 112 267v523h-186v-523q0 -81 -56 -139.5t-143 -58.5q-85 0 -143.5 60t-58.5 138v17z" />
    <glyph glyph-name="K" unicode="K" horiz-adv-x="1014" 
d="M698 1h260l-459 450l459 451h-260l-456 -448v447h-186v-901h186v447z" />
    <glyph glyph-name="L" unicode="L" horiz-adv-x="739" 
d="M242 180v721h-186v-901h627v180h-441z" />
    <glyph glyph-name="M" unicode="M" horiz-adv-x="1033" 
d="M242 712l-186 183v-895h185zM497 423v-257l295 290v-456h185v895z" />
    <glyph glyph-name="N" unicode="N" horiz-adv-x="884" 
d="M56 2h186v730l-186 163v-893zM828 0v894h-186v-460l-225 199v-272z" />
    <glyph glyph-name="O" unicode="O" horiz-adv-x="1034" 
d="M842 768q-136 133 -326 133t-325 -133q-135 -134 -135 -317q0 -184 135 -318q136 -133 325 -133q188 0 326 133q136 132 136 318q0 184 -136 317zM243 451q0 109 77 189.5t196 80.5t196.5 -81t77.5 -189q0 -110 -77 -190.5t-197 -80.5q-121 0 -197 80t-76 191z" />
    <glyph glyph-name="P" unicode="P" 
d="M738 378q91 88 91 217q0 120 -87.5 213t-225.5 93h-460v-180h460q53 0 90 -38.5t37 -87.5q0 -50 -37 -88.5t-90 -38.5h-460v-468h186v288h274q130 0 222 90z" />
    <glyph glyph-name="Q" unicode="Q" horiz-adv-x="1033" 
d="M900 201l-137 132l-130 -128l-222 218l131 127l220 -216q26 50 28.5 105.5t-17 105t-55 90t-88.5 64.5t-114 24q-118 0 -196 -82t-78 -190q0 -110 77 -190.5t197 -80.5q64 0 117 25l134 -135q-110 -70 -251 -70q-193 0 -327 131q-133 130 -133 315v5q5 190 134 318
q135 132 326 132q192 0 327 -132q134 -133 134 -318q0 -141 -77 -250z" />
    <glyph glyph-name="R" unicode="R" horiz-adv-x="854" 
d="M586 0h212l-185 320q82 40 127.5 116t45.5 160q0 120 -88 212.5t-225 92.5h-417v-180h417q53 0 90 -38t37 -87q0 -51 -37 -89.5t-90 -38.5q-87 0 -131 1h-32zM56 0h186v636h-186v-636z" />
    <glyph glyph-name="S" unicode="S" 
d="M332 901q-121 0 -198.5 -82t-77.5 -188q0 -112 80 -191q81 -79 196 -79h220q34 0 63 -27q28 -30 28 -64q0 -38 -25.5 -64.5t-65.5 -25.5l-283 2v-182h283q122 0 199.5 81.5t77.5 188.5q0 112 -81 190q-81 79 -196 79h-220q-37 0 -64 27q-26 26 -26 65q0 38 25 64t65 26
h240l-1 180h-239z" />
    <glyph glyph-name="T" unicode="T" horiz-adv-x="660" 
d="M56 901v-180h361v-721h187v901h-548z" />
    <glyph glyph-name="U" unicode="U" 
d="M829 395h-186v-17q0 -78 -58 -138t-143 -60q-87 0 -143.5 58.5t-56.5 139.5v523h-186v-523q0 -156 112 -267q114 -111 274 -111t274 111q113 110 113 267v17z" />
    <glyph glyph-name="V" unicode="V" horiz-adv-x="1218" 
d="M263 901h-207l471 -926l104 204zM717 434h207l238 467h-207z" />
    <glyph glyph-name="W" unicode="W" horiz-adv-x="1608" 
d="M632 180l-369 721h-207l472 -926zM1552 901h-208l-263 -518l-195 382l-104 -205l299 -585z" />
    <glyph glyph-name="X" unicode="X" horiz-adv-x="1063" 
d="M1007 901h-234l-241 -302l-239 302h-237l358 -452l-358 -449h237l240 303l241 -305l232 2l-356 451z" />
    <glyph glyph-name="Y" unicode="Y" horiz-adv-x="1063" 
d="M1007 901h-234l-241 -303l-239 303h-237l358 -452l-358 -449h237z" />
    <glyph glyph-name="Z" unicode="Z" horiz-adv-x="1115" 
d="M1059 901h-979v-180h550l-574 -721h237z" />
    <glyph glyph-name="bracketleft" unicode="[" horiz-adv-x="452" 
d="M396 964h-340v-1026h340v182h-136v661h136v183z" />
    <glyph glyph-name="backslash" unicode="\" horiz-adv-x="754" 
d="M698 964h-217l-425 -1026h218z" />
    <glyph glyph-name="bracketright" unicode="]" horiz-adv-x="452" 
d="M193 120h-137v-182h340v1026h-340v-183h137v-661z" />
    <glyph glyph-name="underscore" unicode="_" horiz-adv-x="709" 
d="M653 120h-597v-182h597v182z" />
    <glyph glyph-name="a" unicode="a" horiz-adv-x="1055" 
d="M56 0l465 915l478 -915h-207l-264 517l-265 -517h-207z" />
    <glyph glyph-name="b" unicode="b" 
d="M759 451q70 76 70 180q0 105 -78 187.5t-198 82.5h-497v-180h497q38 0 64 -26.5t26 -63.5t-26 -64.5t-64 -27.5h-497v-178h497q37 0 63.5 -27.5t26.5 -63.5q0 -37 -26 -63.5t-64 -26.5h-497v-180h497q120 0 198 82.5t78 187.5q0 107 -70 181z" />
    <glyph glyph-name="c" unicode="c" horiz-adv-x="912" 
d="M710 258q-80 -77 -193 -77q-118 0 -196 81.5t-78 188.5q0 108 78 189t196 81q113 0 193 -77l15 -14l131 126l-12 12q-136 133 -327 133q-94 0 -178 -36q-133 -57 -208 -169.5t-75 -244.5t75 -244t208 -169q83 -37 178 -37q191 0 327 133l12 12l-131 126z" />
    <glyph glyph-name="d" unicode="d" 
d="M793 278q36 78 36 173q0 94 -36 172q-54 121 -167 199.5t-257 78.5h-313v-180h313q112 0 192 -78q82 -80 82 -192q0 -110 -81 -193q-75 -78 -193 -78h-313v-180h313q92 0 178.5 36t147.5 98q60 59 98 144z" />
    <glyph glyph-name="e" unicode="e" horiz-adv-x="739" 
d="M683 901h-627v-180h627v180zM683 539h-627v-178h627v178zM683 180h-627v-180h627v180z" />
    <glyph glyph-name="f" unicode="f" horiz-adv-x="739" 
d="M683 901h-627v-180h627v180zM683 469h-627v-469h186v288h441v181z" />
    <glyph glyph-name="g" unicode="g" horiz-adv-x="913" 
d="M710 258q-80 -77 -193 -77q-118 0 -196 81.5t-78 188.5q0 108 78 189t196 81q113 0 193 -77l15 -14l131 126l-12 12q-136 133 -327 133q-94 0 -178 -36q-133 -57 -208 -169.5t-75 -244.5t75 -244t208 -169q83 -37 178 -37q191 0 327 133l12 12l-131 126zM497 539v-178
h360v178h-360z" />
    <glyph glyph-name="h" unicode="h" 
d="M56 901v-901h186v361h401v-361h186v540h-587v361h-186z" />
    <glyph glyph-name="i" unicode="i" horiz-adv-x="298" 
d="M242 0v901h-186v-901h186z" />
    <glyph glyph-name="j" unicode="j" 
d="M242 395h-186v-17q0 -157 113 -267q114 -111 275 -111q159 0 273 111q112 111 112 267v523h-186v-523q0 -81 -56 -139.5t-143 -58.5q-85 0 -143.5 60t-58.5 138v17z" />
    <glyph glyph-name="k" unicode="k" horiz-adv-x="1014" 
d="M698 1h260l-459 450l459 451h-260l-456 -448v447h-186v-901h186v447z" />
    <glyph glyph-name="l" unicode="l" horiz-adv-x="739" 
d="M242 180v721h-186v-901h627v180h-441z" />
    <glyph glyph-name="m" unicode="m" horiz-adv-x="1033" 
d="M242 712l-186 183v-895h185zM497 423v-257l295 290v-456h185v895z" />
    <glyph glyph-name="n" unicode="n" horiz-adv-x="884" 
d="M56 2h186v730l-186 163v-893zM828 0v894h-186v-460l-225 199v-272z" />
    <glyph glyph-name="o" unicode="o" horiz-adv-x="1034" 
d="M842 768q-136 133 -326 133t-325 -133q-135 -134 -135 -317q0 -184 135 -318q136 -133 325 -133q188 0 326 133q136 132 136 318q0 184 -136 317zM243 451q0 109 77 189.5t196 80.5t196.5 -81t77.5 -189q0 -110 -77 -190.5t-197 -80.5q-121 0 -197 80t-76 191z" />
    <glyph glyph-name="p" unicode="p" 
d="M738 378q91 88 91 217q0 120 -87.5 213t-225.5 93h-460v-180h460q53 0 90 -38.5t37 -87.5q0 -50 -37 -88.5t-90 -38.5h-460v-468h186v288h274q130 0 222 90z" />
    <glyph glyph-name="q" unicode="q" horiz-adv-x="1033" 
d="M900 201l-137 132l-130 -128l-222 218l131 127l220 -216q26 50 28.5 105.5t-17 105t-55 90t-88.5 64.5t-114 24q-118 0 -196 -82t-78 -190q0 -110 77 -190.5t197 -80.5q64 0 117 25l134 -135q-110 -70 -251 -70q-193 0 -327 131q-133 130 -133 315v5q5 190 134 318
q135 132 326 132q192 0 327 -132q134 -133 134 -318q0 -141 -77 -250z" />
    <glyph glyph-name="r" unicode="r" horiz-adv-x="854" 
d="M586 0h212l-185 320q82 40 127.5 116t45.5 160q0 120 -88 212.5t-225 92.5h-417v-180h417q53 0 90 -38t37 -87q0 -51 -37 -89.5t-90 -38.5q-87 0 -131 1h-32zM56 0h186v636h-186v-636z" />
    <glyph glyph-name="s" unicode="s" 
d="M332 901q-121 0 -198.5 -82t-77.5 -188q0 -112 80 -191q81 -79 196 -79h220q34 0 63 -27q28 -30 28 -64q0 -38 -25.5 -64.5t-65.5 -25.5l-283 2v-182h283q122 0 199.5 81.5t77.5 188.5q0 112 -81 190q-81 79 -196 79h-220q-37 0 -64 27q-26 26 -26 65q0 38 25 64t65 26
h240v180h-240z" />
    <glyph glyph-name="t" unicode="t" horiz-adv-x="660" 
d="M56 901v-180h361v-721h187v901h-548z" />
    <glyph glyph-name="u" unicode="u" 
d="M829 395h-186v-17q0 -78 -58 -138t-143 -60q-87 0 -143.5 58.5t-56.5 139.5v523h-186v-523q0 -156 112 -267q114 -111 274 -111t274 111q113 110 113 267v17z" />
    <glyph glyph-name="v" unicode="v" horiz-adv-x="1218" 
d="M263 901h-207l471 -926l104 204zM717 434h207l238 467h-207z" />
    <glyph glyph-name="w" unicode="w" horiz-adv-x="1608" 
d="M632 180l-369 721h-207l472 -926zM1552 901h-208l-263 -518l-195 382l-104 -205l299 -585z" />
    <glyph glyph-name="x" unicode="x" horiz-adv-x="1063" 
d="M1007 901h-234l-241 -303l-239 303h-237l358 -452l-358 -449h237l240 303l241 -305l232 2l-356 451z" />
    <glyph glyph-name="y" unicode="y" horiz-adv-x="1063" 
d="M1007 901h-234l-241 -303l-239 303h-237l358 -452l-358 -449h237z" />
    <glyph glyph-name="z" unicode="z" horiz-adv-x="1115" 
d="M1059 901h-979v-180h550l-574 -721h237z" />
    <glyph glyph-name="cent" unicode="&#xa2;" horiz-adv-x="896" 
d="M356 63v-141h205v128q139 24 262 144l17 17l-191 83l-10 -10q-30 -27 -78 -45v423q69 -26 107 -77l14 -18l143 137l-12 11q-8 10 -13 14q-99 98 -239 122v142h-205v-155q-138 -41 -219 -149.5t-81 -238.5t81.5 -238t218.5 -149zM356 634v-367q-45 31 -70 80t-25 103
q0 53 25 102.5t70 81.5z" />
    <glyph glyph-name="copyright" unicode="&#xa9;" horiz-adv-x="1034" 
d="M842 133q136 132 136 318q0 184 -136 317t-326 133t-325 -133q-135 -134 -135 -317q0 -184 135 -318q136 -133 325 -133q188 0 326 133zM516 721q119 0 196.5 -81t77.5 -189q0 -110 -77 -190.5t-197 -80.5q-121 0 -197 80t-76 191q0 109 77 189.5t196 80.5zM598 388
q-33 -38 -76 -38q-16 0 -39 7q-8 4 -12 7l-6 6l-8 8q-31 31 -31 73q0 38 28 68.5t68 30.5q43 0 76 -38l15 -16l89 88l-10 11q-25 30 -76 55q-36 18 -94 18q-98 0 -164 -66t-66 -151q0 -87 65.5 -153t164.5 -66q105 0 171 72l11 12l-91 88z" />
    <glyph glyph-name="registered" unicode="&#xae;" horiz-adv-x="1034" 
d="M842 133q136 132 136 318q0 184 -136 317t-326 133t-325 -133q-135 -134 -135 -317q0 -184 135 -318q136 -133 325 -133q188 0 326 133zM516 721q119 0 196.5 -81t77.5 -189q0 -110 -77 -190.5t-197 -80.5q-121 0 -197 80t-76 191q0 109 77 189.5t196 80.5zM460 271v189
l111 -189h108l-74 128q62 39 62 109q0 50 -36 88t-95 38h-170v-89h170q14 0 25 -11.5t11 -25.5q0 -16 -11 -27t-25 -11h-76v64h-94v-263h94z" />
    <glyph glyph-name="multiply" unicode="&#xd7;" horiz-adv-x="590" 
d="M177 210l118 116l119 -117l120 118l-119 116l119 116l-120 117l-119 -116l-118 116l-121 -117l119 -116l-119 -116z" />
    <glyph glyph-name="divide" unicode="&#xf7;" horiz-adv-x="561" 
d="M280 704q-44 0 -73 -29t-29 -66q0 -26 15 -49.5t41 -36.5h-178v-161h174q-52 -28 -52 -83q0 -38 29 -66.5t73 -28.5q45 0 74 28.5t29 66.5q0 55 -52 83h174v161h-178q26 13 41 36.5t15 49.5q0 38 -29 66.5t-74 28.5z" />
    <glyph glyph-name="dagger" unicode="&#x2020;" horiz-adv-x="851" 
d="M795 550v180h-277v225h-186v-225h-276v-180h276v-496h186v496h277z" />
    <glyph glyph-name="Euro" unicode="&#x20ac;" horiz-adv-x="988" 
d="M212 309q42 -109 145 -186.5t243 -77.5q133 0 247 80l3 3v198l-19 -26q-3 -3 -6 -6.5t-6.5 -8t-5.5 -6.5q-3 -3 -9 -10t-10 -10q-82 -80 -194 -80q-76 0 -137 36.5t-97 93.5h291l78 132h-410v14v13h425l78 132h-462q36 57 97 93.5t137 36.5q136 0 221 -108l10 -15l74 128
l-5 2q-125 127 -300 127q-140 0 -243 -78t-145 -186h-79l-77 -132h129v-3v-24h-52l-77 -132h156z" />
    <glyph glyph-name="trademark" unicode="&#x2122;" horiz-adv-x="859" 
d="M56 804h125v-307h100v307h108v-307h103v183l105 -94l104 95v-184h102v403l-206 -176l-208 176h-333v-96z" />
    <glyph glyph-name="_FSHallmark" horiz-adv-x="1092" 
d="M1036 749h-978v116h978v-116zM825 202q-41 0 -80 10q-37 10 -69 33q-31 23 -49 55t-18 77l113 -2q0 -5 6 -18q1 -16 17 -30q15 -15 29 -20q20 -11 55 -11q40 0 63 13q23 12 23 31q0 36 -93 54q-96 27 -143 53q-59 29 -59 97q0 55 39 88q31 27 86 47q43 9 80 9
q53 0 110 -22q56 -22 79 -77q13 -37 13 -57h-118q0 12 -9 26q-6 9 -21 21q-3 1 -12.5 5.5t-15.5 5.5q-25 5 -28 5q-27 0 -57 -16q-23 -14 -23 -34q0 -36 22 -48q34 -16 51 -19l43 -11l36 -8q27 -8 35 -8q19 -3 28 -8q14 -6 24 -12q23 -13 37 -32q12 -20 15 -52
q3 -28 -13 -58q-29 -52 -86 -70q-52 -17 -110 -17zM187 202h-129v485h412v-110h-283v-110h235v-108h-235v-157zM517 204q-21 0 -39 18q-20 17 -20 38q0 26 18 42q16 15 41 15t47 -17q20 -15 20 -40q0 -23 -20 -41q-21 -15 -47 -15zM1034 25h-978v116h978v-116z" />
    <glyph glyph-name="_Fontastica" horiz-adv-x="848" 
d="M179 153h-121q-1 2 -1 5v710h532v-108h-410v-292h410v-110h-410v-205zM788 155h-532v109h411v292h-411v110h411v202h121v-713zM677 39q-5 0 -21 6q-9 14 -10 24q0 14 9 23q12 12 22 12q14 0 28 -12l-6 -9q-1 2 -3.5 3.5t-3.5 2.5t-10 1h-5q-8 -4 -10 -7q-6 -4 -6 -10
q0 -11 4 -15q7 -7 12 -7q12 0 22 7l6 -7q-10 -12 -28 -12zM74 41h-16v60h45v-11h-29v-16h28v-10h-28v-23zM158 36q-9 0 -14 5q-18 6 -18 27q0 16 8 24q8 9 25 9q18 0 30 -15q10 -13 2 -28q-4 -16 -26 -19zM269 39q-3 0 -9 6l-8 9q0 2 -3 5l-3 3l-11 16v-37h-14v60h11
q5 -1 6 -8q3 -2 7.5 -7.5t6.5 -7.5l12 -18v41h14v-60h-5q-3 -2 -4 -2zM335 41h-13v49h-20v11h52v-11h-19v-49zM483 39q-20 0 -27 10v2l1 2q0 1 2 5l20 -7h8l5 3q0 9 -14 14q-3 0 -3 1h-6q-10 4 -10 14q-3 11 9 16q6 2 13 2q16 0 25 -4l-4 -11l-5 2h-3q-1 1 -5 1q-1 0 -2 1
h-8q-4 0 -4 -2q-2 -3 4 -10q3 -1 8.5 -3t6.5 -2q12 0 12 -15q2 -13 -11 -17q-1 -2 -12 -2zM561 41h-15v49h-20v11h54v-11h-19v-49zM620 41h-15v60h15v-60zM738 41h-13q12 20 24 60h17l13 -28l7 -19q0 -1 2.5 -6t4.5 -7h-14l-6 12h-29zM381 41h-12l25 58h15q0 -1 6 -13
q6 -10 7 -14q4 -9 6 -18q0 -2 2 -8l3 -5h-14q-1 1 -1 4q0 2 -3 8h-30v-8v-1zM159 51h6q11 4 11 18v3q0 9 -5 14q-4 4 -13 4q-2 -1 -6 -1q-1 0 -4 -4t-6 -7q-7 -6 -2 -14q4 -13 19 -13zM401 88l-11 -24h21l-2 5l-5 5q-1 3 -1 7q-1 1 -1 3.5t-1 3.5zM758 88l-10 -24h20l-2 5
q0 3 -2 5q-3 3 -3 7l-1 3q-1 3 -2 4z" />
    </font>
</defs>
</svg>
