<?xml version="1.0" standalone="no"?>
<!DOCTYPE svg PUBLIC "-//W3C//DTD SVG 1.1//EN" "http://www.w3.org/Graphics/SVG/1.1/DTD/svg11.dtd" >
<svg xmlns="http://www.w3.org/2000/svg" xmlns:xlink="http://www.w3.org/1999/xlink" version="1.1">
<metadata>
Created by FontForge 20170731 at Sun Dec  8 03:45:49 2019
 By Aleksey,,,
Copyright (c) 2019 by Fontastica. All rights reserved.
</metadata>
<defs>
<font id="Noir-Regular" horiz-adv-x="858" >
  <font-face 
    font-family="Noir"
    font-weight="400"
    font-stretch="normal"
    units-per-em="1000"
    panose-1="0 0 5 0 0 0 0 0 0 0"
    ascent="800"
    descent="-200"
    x-height="896"
    cap-height="896"
    bbox="55.9701 -94 1515 991"
    underline-thickness="50"
    underline-position="-200"
    unicode-range="U+0020-2122"
  />
<missing-glyph horiz-adv-x="778" 
d="M56 885h666v-874h-666v874zM125 818v-691l523 691h-523zM149 80h503v672z" />
    <glyph glyph-name=".notdef" horiz-adv-x="778" 
d="M56 885h666v-874h-666v874zM125 818v-691l523 691h-523zM149 80h503v672z" />
    <glyph glyph-name=".null" horiz-adv-x="0" 
 />
    <glyph glyph-name="nonmarkingreturn" horiz-adv-x="333" 
 />
    <glyph glyph-name="space" unicode=" " horiz-adv-x="672" 
 />
    <glyph glyph-name="exclam" unicode="!" horiz-adv-x="310" 
d="M228 271h-150v597h150v-597zM155 239q-47 0 -73 -29.5t-26 -62.5t26.5 -62t72.5 -29t72.5 29t26.5 62t-26 62.5t-73 29.5z" />
    <glyph glyph-name="quotedbl" unicode="&#x22;" horiz-adv-x="424" 
d="M56 892v-287h137v287h-137zM232 892v-287h136v287h-136z" />
    <glyph glyph-name="numbersign" unicode="#" horiz-adv-x="864" 
d="M109 56h171l47 180h102l-47 -180h172l47 180h145v153h-106l30 118h138v153h-99l47 180h-174l-46 -180h-101l47 180h-173l-47 -180h-144v-153h106l-30 -118h-138v-153h99zM366 389l30 118h101l-29 -118h-102z" />
    <glyph glyph-name="dollar" unicode="$" horiz-adv-x="700" 
d="M267 -94h168v152q68 9 118.5 50t72.5 94q18 42 18 88q0 97 -68 164q-75 70 -176 70h-99q-34 0 -55.5 25.5t-21.5 56.5t21.5 56.5t55.5 25.5h238l78 152h-182v150h-168v-152q-69 -10 -119.5 -51t-73.5 -94q-17 -43 -17 -87q0 -46 18 -90q25 -59 85.5 -101.5t140.5 -42.5
h99q33 0 54.5 -25.5t21.5 -56.5t-21.5 -56t-54.5 -25h-251l-93 -153h211v-150z" />
    <glyph glyph-name="percent" unicode="%" horiz-adv-x="1172" 
d="M75 696q-19 -48 -19 -90q0 -50 21 -95q27 -59 86 -99t138 -40t138 40t86 99q22 47 22 95q0 42 -19 90q-27 60 -86.5 102t-140.5 42t-141 -42.5t-85 -101.5zM738 840l-499 -784h194l498 784h-193zM301 688q34 0 56.5 -25.5t22.5 -56.5t-22.5 -56.5t-56.5 -25.5t-56 25.5
t-22 56.5t22 56.5t56 25.5zM646 384q-21 -45 -21 -94q0 -50 21 -95q27 -58 86 -98.5t137 -40.5q80 0 141 42t86 102q20 46 20 90q0 45 -20 90q-25 60 -85.5 102t-141.5 42q-79 0 -137.5 -40.5t-85.5 -99.5zM869 372q34 0 56.5 -25.5t22.5 -56.5t-22.5 -56t-56.5 -25
q-33 0 -55 25t-22 56t22 56.5t55 25.5z" />
    <glyph glyph-name="ampersand" unicode="&#x26;" horiz-adv-x="772" 
d="M78 161q29 -67 90 -114t141 -47h62q80 0 140.5 47.5t88.5 114.5q23 55 23 115v100h93v175h-407q-30 0 -50 26.5t-20 58.5q0 33 20 59t50 26h62q33 0 51 -29t18 -67v-25h168v16q0 71 -20 119q-26 68 -82 114t-135 46h-62q-74 0 -130.5 -42.5t-84.5 -104.5
q-22 -49 -22 -112q0 -94 56 -169q-72 -79 -72 -191q0 -62 22 -116zM371 176h-62q-38 0 -62 30.5t-24 70.5q0 38 24 69t62 31h146v-100q0 -40 -23.5 -70.5t-60.5 -30.5z" />
    <glyph glyph-name="quotesingle" unicode="'" horiz-adv-x="249" 
d="M56 892v-287h137v287h-137z" />
    <glyph glyph-name="parenleft" unicode="(" horiz-adv-x="418" 
d="M56 703v-510q0 -53 21 -99q31 -68 99 -113t159 -45h27v152h-27q-48 0 -80 32t-32 73v510q0 27 12 51q31 54 90 54h37v153h-27q-91 0 -159 -45.5t-99 -113.5q-21 -46 -21 -99z" />
    <glyph glyph-name="parenright" unicode=")" horiz-adv-x="418" 
d="M56 88v-152h27q90 0 159 45.5t98 112.5q22 45 22 99v510q0 55 -20 99q-28 65 -94.5 112t-153.5 47h-38v-153h27q48 0 80 -32t32 -73v-510q0 -41 -32 -73t-80 -32h-27z" />
    <glyph glyph-name="asterisk" unicode="*" horiz-adv-x="416" 
d="M155 660v-55h106v55l48 -27l51 87l-50 28l50 29l-51 87l-48 -26v54h-106v-54l-47 27l-52 -88l50 -29l-50 -28l52 -87z" />
    <glyph glyph-name="plus" unicode="+" horiz-adv-x="529" 
d="M196 374v-138h137v138h140v131h-140v139h-137v-139h-140v-131h140z" />
    <glyph glyph-name="comma" unicode="," horiz-adv-x="310" 
d="M118 63v-66h136v150q0 33 -26 62.5t-73 29.5t-73 -29.5t-26 -62.5q0 -26 16 -49.5t46 -34.5z" />
    <glyph glyph-name="hyphen" unicode="-" horiz-adv-x="529" 
d="M56 449v-131h417v131h-417z" />
    <glyph glyph-name="period" unicode="." horiz-adv-x="310" 
d="M155 239q-47 0 -73 -29.5t-26 -62.5t26.5 -62t72.5 -29t72.5 29t26.5 62t-26 62.5t-73 29.5z" />
    <glyph glyph-name="slash" unicode="/" horiz-adv-x="708" 
d="M474 961l-418 -1025h179l417 1025h-178z" />
    <glyph glyph-name="zero" unicode="0" horiz-adv-x="1009" 
d="M820 764q133 -133 133 -316q0 -186 -133 -316q-134 -132 -316 -132t-316 132q-132 134 -132 316t132 316q130 132 316 132q182 0 316 -132zM715 236q87 88 87 212q0 122 -87 211q-61 60 -138 78l7 -577q76 22 131 76zM292 236q61 -60 140 -78l-6 578q-73 -18 -134 -77
q-86 -87 -86 -211q0 -125 86 -212z" />
    <glyph glyph-name="one" unicode="1" horiz-adv-x="430" 
d="M233 896h141v-896h-150v746h-168z" />
    <glyph glyph-name="two" unicode="2" horiz-adv-x="689" 
d="M56 0l383 492q45 45 45 106q0 59 -45 104q-44 44 -104 44h-254v150h254q123 0 210 -87q88 -88 88 -211q0 -32 -9 -75l-258 -373h250v-150h-560z" />
    <glyph glyph-name="three" unicode="3" horiz-adv-x="699" 
d="M643 635q0 -109 -79 -187q79 -75 79 -187q0 -52 -20 -101q-20 -45 -56 -83q-33 -33 -84 -57q-49 -20 -101 -20h-326v150h326q25 0 42 8q24 10 37 25q14 12 24 35q9 21 9 43t-9 43q-10 23 -24 35q-17 17 -34 25q-23 9 -45 9h-178v149h178q25 0 42 9q22 7 37 25
q14 12 24 35q9 21 9 44q0 22 -9 43q-10 23 -24 35q-13 15 -37 25q-17 8 -42 8h-326v150h326q50 0 101 -20q51 -24 84 -57q36 -38 56 -83q20 -49 20 -101z" />
    <glyph glyph-name="four" unicode="4" horiz-adv-x="790" 
d="M734 2h-149v373h-529v523h149v-373h380v373h149v-896z" />
    <glyph glyph-name="five" unicode="5" 
d="M715 88q-89 -87 -211 -87h-448v150h448q60 0 104 44q45 45 45 105t-45 105q-43 44 -104 44h-448v448h149v-298h299q122 0 211 -87q87 -88 87 -212t-87 -212z" />
    <glyph glyph-name="six" unicode="6" 
d="M692 637q110 -110 110 -264q0 -157 -110 -264q-109 -109 -264 -109t-263 109q-109 108 -109 264v523h149v-223q97 73 223 73q155 0 264 -109zM586 216q67 69 67 157t-67 157q-68 66 -158 66q-93 0 -159 -66q-64 -64 -64 -157t64 -157q63 -66 159 -66q92 0 158 66z" />
    <glyph glyph-name="seven" unicode="7" horiz-adv-x="709" 
d="M56 896h597v-896h-150v373h-298v149h298v224h-447v150z" />
    <glyph glyph-name="eight" unicode="8" horiz-adv-x="718" 
d="M584 448q78 -75 78 -187q0 -52 -20 -101q-20 -45 -56 -83q-33 -33 -84 -57q-42 -17 -84 -20h-118q-42 3 -84 20q-48 23 -84 57q-36 38 -56 83q-20 49 -20 101q0 112 78 187q-78 78 -78 187q0 52 20 101q20 45 56 83q39 37 84 57q42 17 84 20h118q42 -3 84 -20
q51 -24 84 -57q36 -38 56 -83q20 -49 20 -101q0 -109 -78 -187zM504 591q9 21 9 44q0 22 -9 43q-10 23 -24 35q-12 15 -36 25q-19 8 -43 8h-84q-24 0 -43 -8q-23 -10 -37 -25q-13 -13 -23 -35q-9 -21 -9 -43q0 -23 9 -44q10 -22 23 -35q16 -18 37 -25q18 -9 43 -9h84
q25 0 43 9q22 8 36 25q14 12 24 35zM504 218q9 21 9 43t-9 43q-10 23 -24 35q-17 17 -34 25q-23 9 -45 9h-84q-23 0 -45 -9q-15 -7 -35 -25q-13 -13 -23 -35q-9 -21 -9 -43t9 -43q10 -22 23 -35q14 -15 37 -25q19 -8 43 -8h84q24 0 43 8q24 10 36 25q14 12 24 35z" />
    <glyph glyph-name="nine" unicode="9" 
d="M166 260q-110 110 -110 264q0 155 110 264q109 109 264 109q154 0 263 -109q109 -108 109 -264v-523h-149v223q-97 -73 -223 -73q-155 0 -264 109zM272 681q-67 -67 -67 -157t67 -157q68 -66 158 -66q92 0 159 66q64 64 64 157t-64 157q-66 66 -159 66q-92 0 -158 -66z
" />
    <glyph glyph-name="colon" unicode=":" horiz-adv-x="310" 
d="M155 539q-47 0 -73 -29t-26 -63q0 -33 26.5 -62t72.5 -29t72.5 29t26.5 62q0 34 -26 63t-73 29zM155 239q-47 0 -73 -29.5t-26 -62.5t26.5 -62t72.5 -29t72.5 29t26.5 62t-26 62.5t-73 29.5z" />
    <glyph glyph-name="semicolon" unicode=";" horiz-adv-x="310" 
d="M155 539q-47 0 -73 -29t-26 -63q0 -33 26.5 -62t72.5 -29t72.5 29t26.5 62q0 34 -26 63t-73 29zM118 63v-66h136v150q0 33 -26 62.5t-73 29.5t-73 -29.5t-26 -62.5q0 -26 16 -49.5t46 -34.5z" />
    <glyph glyph-name="less" unicode="&#x3c;" horiz-adv-x="556" 
d="M56 382l444 -236v177l-228 121l228 122v175l-444 -236v-123z" />
    <glyph glyph-name="equal" unicode="=" horiz-adv-x="529" 
d="M56 613v-131h417v131h-417zM56 398v-131h417v131h-417z" />
    <glyph glyph-name="greater" unicode="&#x3e;" horiz-adv-x="556" 
d="M56 323v-177l444 236v123l-444 236v-175l228 -122z" />
    <glyph glyph-name="question" unicode="?" horiz-adv-x="679" 
d="M256 535v-257h167v110q67 11 116.5 51.5t67.5 92.5q16 45 16 85q0 51 -24 101q-27 56 -86 94.5t-136 38.5h-76q-82 0 -141 -41.5t-84 -102.5q-20 -51 -20 -100v-21h167v21q0 36 21 64t57 28h76q35 0 56.5 -25t21.5 -57t-21.5 -57t-56.5 -25h-121zM339 250
q-46 0 -72 -29.5t-26 -62.5t26 -62t72 -29t73 29t27 62t-26.5 62.5t-73.5 29.5z" />
    <glyph glyph-name="at" unicode="@" horiz-adv-x="1049" 
d="M524 -1h284v152h-284q-94 0 -167 50t-106 125q-28 62 -28 125t28 125q34 75 106.5 124.5t166.5 49.5q93 0 166.5 -50t106.5 -124q27 -60 27 -125v-118h-16v118q0 55 -22 103q-30 70 -99.5 118.5t-162.5 48.5q-94 0 -164.5 -48t-98.5 -119q-20 -51 -20 -103q0 -60 20 -105
q30 -69 100 -118t163 -49h469v272q0 91 -37 174q-51 116 -165.5 197t-266.5 81q-154 0 -268.5 -81t-163.5 -197q-36 -84 -36 -174q0 -91 36 -173q50 -116 165 -197.5t267 -81.5zM641 333h-117q-51 0 -83.5 36.5t-32.5 81.5t32.5 82t83.5 37q37 0 66.5 -20t40.5 -50
q10 -32 10 -49v-118z" />
    <glyph glyph-name="A" unicode="A" horiz-adv-x="1009" 
d="M953 0h-167l-281 560l-282 -560h-167l448 896l1 -1v1z" />
    <glyph glyph-name="B" unicode="B" 
d="M802 635q0 -109 -78 -187q78 -75 78 -187q0 -52 -20 -101q-20 -45 -56 -83q-33 -33 -84 -57q-49 -20 -101 -20h-485v150h485q24 0 43 8q24 10 36 25q14 12 24 35q9 21 9 43t-9 43q-10 23 -24 35q-17 17 -34 25q-23 9 -45 9h-485v149h485q25 0 43 9q22 8 36 25
q14 12 24 35q9 21 9 44q0 22 -9 43q-10 23 -24 35q-12 15 -36 25q-19 8 -43 8h-485v150h485q50 0 101 -20q51 -24 84 -57q36 -38 56 -83q20 -49 20 -101z" />
    <glyph glyph-name="C" unicode="C" horiz-adv-x="878" 
d="M505 151q122 0 211 86l106 -104q-62 -62 -143 -97q-79 -35 -174 -35q-93 0 -173 36q-80 33 -144 96q-63 64 -96 141q-36 82 -36 174v1q0 91 36 174q34 79 96 141q64 63 144 96q80 36 173 36q95 0 174 -35q81 -35 143 -97l-106 -104q-89 86 -211 86q-61 0 -116 -22
q-57 -25 -96 -65q-41 -43 -63 -95q-24 -54 -24 -115t24 -116q22 -53 63 -94q46 -46 96 -65q54 -23 116 -23z" />
    <glyph glyph-name="D" unicode="D" 
d="M767 620q35 -77 35 -172t-35 -172q-35 -80 -96 -144q-61 -61 -143 -96q-81 -36 -174 -36h-298v150h298q61 0 116 22q58 26 96 65q42 45 63 96q24 55 24 115t-24 115q-22 53 -65 96q-41 41 -95 65q-57 22 -115 22h-298v150h298q91 0 174 -36q79 -34 142 -96
q62 -63 97 -144z" />
    <glyph glyph-name="E" unicode="E" horiz-adv-x="709" 
d="M653 896v-150h-597v150h597zM653 522v-149h-597v149h597zM56 150h597v-150h-597v150z" />
    <glyph glyph-name="F" unicode="F" horiz-adv-x="709" 
d="M653 896v-150h-597v150h597zM653 449v-151h-448v-298h-149v449h597z" />
    <glyph glyph-name="G" unicode="G" horiz-adv-x="886" 
d="M505 151q122 0 211 86l106 -104q-62 -62 -143 -97q-79 -35 -174 -35q-93 0 -173 36q-80 33 -144 96q-63 64 -96 141q-36 82 -36 174v1q0 91 36 174q34 79 96 141q64 63 144 96q80 36 173 36q95 0 174 -35q81 -35 143 -97l-106 -104q-89 86 -211 86q-61 0 -116 -22
q-57 -25 -96 -65q-41 -43 -63 -95q-24 -54 -24 -115t24 -116q22 -53 63 -94q46 -46 96 -65q54 -23 116 -23zM504 522h326v-149h-326v149z" />
    <glyph glyph-name="H" unicode="H" 
d="M56 896h149v-373h597v-523h-149v373h-448v-373h-149v896z" />
    <glyph glyph-name="I" unicode="I" horiz-adv-x="261" 
d="M205 0h-149v896h149v-896z" />
    <glyph glyph-name="J" unicode="J" 
d="M56 373h149q0 -90 67 -157q66 -66 158 -66q94 0 159 66q64 64 64 157v523h149v-523q0 -156 -109 -264q-109 -109 -263 -109q-155 0 -264 109q-110 107 -110 264z" />
    <glyph glyph-name="K" unicode="K" horiz-adv-x="964" 
d="M698 1l-450 447l450 449h210l-448 -448l448 -448h-210zM205 0h-149v896h149v-896z" />
    <glyph glyph-name="L" unicode="L" horiz-adv-x="709" 
d="M205 150h448v-150h-597v896h149v-746z" />
    <glyph glyph-name="M" unicode="M" horiz-adv-x="1008" 
d="M205 747l-1 -747h-148v896zM504 448l448 448v-896h-148v535l-300 -299v212z" />
    <glyph glyph-name="N" unicode="N" horiz-adv-x="857" 
d="M56 2v896l149 -133v-763h-149zM801 0l-378 338v231l229 -206v533h149v-896z" />
    <glyph glyph-name="O" unicode="O" horiz-adv-x="1009" 
d="M504 896q182 0 316 -132q133 -133 133 -316q0 -186 -133 -316q-134 -132 -316 -132t-316 132q-132 134 -132 316t132 316q130 132 316 132zM504 746q-124 0 -212 -87q-86 -87 -86 -211q0 -125 86 -212q87 -86 212 -86q124 0 211 86q87 88 87 212q0 122 -87 211
q-89 87 -211 87z" />
    <glyph glyph-name="P" unicode="P" 
d="M715 809q87 -90 87 -212q0 -125 -87 -212q-89 -87 -211 -87h-299v-298h-149v448h448q60 0 104 44q45 45 45 105q0 61 -45 105q-44 44 -104 44h-448v150h448q122 0 211 -87z" />
    <glyph glyph-name="Q" unicode="Q" horiz-adv-x="1008" 
d="M504 0q-188 0 -318 130q-132 130 -130 318q2 189 131 317q130 131 317 131t317 -131q131 -131 131 -317q0 -148 -83 -261l-109 109q43 68 43 153q0 121 -87 211q-91 88 -212 88t-212 -88q-87 -90 -87 -211q0 -123 87 -213q89 -86 212 -86q82 0 150 40l-230 229l106 105
l230 -229l-104 -105l108 -108q-112 -82 -260 -82z" />
    <glyph glyph-name="R" unicode="R" horiz-adv-x="814" 
d="M587 0l-260 449l133 -1q60 0 104 44q45 42 45 106q0 62 -45 104q-44 44 -104 44h-404v150h404q124 0 211 -87q87 -90 87 -211q0 -95 -52 -169q-52 -75 -131 -108l183 -321h-171zM56 0v622h149v-622h-149z" />
    <glyph glyph-name="S" unicode="S" 
d="M317 373q-107 0 -185 76q-76 79 -76 186q0 105 76 184q77 77 185 77h223l1 -150h-224q-25 0 -44 -8q-21 -9 -37 -25q-15 -15 -23 -35q-8 -19 -8 -43q0 -47 31 -79q34 -34 81 -34h223q107 0 185 -76q77 -79 77 -185t-77 -185q-78 -76 -185 -76h-267v152l267 -2q25 0 44 8
q23 10 36 23q15 15 24 36t9 44q0 44 -34 78q-33 34 -79 34h-223z" />
    <glyph glyph-name="T" unicode="T" horiz-adv-x="629" 
d="M56 896h517v-896h-150v746h-367v150z" />
    <glyph glyph-name="U" unicode="U" 
d="M802 373q0 -157 -110 -264q-109 -109 -264 -109t-263 109q-109 108 -109 264v523h149v-523q0 -93 64 -157q63 -66 159 -66q92 0 158 66q67 69 67 157h149z" />
    <glyph glyph-name="V" unicode="V" horiz-adv-x="1175" 
d="M223 896l365 -729l-84 -167l-448 896h167zM728 449l224 447h167l-224 -447h-167z" />
    <glyph glyph-name="W" unicode="W" horiz-adv-x="1571" 
d="M589 168l-84 -168l-449 896h167zM1515 896l-448 -896l-282 561l84 168l198 -394l281 561h167z" />
    <glyph glyph-name="X" unicode="X" horiz-adv-x="1002" 
d="M946 896l-698 -896h-192l701 896h189zM478 601l-96 -124l-326 419h192zM525 297l94 123l327 -420l-188 -2z" />
    <glyph glyph-name="Y" unicode="Y" horiz-adv-x="1002" 
d="M946 896l-698 -896h-192l701 896h189zM478 600l-96 -123l-326 419h192z" />
    <glyph glyph-name="Z" unicode="Z" horiz-adv-x="1008" 
d="M952 896l-9 -4l-695 -892h-192l584 746h-578v150h890z" />
    <glyph glyph-name="bracketleft" unicode="[" horiz-adv-x="418" 
d="M56 961v-1025h306v152h-139v720h139v153h-306z" />
    <glyph glyph-name="backslash" unicode="\" horiz-adv-x="708" 
d="M474 961l-418 -1025h179l417 1025h-178z" />
    <glyph glyph-name="bracketright" unicode="]" horiz-adv-x="418" 
d="M56 88v-152h306v1025h-306v-153h139v-720h-139z" />
    <glyph glyph-name="underscore" unicode="_" horiz-adv-x="679" 
d="M56 88v-152h567v152h-567z" />
    <glyph glyph-name="a" unicode="a" horiz-adv-x="1009" 
d="M953 0h-167l-281 560l-282 -560h-167l448 896l1 -1v1z" />
    <glyph glyph-name="b" unicode="b" 
d="M802 635q0 -109 -78 -187q78 -75 78 -187q0 -52 -20 -101q-20 -45 -56 -83q-33 -33 -84 -57q-49 -20 -101 -20h-485v150h485q24 0 43 8q24 10 36 25q14 12 24 35q9 21 9 43t-9 43q-10 23 -24 35q-17 17 -34 25q-23 9 -45 9h-485v149h485q25 0 43 9q22 8 36 25
q14 12 24 35q9 21 9 44q0 22 -9 43q-10 23 -24 35q-12 15 -36 25q-19 8 -43 8h-485v150h485q50 0 101 -20q51 -24 84 -57q36 -38 56 -83q20 -49 20 -101z" />
    <glyph glyph-name="c" unicode="c" horiz-adv-x="878" 
d="M505 151q122 0 211 86l106 -104q-62 -62 -143 -97q-79 -35 -174 -35q-93 0 -173 36q-80 33 -144 96q-63 64 -96 141q-36 82 -36 174v1q0 91 36 174q34 79 96 141q64 63 144 96q80 36 173 36q95 0 174 -35q81 -35 143 -97l-106 -104q-89 86 -211 86q-61 0 -116 -22
q-57 -25 -96 -65q-41 -43 -63 -95q-24 -54 -24 -115t24 -116q22 -53 63 -94q46 -46 96 -65q54 -23 116 -23z" />
    <glyph glyph-name="d" unicode="d" 
d="M767 620q35 -77 35 -172t-35 -172q-35 -80 -96 -144q-61 -61 -143 -96q-81 -36 -174 -36h-298v150h298q61 0 116 22q58 26 96 65q42 45 63 96q24 55 24 115t-24 115q-22 53 -65 96q-41 41 -95 65q-57 22 -115 22h-298v150h298q91 0 174 -36q79 -34 142 -96
q62 -63 97 -144z" />
    <glyph glyph-name="e" unicode="e" horiz-adv-x="709" 
d="M653 896v-150h-597v150h597zM653 522v-149h-597v149h597zM56 150h597v-150h-597v150z" />
    <glyph glyph-name="f" unicode="f" horiz-adv-x="709" 
d="M653 896v-150h-597v150h597zM653 449v-151h-448v-298h-149v449h597z" />
    <glyph glyph-name="g" unicode="g" horiz-adv-x="886" 
d="M505 151q122 0 211 86l106 -104q-62 -62 -143 -97q-79 -35 -174 -35q-93 0 -173 36q-80 33 -144 96q-63 64 -96 141q-36 82 -36 174v1q0 91 36 174q34 79 96 141q64 63 144 96q80 36 173 36q95 0 174 -35q81 -35 143 -97l-106 -104q-89 86 -211 86q-61 0 -116 -22
q-57 -25 -96 -65q-41 -43 -63 -95q-24 -54 -24 -115t24 -116q22 -53 63 -94q46 -46 96 -65q54 -23 116 -23zM504 522h326v-149h-326v149z" />
    <glyph glyph-name="h" unicode="h" 
d="M56 896h149v-373h597v-523h-149v373h-448v-373h-149v896z" />
    <glyph glyph-name="i" unicode="i" horiz-adv-x="261" 
d="M205 0h-149v896h149v-896z" />
    <glyph glyph-name="j" unicode="j" 
d="M56 373h149q0 -90 67 -157q66 -66 158 -66q94 0 159 66q64 64 64 157v523h149v-523q0 -156 -109 -264q-109 -109 -263 -109q-155 0 -264 109q-110 107 -110 264z" />
    <glyph glyph-name="k" unicode="k" horiz-adv-x="964" 
d="M698 1l-450 447l450 449h210l-448 -448l448 -448h-210zM205 0h-149v896h149v-896z" />
    <glyph glyph-name="l" unicode="l" horiz-adv-x="709" 
d="M205 150h448v-150h-597v896h149v-746z" />
    <glyph glyph-name="m" unicode="m" horiz-adv-x="1008" 
d="M205 747l-1 -747h-148v896zM504 448l448 448v-896h-148v535l-300 -299v212z" />
    <glyph glyph-name="n" unicode="n" horiz-adv-x="857" 
d="M56 2v896l149 -133v-763h-149zM801 0l-378 338v231l229 -206v533h149v-896z" />
    <glyph glyph-name="o" unicode="o" horiz-adv-x="1009" 
d="M504 896q182 0 316 -132q133 -133 133 -316q0 -186 -133 -316q-134 -132 -316 -132t-316 132q-132 134 -132 316t132 316q130 132 316 132zM504 746q-124 0 -212 -87q-86 -87 -86 -211q0 -125 86 -212q87 -86 212 -86q124 0 211 86q87 88 87 212q0 122 -87 211
q-89 87 -211 87z" />
    <glyph glyph-name="p" unicode="p" 
d="M715 809q87 -90 87 -212q0 -125 -87 -212q-89 -87 -211 -87h-299v-298h-149v448h448q60 0 104 44q45 45 45 105q0 61 -45 105q-44 44 -104 44h-448v150h448q122 0 211 -87z" />
    <glyph glyph-name="q" unicode="q" horiz-adv-x="1008" 
d="M869 187l-109 109q43 68 43 153q0 121 -87 211q-91 88 -212 88t-212 -88q-87 -90 -87 -211q0 -123 87 -213q89 -86 212 -86q82 0 150 40l-230 229l106 105l230 -229l-104 -105l108 -108q-112 -82 -260 -82q-188 0 -318 130q-132 130 -130 318q2 189 131 317
q130 131 317 131t317 -131q131 -131 131 -317q0 -148 -83 -261z" />
    <glyph glyph-name="r" unicode="r" horiz-adv-x="814" 
d="M587 0l-260 449l133 -1q60 0 104 44q45 42 45 106q0 62 -45 104q-44 44 -104 44h-404v150h404q124 0 211 -87q87 -90 87 -211q0 -95 -52 -169q-52 -75 -131 -108l183 -321h-171zM56 0v622h149v-622h-149z" />
    <glyph glyph-name="s" unicode="s" 
d="M317 373q-107 0 -185 76q-76 79 -76 186q0 105 76 184q77 77 185 77h224v-150h-224q-25 0 -44 -8q-21 -9 -37 -25q-15 -15 -23 -35q-8 -19 -8 -43q0 -47 31 -79q34 -34 81 -34h223q107 0 185 -76q77 -79 77 -185t-77 -185q-78 -76 -185 -76h-267v152l267 -2q25 0 44 8
q23 10 36 23q15 15 24 36t9 44q0 44 -34 78q-33 34 -79 34h-223z" />
    <glyph glyph-name="t" unicode="t" horiz-adv-x="629" 
d="M56 896h517v-896h-150v746h-367v150z" />
    <glyph glyph-name="u" unicode="u" 
d="M802 373q0 -157 -110 -264q-109 -109 -264 -109t-263 109q-109 108 -109 264v523h149v-523q0 -93 64 -157q63 -66 159 -66q92 0 158 66q67 69 67 157h149z" />
    <glyph glyph-name="v" unicode="v" horiz-adv-x="1175" 
d="M223 896l365 -729l-84 -167l-448 896h167zM728 449l224 447h167l-224 -447h-167z" />
    <glyph glyph-name="w" unicode="w" horiz-adv-x="1571" 
d="M589 168l-84 -168l-449 896h167zM1515 896l-448 -896l-282 561l84 168l198 -394l281 561h167z" />
    <glyph glyph-name="x" unicode="x" horiz-adv-x="1002" 
d="M946 896l-698 -896h-192l701 896h189zM478 600l-96 -123l-326 419h192zM525 297l94 123l327 -420l-188 -2z" />
    <glyph glyph-name="y" unicode="y" horiz-adv-x="1002" 
d="M946 896l-698 -896h-192l701 896h189zM478 600l-96 -123l-326 419h192z" />
    <glyph glyph-name="z" unicode="z" horiz-adv-x="1008" 
d="M952 896l-9 -4l-695 -892h-192l584 746h-578v150h890z" />
    <glyph glyph-name="cent" unicode="&#xa2;" horiz-adv-x="857" 
d="M361 -81h168v130q149 21 261 135l11 11l-158 69l-9 -8q-45 -37 -105 -52v487q78 -18 134 -79l12 -15l116 113l-8 8l-1 2l-4 4q-103 103 -249 123v144h-168v-155q-102 -28 -173.5 -94.5t-104.5 -150.5q-27 -71 -27 -144t27 -142q33 -84 104.5 -150.5t173.5 -94.5v-141z
M361 671v-446q-66 32 -101.5 94t-35.5 128q0 67 35.5 129.5t101.5 94.5z" />
    <glyph glyph-name="copyright" unicode="&#xa9;" horiz-adv-x="1009" 
d="M820 764q133 -133 133 -316q0 -186 -133 -316q-134 -132 -316 -132t-316 132q-132 134 -132 316t132 316q130 132 316 132q182 0 316 -132zM715 236q87 88 87 212q0 122 -87 211q-89 87 -211 87q-124 0 -212 -87q-86 -87 -86 -211q0 -125 86 -212q87 -86 212 -86
q124 0 211 86zM510 326q51 0 93 46l65 -64q-32 -35 -74 -53q-43 -15 -84 -15q-40 0 -85 16q-43 21 -66 45q-29 30 -46 66q-17 37 -17 80v1q0 39 17 80q16 38 47 66q26 26 67 44q36 17 83 17q49 0 86 -16q51 -28 71 -52l-64 -64q-42 46 -93 46q-23 0 -46 -9q-19 -9 -35 -26
q-18 -15 -26 -38q-11 -28 -11 -48q0 -26 11 -49q11 -26 26 -38q17 -20 34 -26q27 -9 47 -9z" />
    <glyph glyph-name="registered" unicode="&#xae;" horiz-adv-x="1009" 
d="M820 764q133 -133 133 -316q0 -186 -133 -316q-134 -132 -316 -132t-316 132q-132 134 -132 316t132 316q130 132 316 132q182 0 316 -132zM715 236q87 88 87 212q0 122 -87 211q-89 87 -211 87q-124 0 -212 -87q-86 -87 -86 -211q0 -125 86 -212q87 -86 212 -86
q124 0 211 86zM572 280l-98 170h50q23 0 40 17t17 40q0 22 -17 39t-40 17h-153v57h153q47 0 80 -33t33 -80q0 -35 -20 -64t-49 -41l69 -122h-65zM371 280v236h56v-236h-56z" />
    <glyph glyph-name="multiply" unicode="&#xd7;" horiz-adv-x="544" 
d="M272 346l121 -121l95 95l-121 120l121 120l-95 94l-121 -120l-120 120l-96 -94l121 -120l-121 -120l96 -94z" />
    <glyph glyph-name="divide" unicode="&#xf7;" horiz-adv-x="529" 
d="M180 612q0 -30 22.5 -56t61.5 -26t61.5 26t22.5 56q0 29 -22 54.5t-62 25.5q-39 0 -61.5 -26t-22.5 -54zM56 505v-131h417v131h-417zM180 271q0 -29 22.5 -55t61.5 -26t61.5 26t22.5 55t-22 54.5t-62 25.5q-39 0 -61.5 -26t-22.5 -54z" />
    <glyph glyph-name="dagger" unicode="&#x2020;" horiz-adv-x="823" 
d="M767 569h-281v-513h-149v513h-281v150h281v233h149v-233h281v-150z" />
    <glyph glyph-name="Euro" unicode="&#x20ac;" horiz-adv-x="961" 
d="M212 309q42 -109 145 -186.5t243 -77.5q133 0 247 80l3 3v198l-19 -26q-3 -3 -6 -6.5t-6.5 -8t-5.5 -6.5q-3 -3 -9 -10t-10 -10q-82 -80 -194 -80q-76 0 -137 36.5t-97 93.5h291l78 132h-410v14v13h425l78 132h-462q36 57 97 93.5t137 36.5q136 0 221 -108l10 -15l74 128
l-5 2q-125 127 -300 127q-140 0 -243 -78t-145 -186h-79l-77 -132h129v-3v-24h-52l-77 -132h156z" />
    <glyph glyph-name="trademark" unicode="&#x2122;" horiz-adv-x="831" 
d="M56 831v64h316v-64h-127v-317h-62v317h-127zM586 704l189 191v-381h-63v227l-126 -126l-127 126v-227h-64v381l1 -1v1z" />
    <glyph glyph-name="_FSHallmark" horiz-adv-x="1092" 
d="M58 749v116h978v-116h-978zM825 202q-41 0 -80 10q-37 10 -69 33q-31 23 -49 55t-18 77l113 -2q0 -5 6 -18q1 -16 17 -30q15 -15 29 -20q20 -11 55 -11q40 0 63 13q23 12 23 31q0 36 -93 54q-96 27 -143 53q-59 29 -59 97q0 55 39 88q31 27 86 47q43 9 80 9q53 0 110 -22
q56 -22 79 -77q13 -37 13 -57h-118q0 12 -9 26q-6 9 -21 21q-3 1 -12.5 5.5t-15.5 5.5q-25 5 -28 5q-27 0 -57 -16q-23 -14 -23 -34q0 -36 22 -48q34 -16 51 -19l43 -11l36 -8q27 -8 35 -8q19 -3 28 -8q14 -6 24 -12q23 -13 37 -32q12 -20 15 -52q3 -28 -13 -58
q-29 -52 -86 -70q-52 -17 -110 -17zM58 202v485h412v-110h-283v-110h235v-108h-235v-157h-129zM517 204q-21 0 -39 18q-20 17 -20 38q0 26 18 42q16 15 41 15t47 -17q20 -15 20 -40q0 -23 -20 -41q-21 -15 -47 -15zM56 25v116h978v-116h-978z" />
    <glyph glyph-name="_Fontastica" horiz-adv-x="848" 
d="M58 153q-1 2 -1 5v710h532v-108h-410v-292h410v-110h-410v-205h-121zM256 155v109h411v292h-411v110h411v202h121v-713h-532zM677 39q-5 0 -21 6q-9 14 -10 24q0 14 9 23q12 12 22 12q14 0 28 -12l-6 -9q-1 2 -3.5 3.5t-3.5 2.5t-10 1h-5q-8 -4 -10 -7q-6 -4 -6 -10
q0 -11 4 -15q7 -7 12 -7q12 0 22 7l6 -7q-10 -12 -28 -12zM58 41v60h45v-11h-29v-16h28v-10h-28v-23h-16zM158 36q-9 0 -14 5q-18 6 -18 27q0 16 8 24q8 9 25 9q18 0 30 -15q10 -13 2 -28q-4 -16 -26 -19zM269 39q-3 0 -9 6l-8 9q0 2 -3 5l-3 3l-11 16v-37h-14v60h11
q5 -1 6 -8q3 -2 7.5 -7.5t6.5 -7.5l12 -18v41h14v-60h-5q-3 -2 -4 -2zM322 41v49h-20v11h52v-11h-19v-49h-13zM483 39q-20 0 -27 10v2l1 2q0 1 2 5l20 -7h8l5 3q0 9 -14 14q-3 0 -3 1h-6q-10 4 -10 14q-3 11 9 16q6 2 13 2q16 0 25 -4l-4 -11l-5 2h-3q-1 1 -5 1q-1 0 -2 1
h-8q-4 0 -4 -2q-2 -3 4 -10q3 -1 8.5 -3t6.5 -2q12 0 12 -15q2 -13 -11 -17q-1 -2 -12 -2zM546 41v49h-20v11h54v-11h-19v-49h-15zM605 41v60h15v-60h-15zM725 41q12 20 24 60h17l13 -28l7 -19q0 -1 2.5 -6t4.5 -7h-14l-6 12h-29l-6 -12h-13zM369 41l25 58h15q0 -1 6 -13
q6 -10 7 -14q4 -9 6 -18q0 -2 2 -8l3 -5h-14q-1 1 -1 4q0 2 -3 8h-30v-8v-1l-4 -3h-12zM159 51h6q11 4 11 18v3q0 9 -5 14q-4 4 -13 4q-2 -1 -6 -1q-1 0 -4 -4t-6 -7q-7 -6 -2 -14q4 -13 19 -13zM390 64h21l-2 5l-5 5q-1 3 -1 7q-1 1 -1 3.5t-1 3.5zM748 64h20l-2 5
q0 3 -2 5q-3 3 -3 7l-1 3q-1 3 -2 4z" />
    </font>
</defs>
</svg>
