<?xml version="1.0" standalone="no"?>
<!DOCTYPE svg PUBLIC "-//W3C//DTD SVG 1.1//EN" "http://www.w3.org/Graphics/SVG/1.1/DTD/svg11.dtd" >
<svg xmlns="http://www.w3.org/2000/svg" xmlns:xlink="http://www.w3.org/1999/xlink" version="1.1">
<metadata>
Created by FontForge 20170731 at Sun Dec  8 04:07:14 2019
 By Aleksey,,,
Copyright (c) 2019 by Fontastica. All rights reserved.
</metadata>
<defs>
<font id="Noir-Italic" horiz-adv-x="858" >
  <font-face 
    font-family="Noir Italic"
    font-weight="400"
    font-style="italic"
    font-stretch="normal"
    units-per-em="1000"
    panose-1="0 0 5 0 0 0 0 0 0 0"
    ascent="800"
    descent="-200"
    x-height="896"
    cap-height="896"
    bbox="46 -94 1657 991"
    underline-thickness="50"
    underline-position="-200"
    unicode-range="U+0020-2122"
  />
<missing-glyph horiz-adv-x="778" 
d="M56 885h666v-874h-666v874zM125 818v-691l523 691h-523zM149 80h503v672z" />
    <glyph glyph-name=".notdef" horiz-adv-x="778" 
d="M56 885h666v-874h-666v874zM125 818v-691l523 691h-523zM149 80h503v672z" />
    <glyph glyph-name=".null" horiz-adv-x="0" 
 />
    <glyph glyph-name="nonmarkingreturn" horiz-adv-x="333" 
 />
    <glyph glyph-name="space" unicode=" " horiz-adv-x="672" 
 />
    <glyph glyph-name="exclam" unicode="!" horiz-adv-x="310" 
d="M271 271h-150l94 597h150zM193 239q-47 0 -78 -29.5t-36 -62.5t17 -62t68 -29t77 29t36 62t-16 62.5t-68 29.5z" />
    <glyph glyph-name="quotedbl" unicode="&#x22;" horiz-adv-x="424" 
d="M197 892l-45 -287h137l45 287h-137zM373 892l-45 -287h136l45 287h-136z" />
    <glyph glyph-name="numbersign" unicode="#" horiz-adv-x="864" 
d="M118 56h171l75 180h102l-75 -180h172l75 180h145l25 153h-106l48 118h138l25 153h-99l75 180h-174l-74 -180h-101l75 180h-173l-75 -180h-144l-25 -153h106l-48 -118h-138l-25 -153h99zM428 389l48 118h101l-47 -118h-102z" />
    <glyph glyph-name="dollar" unicode="$" horiz-adv-x="700" 
d="M252 -94h168l24 152q70 9 127 50t87 94q24 43 32 88q15 98 -42 164q-65 70 -165 70h-99q-34 0 -51.5 25.5t-12.5 56.5t30.5 56.5t59.5 25.5h238l102 152h-182l24 150h-168l-24 -152q-70 -10 -127.5 -51t-88.5 -94q-23 -40 -31 -87t4 -90q16 -59 69.5 -101.5t133.5 -42.5
h99q33 0 50.5 -25.5t12.5 -56.5t-30.5 -56t-58.5 -25h-251l-117 -153h211z" />
    <glyph glyph-name="percent" unicode="%" horiz-adv-x="1172" 
d="M185 696q-25 -45 -33 -90q-8 -50 6 -95q18 -59 70.5 -99t131.5 -40t144.5 40t101.5 99q30 47 37 95q7 40 -5 90q-17 60 -70 102t-134 42t-147.5 -42.5t-101.5 -101.5zM871 840l-623 -784h194l622 784h-193zM410 688q34 0 52.5 -25.5t13.5 -56.5t-31.5 -56.5t-60.5 -25.5
t-52 25.5t-13 56.5t31 56.5t60 25.5zM707 384q-28 -44 -36 -94q-8 -49 6 -95q18 -58 70.5 -98.5t130.5 -40.5q80 0 147.5 42t102.5 102q27 48 34 90q8 46 -6 90q-15 60 -69 102t-135 42q-79 0 -144 -40.5t-101 -99.5zM928 372q34 0 52.5 -25.5t13.5 -56.5t-31.5 -56
t-60.5 -25q-33 0 -51 25t-13 56t31 56.5t59 25.5z" />
    <glyph glyph-name="ampersand" unicode="&#x26;" horiz-adv-x="772" 
d="M103 161q19 -67 72.5 -114t133.5 -47h62q80 0 148 47.5t107 114.5q32 57 41 115l16 100h93l27 175h-407q-30 0 -45.5 26.5t-10.5 58.5q6 33 29.5 59t53.5 26h62q33 0 46.5 -29t7.5 -67l-4 -25h168l3 16q11 73 -1 119q-15 68 -64 114t-128 46h-62q-74 0 -137 -42.5
t-101 -104.5q-30 -49 -40 -112q-15 -95 29 -169q-85 -79 -102 -191q-10 -61 3 -116zM399 176h-62q-38 0 -57 30.5t-13 70.5q6 38 35 69t67 31h146l-16 -100q-6 -40 -34.5 -70.5t-65.5 -30.5z" />
    <glyph glyph-name="quotesingle" unicode="'" horiz-adv-x="249" 
d="M197 892l-45 -287h137l45 287h-137z" />
    <glyph glyph-name="parenleft" unicode="(" horiz-adv-x="418" 
d="M167 703l-80 -510q-9 -51 5 -99q20 -68 81 -113t152 -45h27l24 152h-27q-48 0 -75 32t-20 73l80 510q4 26 20 51q40 54 99 54h37l24 153h-27q-91 0 -166.5 -45.5t-116.5 -113.5q-27 -45 -37 -99z" />
    <glyph glyph-name="parenright" unicode=")" horiz-adv-x="418" 
d="M70 88l-24 -152h27q90 0 166.5 45.5t115.5 112.5q28 44 38 99l80 510q9 53 -4 99q-17 65 -76.5 112t-146.5 47h-38l-24 -153h27q48 0 75 -32t20 -73l-80 -510q-7 -41 -44 -73t-85 -32h-27z" />
    <glyph glyph-name="asterisk" unicode="*" horiz-adv-x="416" 
d="M260 660l-9 -55h106l9 55l43 -27l65 87l-46 28l55 29l-37 87l-52 -26l8 54h-106l-8 -54l-43 27l-66 -88l45 -29l-54 -28l38 -87z" />
    <glyph glyph-name="plus" unicode="+" horiz-adv-x="529" 
d="M255 374l-22 -138h137l22 138h140l21 131h-140l22 139h-137l-22 -139h-140l-21 -131h140z" />
    <glyph glyph-name="comma" unicode="," horiz-adv-x="310" 
d="M128 63l-10 -66h136l23 150q5 33 -16 62.5t-68 29.5t-78 -29.5t-36 -62.5q-4 -26 8 -49.5t41 -34.5z" />
    <glyph glyph-name="hyphen" unicode="-" horiz-adv-x="529" 
d="M127 449l-21 -131h417l21 131h-417z" />
    <glyph glyph-name="period" unicode="." horiz-adv-x="310" 
d="M193 239q-47 0 -78 -29.5t-36 -62.5t17 -62t68 -29t77 29t36 62t-16 62.5t-68 29.5z" />
    <glyph glyph-name="slash" unicode="/" horiz-adv-x="708" 
d="M626 961l-580 -1025h179l579 1025h-178z" />
    <glyph glyph-name="zero" unicode="0" horiz-adv-x="1009" 
d="M941 764q111 -132 83 -316q-30 -187 -183 -316q-155 -132 -337 -132q-183 0 -295 132q-111 134 -82 316q28 182 182 316q152 132 337 132q183 0 295 -132zM752 236q101 88 121 212q19 123 -54 211q-51 60 -125 78l-85 -577q79 22 143 76zM329 236q52 -60 128 -78l86 578
q-75 -17 -147 -77q-99 -88 -119 -211q-20 -124 52 -212z" />
    <glyph glyph-name="one" unicode="1" horiz-adv-x="430" 
d="M375 896h141l-142 -896h-150l118 746h-168z" />
    <glyph glyph-name="two" unicode="2" horiz-adv-x="689" 
d="M56 0l461 492q51 44 62 106q9 59 -29 104q-36 44 -97 44h-254l24 150h254q123 0 196 -87q75 -88 55 -211q-5 -32 -21 -75l-317 -373h250l-24 -150h-560z" />
    <glyph glyph-name="three" unicode="3" horiz-adv-x="699" 
d="M744 635q-18 -109 -109 -187q67 -75 49 -187q-7 -49 -36 -101q-27 -46 -69 -83q-40 -34 -93 -57q-52 -20 -104 -20h-326l24 150h326q24 0 43 8q26 10 41 25q12 9 30 35q12 21 15 43q4 21 -2 43q-7 23 -18 35q-16 18 -30 25q-21 9 -44 9h-178l24 149h178q25 0 43 9
q23 7 41 25q16 12 30 35q12 20 16 44q3 22 -3 43q-7 23 -18 35q-10 15 -33 25q-16 8 -41 8h-326l24 150h326q50 0 98 -20q48 -25 75 -57q30 -39 43 -83q12 -46 4 -101z" />
    <glyph glyph-name="four" unicode="4" horiz-adv-x="790" 
d="M734 2h-149l59 373h-529l83 523h149l-59 -373h380l59 373h149z" />
    <glyph glyph-name="five" unicode="5" 
d="M729 88q-102 -87 -225 -87h-448l24 150h448q59 0 111 44q51 44 62 105q9 61 -29 105q-35 44 -97 44h-448l71 448h149l-47 -298h299q122 0 197 -87q74 -88 54 -212q-19 -122 -121 -212z" />
    <glyph glyph-name="six" unicode="6" 
d="M793 637q92 -110 68 -264q-24 -157 -152 -264q-125 -109 -281 -109q-155 0 -246 109q-91 108 -67 264l83 523h149l-35 -223q108 73 234 73q154 0 247 -109zM620 216q77 68 92 157q15 88 -42 157q-57 66 -148 66q-93 0 -169 -66q-74 -64 -89 -157t39 -157q53 -66 149 -66
q92 0 168 66z" />
    <glyph glyph-name="seven" unicode="7" horiz-adv-x="709" 
d="M198 896h597l-142 -896h-150l59 373h-298l24 149h298l35 224h-447z" />
    <glyph glyph-name="eight" unicode="8" horiz-adv-x="718" 
d="M655 448q66 -75 48 -187q-7 -49 -36 -101q-27 -46 -69 -83q-40 -34 -93 -57q-45 -17 -87 -20h-118q-42 3 -81 20q-46 24 -75 57q-30 39 -43 83q-12 46 -4 101q18 112 108 187q-66 78 -48 187q7 49 36 101q27 46 69 83q45 37 93 57q43 17 87 20h118q40 -3 81 -20
q48 -25 75 -57q30 -39 43 -83q12 -46 4 -101q-18 -109 -108 -187zM598 591q12 20 16 44q3 22 -3 43q-7 23 -18 35q-10 15 -32 25q-17 8 -42 8h-84q-24 0 -44 -8q-25 -10 -41 -25q-15 -13 -29 -35q-12 -21 -15 -43q-4 -22 2 -44q7 -22 17 -35q13 -17 33 -25q17 -9 42 -9h84
q25 0 44 9q22 7 40 25q16 12 30 35zM539 218q12 21 15 43q4 21 -2 43q-7 23 -18 35q-16 18 -30 25q-21 9 -44 9h-84q-22 0 -46 -9q-19 -8 -39 -25q-15 -13 -29 -35q-11 -20 -16 -43q-3 -22 3 -43q4 -19 17 -35q11 -15 33 -25q17 -8 42 -8h84q24 0 44 8q25 10 40 25
q12 9 30 35z" />
    <glyph glyph-name="nine" unicode="9" 
d="M207 260q-92 110 -68 264q24 155 152 264q125 109 281 109q153 0 246 -109q91 -108 67 -264l-83 -523h-149l35 223q-108 -73 -234 -73q-154 0 -247 109zM380 681q-77 -67 -92 -157q-15 -89 42 -157q57 -66 148 -66t169 66q74 63 89 157q15 93 -39 157q-56 66 -149 66
q-92 0 -168 -66z" />
    <glyph glyph-name="colon" unicode=":" horiz-adv-x="310" 
d="M240 539q-47 0 -77.5 -29t-35.5 -63q-5 -33 16.5 -62t67.5 -29t77.5 29t36.5 62q5 34 -16.5 63t-68.5 29zM193 239q-47 0 -78 -29.5t-36 -62.5t17 -62t68 -29t77 29t36 62t-16 62.5t-68 29.5z" />
    <glyph glyph-name="semicolon" unicode=";" horiz-adv-x="310" 
d="M240 539q-47 0 -77.5 -29t-35.5 -63q-5 -33 16.5 -62t67.5 -29t77.5 29t36.5 62q5 34 -16.5 63t-68.5 29zM128 63l-10 -66h136l23 150q5 33 -16 62.5t-68 29.5t-78 -29.5t-36 -62.5q-4 -26 8 -49.5t41 -34.5z" />
    <glyph glyph-name="less" unicode="&#x3c;" horiz-adv-x="556" 
d="M117 382l406 -236l28 177l-209 121l248 122l27 175l-481 -236z" />
    <glyph glyph-name="equal" unicode="=" horiz-adv-x="529" 
d="M153 613l-21 -131h417l21 131h-417zM119 398l-21 -131h417l21 131h-417z" />
    <glyph glyph-name="greater" unicode="&#x3e;" horiz-adv-x="556" 
d="M107 323l-28 -177l482 236l19 123l-407 236l-27 -175l208 -122z" />
    <glyph glyph-name="question" unicode="?" horiz-adv-x="679" 
d="M341 535l-41 -257h167l17 110q69 11 125 51.5t82 92.5q23 42 30 85q7 51 -8 101q-18 56 -71 94.5t-130 38.5h-76q-82 0 -148 -41.5t-100 -102.5q-27 -50 -36 -100l-3 -21h167l3 21q6 36 31.5 64t61.5 28h76q35 0 52.5 -25t12.5 -57q-5 -31 -30.5 -56.5t-60.5 -25.5h-121z
M379 250q-46 0 -77 -29.5t-36 -62.5t16.5 -62t67.5 -29t77.5 29t36.5 62t-16.5 62.5t-68.5 29.5z" />
    <glyph glyph-name="at" unicode="@" horiz-adv-x="1049" 
d="M524 -1h284l24 152h-284q-94 0 -159 50t-86 125q-18 60 -9 125q10 62 48 125q46 75 126.5 124.5t174.5 49.5q93 0 158 -50t87 -124q18 -59 7 -125l-18 -118h-16l18 118q9 55 -5 103q-20 70 -81.5 118.5t-154.5 48.5q-94 0 -172 -48t-117 -119q-28 -52 -37 -103
q-9 -62 4 -105q19 -69 81 -118t155 -49h469l43 272q15 89 -9 174q-33 116 -134.5 197t-253.5 81q-153 0 -280.5 -80.5t-195.5 -197.5q-48 -82 -64 -174q-14 -90 9 -173q32 -116 134 -197.5t254 -81.5zM694 333h-117q-51 0 -77.5 36.5t-20.5 81.5q7 45 45.5 82t89.5 37
q37 0 63.5 -20t32.5 -50t2 -49z" />
    <glyph glyph-name="A" unicode="A" horiz-adv-x="1009" 
d="M953 0h-167l-192 560l-371 -560h-167l590 896l1 -1v1z" />
    <glyph glyph-name="B" unicode="B" 
d="M903 635q-18 -109 -108 -187q66 -75 48 -187q-7 -49 -36 -101q-27 -46 -69 -83q-40 -34 -93 -57q-52 -20 -104 -20h-485l24 150h485q24 0 44 8q25 10 40 25q12 9 30 35q12 21 15 43q4 21 -2 43q-7 23 -18 35q-16 18 -30 25q-21 9 -44 9h-485l24 149h485q25 0 44 9
q22 7 40 25q16 12 30 35q12 20 16 44q3 22 -3 43q-7 23 -18 35q-10 15 -32 25q-17 8 -42 8h-485l24 150h485q50 0 98 -20q48 -25 75 -57q30 -39 43 -83q12 -46 4 -101z" />
    <glyph glyph-name="C" unicode="C" horiz-adv-x="878" 
d="M529 151q121 0 225 86l89 -104q-70 -61 -158 -97q-85 -35 -180 -35q-93 0 -167 36q-74 33 -129 96q-53 65 -74 141q-23 83 -8 174v1q15 92 64 174q46 78 118 141q72 62 159 96q86 36 179 36q95 0 168 -35q74 -34 128 -97l-122 -104q-76 86 -198 86q-61 0 -119 -22
q-60 -24 -107 -65q-48 -43 -78 -95q-33 -57 -42 -115q-9 -61 6 -116q13 -53 48 -94q37 -46 86 -65q49 -23 112 -23z" />
    <glyph glyph-name="D" unicode="D" 
d="M865 620q23 -77 8 -172t-62 -172q-49 -81 -119 -144q-69 -60 -158 -96q-87 -36 -180 -36h-298l24 150h298q61 0 119 22q62 25 107 65q48 45 78 96q33 56 42 115q9 60 -6 115q-13 53 -50 96q-35 41 -84 65q-53 22 -112 22h-298l24 150h298q92 0 168 -36q72 -33 127 -96
q52 -65 74 -144z" />
    <glyph glyph-name="E" unicode="E" horiz-adv-x="709" 
d="M795 896l-24 -150h-597l24 150h597zM736 522l-24 -149h-597l24 149h597zM80 150h597l-24 -150h-597l2 12z" />
    <glyph glyph-name="F" unicode="F" horiz-adv-x="709" 
d="M795 896l-24 -150h-597l24 150h597zM724 449l-24 -151h-448l-47 -298h-149l71 449h597z" />
    <glyph glyph-name="G" unicode="G" horiz-adv-x="886" 
d="M529 151q121 0 225 86l89 -104q-70 -61 -158 -97q-85 -35 -180 -35q-93 0 -167 36q-74 33 -129 96q-53 65 -74 141q-23 83 -8 174v1q15 92 64 174q46 78 118 141q72 62 159 96q86 36 179 36q95 0 168 -35q74 -34 128 -97l-122 -104q-76 86 -198 86q-61 0 -119 -22
q-60 -24 -107 -65q-48 -43 -78 -95q-33 -57 -42 -115q-9 -61 6 -116q13 -53 48 -94q37 -46 86 -65q49 -23 112 -23zM587 522h326l-24 -149h-326z" />
    <glyph glyph-name="H" unicode="H" 
d="M198 896h149l-59 -373h597l-83 -523h-149l59 373h-448l-59 -373h-149z" />
    <glyph glyph-name="I" unicode="I" horiz-adv-x="261" 
d="M205 0h-149l142 896h149z" />
    <glyph glyph-name="J" unicode="J" 
d="M115 373h149q-15 -90 42 -157q55 -66 148 -66q94 0 169 66q74 64 89 157l83 523h149l-83 -523q-25 -157 -151 -264q-125 -109 -280 -109q-154 0 -247 109q-92 107 -68 264z" />
    <glyph glyph-name="K" unicode="K" horiz-adv-x="964" 
d="M698 1l-379 447l521 449h210l-519 -448l377 -448h-210zM205 0h-149l142 896h149z" />
    <glyph glyph-name="L" unicode="L" horiz-adv-x="709" 
d="M229 150h448l-24 -150h-597l142 896h149z" />
    <glyph glyph-name="M" unicode="M" horiz-adv-x="1008" 
d="M323 747l-119 -747h-148l142 896zM575 448l519 448l-142 -896h-148l85 535l-348 -299z" />
    <glyph glyph-name="N" unicode="N" horiz-adv-x="857" 
d="M56 2l142 896l128 -133l-121 -763h-149zM801 0l-324 338l36 231l196 -206l85 533h149z" />
    <glyph glyph-name="O" unicode="O" horiz-adv-x="1009" 
d="M646 896q183 0 295 -132q111 -132 83 -316q-30 -187 -183 -316q-155 -132 -337 -132q-183 0 -295 132q-111 134 -82 316q28 182 182 316q152 132 337 132zM622 746q-123 0 -226 -87q-99 -88 -119 -211q-20 -124 52 -212q74 -86 199 -86q123 0 224 86q101 88 121 212
q19 123 -54 211q-73 87 -197 87z" />
    <glyph glyph-name="P" unicode="P" 
d="M843 809q73 -90 54 -212q-20 -124 -121 -212q-102 -87 -225 -87h-299l-47 -298h-149l71 448h448q59 0 111 44t62 105q9 62 -29 105q-36 44 -97 44h-448l24 150h448q122 0 197 -87z" />
    <glyph glyph-name="Q" unicode="Q" horiz-adv-x="1008" 
d="M504 0q-188 0 -297 130q-112 131 -80 318q31 189 181 317q150 131 338 131q187 0 296 -131q111 -132 81 -317q-24 -149 -124 -261l-92 109q53 67 67 153q19 120 -53 211q-77 88 -199 88q-120 0 -225 -88q-102 -90 -121 -211q-19 -123 53 -213q75 -86 199 -86q82 0 156 40
l-194 229l123 105l194 -229l-121 -105l91 -108q-125 -82 -273 -82z" />
    <glyph glyph-name="R" unicode="R" horiz-adv-x="814" 
d="M587 0l-189 449l133 -1q59 0 111 44q51 41 62 106q9 63 -29 104q-36 44 -97 44h-404l24 150h404q124 0 197 -87q73 -90 54 -211q-15 -95 -79 -169t-148 -108l132 -321h-171zM56 0l99 622h149l-99 -622h-149z" />
    <glyph glyph-name="S" unicode="S" 
d="M376 373q-108 0 -173 76q-64 79 -46 186q16 106 105 184q89 77 197 77h223l-23 -150h-224q-25 0 -45 -8q-22 -9 -41 -25q-18 -15 -29 -35q-11 -19 -14 -43q-7 -46 18 -79q28 -34 76 -34h223q108 0 173 -76q65 -80 47 -185q-16 -106 -106 -185q-90 -76 -197 -76h-267
l24 152l267 -2q25 0 45 8q24 10 40 23q18 16 29 36q13 20 16 44q7 43 -21 78q-28 34 -74 34h-223z" />
    <glyph glyph-name="T" unicode="T" horiz-adv-x="629" 
d="M198 896h517l-142 -896h-150l118 746h-367z" />
    <glyph glyph-name="U" unicode="U" 
d="M861 373q-24 -157 -152 -264q-125 -109 -281 -109q-155 0 -246 109q-91 108 -67 264l83 523h149l-83 -523q-15 -93 39 -157q53 -66 149 -66q92 0 168 66q77 68 92 157h149z" />
    <glyph glyph-name="V" unicode="V" horiz-adv-x="1175" 
d="M365 896l249 -729l-110 -167l-306 896h167zM799 449l295 447h167l-295 -447h-167z" />
    <glyph glyph-name="W" unicode="W" horiz-adv-x="1571" 
d="M616 168l-111 -168l-307 896h167zM1657 896l-590 -896l-193 561l110 168l136 -394l370 561h167z" />
    <glyph glyph-name="X" unicode="X" horiz-adv-x="1002" 
d="M1088 896l-840 -896h-192l843 896h189zM573 601l-115 -124l-260 419h192zM572 297l114 123l260 -420l-188 -2z" />
    <glyph glyph-name="Y" unicode="Y" horiz-adv-x="1002" 
d="M1088 896l-840 -896h-192l843 896h189zM573 600l-115 -123l-260 419h192z" />
    <glyph glyph-name="Z" unicode="Z" horiz-adv-x="1008" 
d="M1094 896l-10 -4l-836 -892h-192l702 746h-578l24 150h890z" />
    <glyph glyph-name="bracketleft" unicode="[" horiz-adv-x="418" 
d="M208 961l-162 -1025h306l24 152h-139l114 720h139l24 153h-306z" />
    <glyph glyph-name="backslash" unicode="\" horiz-adv-x="708" 
d="M626 961l-580 -1025h179l579 1025h-178z" />
    <glyph glyph-name="bracketright" unicode="]" horiz-adv-x="418" 
d="M70 88l-24 -152h306l162 1025h-306l-24 -153h139l-114 -720h-139z" />
    <glyph glyph-name="underscore" unicode="_" horiz-adv-x="679" 
d="M70 88l-24 -152h567l24 152h-567z" />
    <glyph glyph-name="a" unicode="a" horiz-adv-x="1009" 
d="M953 0h-167l-192 560l-371 -560h-167l590 896l1 -1v1z" />
    <glyph glyph-name="b" unicode="b" 
d="M903 635q-18 -109 -108 -187q66 -75 48 -187q-7 -49 -36 -101q-27 -46 -69 -83q-40 -34 -93 -57q-52 -20 -104 -20h-485l24 150h485q24 0 44 8q25 10 40 25q12 9 30 35q12 21 15 43q4 21 -2 43q-7 23 -18 35q-16 18 -30 25q-21 9 -44 9h-485l24 149h485q25 0 44 9
q22 7 40 25q16 12 30 35q12 20 16 44q3 22 -3 43q-7 23 -18 35q-10 15 -32 25q-17 8 -42 8h-485l24 150h485q50 0 98 -20q48 -25 75 -57q30 -39 43 -83q12 -46 4 -101z" />
    <glyph glyph-name="c" unicode="c" horiz-adv-x="878" 
d="M529 151q121 0 225 86l89 -104q-70 -61 -158 -97q-85 -35 -180 -35q-93 0 -167 36q-74 33 -129 96q-53 65 -74 141q-23 83 -8 174v1q15 92 64 174q46 78 118 141q72 62 159 96q86 36 179 36q95 0 168 -35q74 -34 128 -97l-122 -104q-76 86 -198 86q-61 0 -119 -22
q-60 -24 -107 -65q-48 -43 -78 -95q-33 -57 -42 -115q-9 -61 6 -116q13 -53 48 -94q37 -46 86 -65q49 -23 112 -23z" />
    <glyph glyph-name="d" unicode="d" 
d="M865 620q23 -77 8 -172t-62 -172q-49 -81 -119 -144q-69 -60 -158 -96q-87 -36 -180 -36h-298l24 150h298q61 0 119 22q62 25 107 65q48 45 78 96q33 56 42 115q9 60 -6 115q-13 53 -50 96q-35 41 -84 65q-53 22 -112 22h-298l24 150h298q92 0 168 -36q72 -33 127 -96
q52 -65 74 -144z" />
    <glyph glyph-name="e" unicode="e" horiz-adv-x="709" 
d="M795 896l-24 -150h-597l24 150h597zM736 522l-24 -149h-597l24 149h597zM80 150h597l-24 -150h-597l2 12z" />
    <glyph glyph-name="f" unicode="f" horiz-adv-x="709" 
d="M795 896l-24 -150h-597l24 150h597zM724 449l-24 -151h-448l-47 -298h-149l71 449h597z" />
    <glyph glyph-name="g" unicode="g" horiz-adv-x="886" 
d="M529 151q121 0 225 86l89 -104q-70 -61 -158 -97q-85 -35 -180 -35q-93 0 -167 36q-74 33 -129 96q-53 65 -74 141q-23 83 -8 174v1q15 92 64 174q46 78 118 141q72 62 159 96q86 36 179 36q95 0 168 -35q74 -34 128 -97l-122 -104q-76 86 -198 86q-61 0 -119 -22
q-60 -24 -107 -65q-48 -43 -78 -95q-33 -57 -42 -115q-9 -61 6 -116q13 -53 48 -94q37 -46 86 -65q49 -23 112 -23zM587 522h326l-24 -149h-326z" />
    <glyph glyph-name="h" unicode="h" 
d="M198 896h149l-59 -373h597l-83 -523h-149l59 373h-448l-59 -373h-149z" />
    <glyph glyph-name="i" unicode="i" horiz-adv-x="261" 
d="M205 0h-149l142 896h149z" />
    <glyph glyph-name="j" unicode="j" 
d="M115 373h149q-15 -90 42 -157q55 -66 148 -66q94 0 169 66q74 64 89 157l83 523h149l-83 -523q-25 -157 -151 -264q-125 -109 -280 -109q-154 0 -247 109q-92 107 -68 264z" />
    <glyph glyph-name="k" unicode="k" horiz-adv-x="964" 
d="M698 1l-379 447l521 449h210l-519 -448l377 -448h-210zM205 0h-149l142 896h149z" />
    <glyph glyph-name="l" unicode="l" horiz-adv-x="709" 
d="M229 150h448l-24 -150h-597l142 896h149z" />
    <glyph glyph-name="m" unicode="m" horiz-adv-x="1008" 
d="M323 747l-119 -747h-148l142 896zM575 448l519 448l-142 -896h-148l85 535l-348 -299z" />
    <glyph glyph-name="n" unicode="n" horiz-adv-x="857" 
d="M56 2l142 896l128 -133l-121 -763h-149zM801 0l-324 338l36 231l196 -206l85 533h149z" />
    <glyph glyph-name="o" unicode="o" horiz-adv-x="1009" 
d="M646 896q183 0 295 -132q111 -132 83 -316q-30 -187 -183 -316q-155 -132 -337 -132q-183 0 -295 132q-111 134 -82 316q28 182 182 316q152 132 337 132zM622 746q-123 0 -226 -87q-99 -88 -119 -211q-20 -124 52 -212q74 -86 199 -86q123 0 224 86q101 88 121 212
q19 123 -54 211q-73 87 -197 87z" />
    <glyph glyph-name="p" unicode="p" 
d="M843 809q73 -90 54 -212q-20 -124 -121 -212q-102 -87 -225 -87h-299l-47 -298h-149l71 448h448q59 0 111 44t62 105q9 62 -29 105q-36 44 -97 44h-448l24 150h448q122 0 197 -87z" />
    <glyph glyph-name="q" unicode="q" horiz-adv-x="1008" 
d="M899 187l-92 109q53 67 67 153q19 120 -53 211q-77 88 -199 88q-120 0 -225 -88q-102 -90 -121 -211q-19 -123 53 -213q75 -86 199 -86q82 0 156 40l-194 229l123 105l194 -229l-121 -105l91 -108q-125 -82 -273 -82q-188 0 -297 130q-112 131 -80 318q31 189 181 317
q150 131 338 131q187 0 296 -131q111 -132 81 -317q-24 -149 -124 -261z" />
    <glyph glyph-name="r" unicode="r" horiz-adv-x="814" 
d="M587 0l-189 449l133 -1q59 0 111 44q51 41 62 106q9 63 -29 104q-36 44 -97 44h-404l24 150h404q124 0 197 -87q73 -90 54 -211q-15 -95 -79 -169t-148 -108l132 -321h-171zM56 0l99 622h149l-99 -622h-149z" />
    <glyph glyph-name="s" unicode="s" 
d="M376 373q-108 0 -173 76q-64 79 -46 186q16 106 105 184q89 77 197 77h224l-24 -150h-224q-25 0 -45 -8q-22 -9 -41 -25q-18 -15 -29 -35q-11 -19 -14 -43q-7 -46 18 -79q28 -34 76 -34h223q108 0 173 -76q65 -80 47 -185q-16 -106 -106 -185q-90 -76 -197 -76h-267
l24 152l267 -2q25 0 45 8q24 10 40 23q18 16 29 36q13 20 16 44q7 43 -21 78q-28 34 -74 34h-223z" />
    <glyph glyph-name="t" unicode="t" horiz-adv-x="629" 
d="M198 896h517l-142 -896h-150l118 746h-367z" />
    <glyph glyph-name="u" unicode="u" 
d="M861 373q-24 -157 -152 -264q-125 -109 -281 -109q-155 0 -246 109q-91 108 -67 264l83 523h149l-83 -523q-15 -93 39 -157q53 -66 149 -66q92 0 168 66q77 68 92 157h149z" />
    <glyph glyph-name="v" unicode="v" horiz-adv-x="1175" 
d="M365 896l249 -729l-110 -167l-306 896h167zM799 449l295 447h167l-295 -447h-167z" />
    <glyph glyph-name="w" unicode="w" horiz-adv-x="1571" 
d="M616 168l-111 -168l-307 896h167zM1657 896l-590 -896l-193 561l110 168l136 -394l370 561h167z" />
    <glyph glyph-name="x" unicode="x" horiz-adv-x="1002" 
d="M1088 896l-840 -896h-192l843 896h189zM573 600l-115 -123l-260 419h192zM572 297l114 123l260 -420l-188 -2z" />
    <glyph glyph-name="y" unicode="y" horiz-adv-x="1002" 
d="M1088 896l-840 -896h-192l843 896h189zM573 600l-115 -123l-260 419h192z" />
    <glyph glyph-name="z" unicode="z" horiz-adv-x="1008" 
d="M1094 896l-10 -4l-836 -892h-192l702 746h-578l24 150h890z" />
    <glyph glyph-name="cent" unicode="&#xa2;" horiz-adv-x="857" 
d="M348 -81h168l21 130q152 21 282 135l13 11l-147 69l-10 -8q-53 -37 -114 -52l77 487q75 -18 122 -79l10 -15l133 113l-6 8l-4 6q-88 103 -230 123l23 144h-168l-25 -155q-106 -28 -188 -94.5t-128 -150.5q-38 -68 -50 -144q-12 -69 4 -142q20 -84 81 -150.5t159 -94.5z
M467 671l-70 -446q-61 32 -86.5 94t-15.5 128q10 67 55.5 129.5t116.5 94.5z" />
    <glyph glyph-name="copyright" unicode="&#xa9;" horiz-adv-x="1009" 
d="M820 764q133 -133 133 -316q0 -186 -133 -316q-134 -132 -316 -132t-316 132q-132 134 -132 316t132 316q130 132 316 132q182 0 316 -132zM715 236q87 88 87 212q0 122 -87 211q-89 87 -211 87q-124 0 -212 -87q-86 -87 -86 -211q0 -125 86 -212q87 -86 212 -86
q124 0 211 86zM510 326q51 0 93 46l65 -64q-32 -35 -74 -53q-43 -15 -84 -15q-40 0 -85 16q-43 21 -66 45q-29 30 -46 66q-17 37 -17 80v1q0 39 17 80q16 38 47 66q26 26 67 44q36 17 83 17q49 0 86 -16q51 -28 71 -52l-64 -64q-42 46 -93 46q-23 0 -46 -9q-19 -9 -35 -26
q-18 -15 -26 -38q-11 -28 -11 -48q0 -26 11 -49q11 -26 26 -38q17 -20 34 -26q27 -9 47 -9z" />
    <glyph glyph-name="registered" unicode="&#xae;" horiz-adv-x="1009" 
d="M820 764q133 -133 133 -316q0 -186 -133 -316q-134 -132 -316 -132t-316 132q-132 134 -132 316t132 316q130 132 316 132q182 0 316 -132zM715 236q87 88 87 212q0 122 -87 211q-89 87 -211 87q-124 0 -212 -87q-86 -87 -86 -211q0 -125 86 -212q87 -86 212 -86
q124 0 211 86zM572 280l-98 170h50q23 0 40 17t17 40q0 22 -17 39t-40 17h-153v57h153q47 0 80 -33t33 -80q0 -35 -20 -64t-49 -41l69 -122h-65zM371 280v236h56v-236h-56z" />
    <glyph glyph-name="multiply" unicode="&#xd7;" horiz-adv-x="544" 
d="M327 346l102 -121l110 95l-102 120l140 120l-80 94l-140 -120l-101 120l-111 -94l102 -120l-140 -120l81 -94z" />
    <glyph glyph-name="divide" unicode="&#xf7;" horiz-adv-x="529" 
d="M277 612q-4 -30 14 -56t57 -26t66 26.5t31 55.5t-13.5 54.5t-57.5 25.5q-39 0 -66 -26t-31 -54zM136 505l-21 -131h417l21 131h-417zM223 271q-4 -30 14 -55.5t57 -25.5t66 26t31 55t-13.5 54.5t-57.5 25.5q-39 0 -66 -26t-31 -54z" />
    <glyph glyph-name="dagger" unicode="&#x2020;" horiz-adv-x="823" 
d="M857 569h-281l-81 -513h-149l81 513h-281l24 150h281l37 233h149l-37 -233h281z" />
    <glyph glyph-name="Euro" unicode="&#x20ac;" horiz-adv-x="961" 
d="M261 309q25 -109 115.5 -186.5t230.5 -77.5q132 0 260 80l3 3l32 198l-23 -26q-4 -4 -22 -21q-3 -2 -10 -9.5t-12 -10.5q-95 -80 -207 -80q-76 0 -131 36t-82 94h291l99 132h-410l2 14q1 2 1.5 6.5t0.5 6.5h425l99 132h-462q45 57 112 93.5t143 36.5q134 0 204 -108
l7 -15l94 128l-4 2q-106 127 -280 127q-140 0 -255 -77.5t-175 -186.5h-79l-98 -132h129v-3q-2 -8 -4 -24h-52l-98 -132h156z" />
    <glyph glyph-name="trademark" unicode="&#x2122;" horiz-adv-x="831" 
d="M56 831v64h316v-64h-127v-317h-62v317h-127zM586 704l189 191v-381h-63v227l-126 -126l-127 126v-227h-64v381l1 -1v1z" />
    <glyph glyph-name="_FSHallmark" horiz-adv-x="1092" 
d="M58 749v116h978v-116h-978zM825 202q-41 0 -80 10q-37 10 -69 33q-31 23 -49 55t-18 77l113 -2q0 -5 6 -18q1 -16 17 -30q15 -15 29 -20q20 -11 55 -11q40 0 63 13q23 12 23 31q0 36 -93 54q-96 27 -143 53q-59 29 -59 97q0 55 39 88q31 27 86 47q43 9 80 9q53 0 110 -22
q56 -22 79 -77q13 -37 13 -57h-118q0 12 -9 26q-6 9 -21 21q-3 1 -12.5 5.5t-15.5 5.5q-25 5 -28 5q-27 0 -57 -16q-23 -14 -23 -34q0 -36 22 -48q34 -16 51 -19l43 -11l36 -8q27 -8 35 -8q19 -3 28 -8q14 -6 24 -12q23 -13 37 -32q12 -20 15 -52q3 -28 -13 -58
q-29 -52 -86 -70q-52 -17 -110 -17zM58 202v485h412v-110h-283v-110h235v-108h-235v-157h-129zM517 204q-21 0 -39 18q-20 17 -20 38q0 26 18 42q16 15 41 15t47 -17q20 -15 20 -40q0 -23 -20 -41q-21 -15 -47 -15zM56 25v116h978v-116h-978z" />
    <glyph glyph-name="_Fontastica" horiz-adv-x="848" 
d="M58 153q-1 2 -1 5v710h532v-108h-410v-292h410v-110h-410v-205h-121zM256 155v109h411v292h-411v110h411v202h121v-713h-532zM677 39q-5 0 -21 6q-9 14 -10 24q0 14 9 23q12 12 22 12q14 0 28 -12l-6 -9q-1 2 -3.5 3.5t-3.5 2.5t-10 1h-5q-8 -4 -10 -7q-6 -4 -6 -10
q0 -11 4 -15q7 -7 12 -7q12 0 22 7l6 -7q-10 -12 -28 -12zM58 41v60h45v-11h-29v-16h28v-10h-28v-23h-16zM158 36q-9 0 -14 5q-18 6 -18 27q0 16 8 24q8 9 25 9q18 0 30 -15q10 -13 2 -28q-4 -16 -26 -19zM269 39q-3 0 -9 6l-8 9q0 2 -3 5l-3 3l-11 16v-37h-14v60h11
q5 -1 6 -8q3 -2 7.5 -7.5t6.5 -7.5l12 -18v41h14v-60h-5q-3 -2 -4 -2zM322 41v49h-20v11h52v-11h-19v-49h-13zM483 39q-20 0 -27 10v2l1 2q0 1 2 5l20 -7h8l5 3q0 9 -14 14q-3 0 -3 1h-6q-10 4 -10 14q-3 11 9 16q6 2 13 2q16 0 25 -4l-4 -11l-5 2h-3q-1 1 -5 1q-1 0 -2 1
h-8q-4 0 -4 -2q-2 -3 4 -10q3 -1 8.5 -3t6.5 -2q12 0 12 -15q2 -13 -11 -17q-1 -2 -12 -2zM546 41v49h-20v11h54v-11h-19v-49h-15zM605 41v60h15v-60h-15zM725 41q12 20 24 60h17l13 -28l7 -19q0 -1 2.5 -6t4.5 -7h-14l-6 12h-29l-6 -12h-13zM369 41l25 58h15q0 -1 6 -13
q6 -10 7 -14q4 -9 6 -18q0 -2 2 -8l3 -5h-14q-1 1 -1 4q0 2 -3 8h-30v-8v-1l-4 -3h-12zM159 51h6q11 4 11 18v3q0 9 -5 14q-4 4 -13 4q-2 -1 -6 -1q-1 0 -4 -4t-6 -7q-7 -6 -2 -14q4 -13 19 -13zM390 64h21l-2 5l-5 5q-1 3 -1 7q-1 1 -1 3.5t-1 3.5zM748 64h20l-2 5
q0 3 -2 5q-3 3 -3 7l-1 3q-1 3 -2 4z" />
    </font>
</defs>
</svg>
