<?xml version="1.0" standalone="no"?>
<!DOCTYPE svg PUBLIC "-//W3C//DTD SVG 1.1//EN" "http://www.w3.org/Graphics/SVG/1.1/DTD/svg11.dtd" >
<svg xmlns="http://www.w3.org/2000/svg" xmlns:xlink="http://www.w3.org/1999/xlink" version="1.1">
<metadata>
Created by FontForge 20170731 at Sun Dec  8 04:02:05 2019
 By Aleksey,,,
Copyright (c) 2019 by Fontastica. All rights reserved.
</metadata>
<defs>
<font id="Noir-BlackItalic" horiz-adv-x="921" >
  <font-face 
    font-family="Noir Black Italic"
    font-weight="900"
    font-style="italic"
    font-stretch="normal"
    units-per-em="1000"
    panose-1="0 0 10 0 0 0 0 0 0 0"
    ascent="800"
    descent="-200"
    x-height="906"
    cap-height="906"
    bbox="47 -91 1741 995"
    underline-thickness="50"
    underline-position="-200"
    unicode-range="U+000D-2122"
  />
<missing-glyph horiz-adv-x="806" 
d="M56 890v-879h694v879h-694zM163 791h458l-458 -595v595zM204 112l438 576v-576h-438z" />
    <glyph glyph-name=".notdef" horiz-adv-x="806" 
d="M56 890v-879h694v879h-694zM163 791h458l-458 -595v595zM204 112l438 576v-576h-438z" />
    <glyph glyph-name=".null" horiz-adv-x="0" 
 />
    <glyph glyph-name="nonmarkingreturn" horiz-adv-x="333" 
 />
    <glyph glyph-name="CR" unicode="&#xd;" horiz-adv-x="0" 
 />
    <glyph glyph-name="space" unicode=" " horiz-adv-x="672" 
 />
    <glyph glyph-name="exclam" unicode="!" horiz-adv-x="310" 
d="M215 868h150l-94 -597h-150zM193 239q-47 0 -78 -29.5t-36 -62.5t17 -62t68 -29t77 29t36 62t-16 62.5t-68 29.5z" />
    <glyph glyph-name="quotedbl" unicode="&#x22;" horiz-adv-x="424" 
d="M289 605l45 287h-137l-45 -287h137zM464 605l45 287h-136l-45 -287h136z" />
    <glyph glyph-name="numbersign" unicode="#" horiz-adv-x="891" 
d="M92 228h93l-73 -174h208l74 174h60l-74 -174h210l73 174h147l29 183h-99l33 79h140l29 183h-93l74 174h-212l-72 -174h-59l74 174h-211l-74 -174h-145l-29 -183h99l-33 -79h-140zM563 490l-33 -79h-60l33 79h60z" />
    <glyph glyph-name="dollar" unicode="$" horiz-adv-x="743" 
d="M65 54h220l-23 -145h205l24 150q95 18 162.5 86.5t80.5 152.5q16 99 -46 171t-175 72h-97q-23 0 -37 19t-9 43q4 25 23 43.5t42 18.5h247l124 182h-190l23 145h-205l-24 -150q-95 -18 -163 -86.5t-81 -152.5q-16 -97 47 -170t174 -73h97q23 0 36.5 -19t9.5 -43
t-23.5 -42.5t-41.5 -18.5h-259z" />
    <glyph glyph-name="percent" unicode="%" horiz-adv-x="1194" 
d="M836 514l268 333h-235l-195 -242q15 97 -49 169.5t-174 72.5q-112 0 -198 -73t-101 -171t47.5 -170.5t174.5 -72.5q65 0 125 27l-269 -333h237l196 244q-15 -98 47 -171t174 -73q111 0 198.5 73.5t102.5 170.5t-49 170t-175 73q-65 0 -125 -27zM355 603q4 25 23.5 43.5
t43.5 18.5q23 0 37.5 -19t10.5 -43t-24 -43t-44 -19q-23 0 -37 19t-10 43zM866 298q4 24 24 43t42 19q24 0 38.5 -19t10.5 -43q-5 -24 -25 -42.5t-43 -18.5t-37 18.5t-10 42.5z" />
    <glyph glyph-name="ampersand" unicode="&#x26;" horiz-adv-x="801" 
d="M197 471q-78 -79 -96 -186q-10 -65 4 -118q19 -71 78 -119t142 -48h60q82 0 152.5 45.5t110.5 109.5t50 130l13 80h91l33 203h-420q-20 0 -31.5 20t-7.5 45t21.5 45t37.5 20h61q23 0 32 -23q9 -24 4 -52l-6 -42h204l3 18q14 81 1 136q-17 72 -69 119t-137 47h-61
q-78 0 -146 -44t-108 -109q-31 -53 -41 -115q-14 -88 25 -162zM418 205h-61q-28 0 -42.5 24t-9.5 56q5 31 27.5 55.5t49.5 24.5h124l-12 -80q-5 -31 -27 -55.5t-49 -24.5z" />
    <glyph glyph-name="quotesingle" unicode="'" horiz-adv-x="296" 
d="M332 584l50 314h-184l-50 -314h184z" />
    <glyph glyph-name="parenleft" unicode="(" horiz-adv-x="495" 
d="M165 691l-75 -476q-8 -49 6 -97.5t46 -88.5t89 -64.5t129 -24.5h70l34 213h-70q-27 0 -43 18.5t-12 43.5l76 476q4 25 22.5 44t41.5 19h80l34 213h-70q-141 0 -241 -85t-117 -191z" />
    <glyph glyph-name="parenright" unicode=")" horiz-adv-x="495" 
d="M150 153h-70l-33 -213h70q139 0 239.5 85t117.5 190l75 476q7 48 -5.5 96t-43 88.5t-85.5 66t-125 25.5h-81l-34 -213h70q26 0 42.5 -19t12.5 -44l-76 -476q-4 -25 -25.5 -43.5t-48.5 -18.5z" />
    <glyph glyph-name="asterisk" unicode="*" horiz-adv-x="463" 
d="M170 720l52 -115l36 19l-6 -39h144l6 39l32 -19l87 115l-35 21l42 22l-51 114l-38 -19l6 39h-143l-6 -38l-31 20l-88 -116l35 -22z" />
    <glyph glyph-name="plus" unicode="+" horiz-adv-x="561" 
d="M139 523l-26 -161h138l-21 -134h174l21 134h138l25 161h-137l21 134h-174l-21 -134h-138z" />
    <glyph glyph-name="comma" unicode="," horiz-adv-x="391" 
d="M128 74l-13 -77h220l27 175q7 46 -24.5 83.5t-95.5 37.5t-108 -37.5t-51 -83.5q-9 -64 45 -98z" />
    <glyph glyph-name="hyphen" unicode="-" horiz-adv-x="561" 
d="M554 308l26 161h-450l-25 -161h449z" />
    <glyph glyph-name="period" unicode="." horiz-adv-x="391" 
d="M204 52q63 0 107 37.5t51 82.5q7 46 -24.5 83.5t-95.5 37.5t-108 -37.5t-51 -83.5t25.5 -83t95.5 -37z" />
    <glyph glyph-name="slash" unicode="/" horiz-adv-x="810" 
d="M312 -60l595 1027h-264l-596 -1027h265z" />
    <glyph glyph-name="zero" unicode="0" horiz-adv-x="1066" 
d="M215 136q121 -136 318 -136q195 0 360 136q160 131 189 317q29 185 -88 318q-121 135 -318 135q-199 0 -360 -136q-159 -133 -188 -317q-29 -186 87 -317zM691 241l63 427q56 -32 80.5 -91.5t14.5 -123.5t-51 -121t-107 -91zM520 667l-64 -430q-57 32 -81.5 91.5
t-14.5 124.5q10 64 52 123t108 91z" />
    <glyph glyph-name="one" unicode="1" horiz-adv-x="568" 
d="M655 906h-198l-291 -210h223l-110 -696h233z" />
    <glyph glyph-name="two" unicode="2" horiz-adv-x="794" 
d="M551 513l-495 -513h666l33 210h-210l259 296q4 4 6 10q1 1 1.5 3t1.5 4l2 4q0 1 3 10t4 14q8 30 10 42q21 127 -60 219q-82 94 -222 94h-290l-33 -210h289q42 0 66 -32t18 -71q-5 -34 -29 -60q-3 -3 -6 -6.5t-7.5 -7.5t-6.5 -6z" />
    <glyph glyph-name="three" unicode="3" horiz-adv-x="767" 
d="M755 279q17 101 -37 174q78 76 92 175q7 47 -4.5 94.5t-40 89t-83 68t-124.5 26.5h-358l-34 -210h359q26 0 42 -20.5t12 -47.5q-5 -28 -27.5 -49.5t-48.5 -21.5h-216l-33 -209h216q26 0 42 -21t11 -48q-4 -27 -26 -48t-49 -21h-359l-33 -210h359q70 0 132.5 26.5
t104.5 68.5t69 90t34 94z" />
    <glyph glyph-name="four" unicode="4" horiz-adv-x="855" 
d="M567 2h232l144 906h-232l-55 -348h-280l56 348h-232l-89 -558h512z" />
    <glyph glyph-name="five" unicode="5" 
d="M89 211l-33 -210h477q140 0 252 94q109 89 129 220q22 129 -59 220q-84 94 -223 94h-245l44 278h-231l-78 -488h477q42 0 66 -32.5t18 -71.5t-40.5 -71.5t-76.5 -32.5h-477z" />
    <glyph glyph-name="six" unicode="6" 
d="M190 114q101 -114 269 -114t307 114q134 110 159 269q26 158 -74 269q-101 114 -270 114q-93 0 -177 -35l27 175h-231l-83 -523q-26 -159 73 -269zM348 383q11 67 66.5 120t132.5 53q75 0 116 -54t31 -119t-68 -119t-133 -54q-77 0 -116.5 53t-28.5 120z" />
    <glyph glyph-name="seven" unicode="7" horiz-adv-x="777" 
d="M864 906h-664l-34 -210h432l-22 -139h-288l-33 -209h288l-55 -348h233z" />
    <glyph glyph-name="eight" unicode="8" horiz-adv-x="785" 
d="M555 23q92 36 149 107t69 149q16 100 -36 174q76 76 92 175q12 78 -22.5 149t-115.5 107q-51 22 -98 22h-114q-45 0 -104 -22q-92 -35 -149.5 -107t-70.5 -149q-15 -101 37 -175q-75 -73 -92 -174q-12 -78 22.5 -149t115.5 -107q48 -23 98 -23h114q49 0 105 23zM462 696
h81q27 0 43 -20.5t11 -47.5q-5 -28 -27 -49.5t-49 -21.5h-81q-26 0 -42 21.5t-11 49.5t26.5 48t48.5 20zM407 348h81q26 0 42 -21t12 -48q-5 -28 -26.5 -48.5t-48.5 -20.5h-82q-27 0 -42.5 21t-10.5 48q4 27 26.5 48t48.5 21z" />
    <glyph glyph-name="nine" unicode="9" 
d="M875 793q-102 114 -270 114t-307 -114q-134 -110 -159 -269t74 -269q101 -114 271 -114q92 0 177 35l-28 -175h232l83 523q25 158 -73 269zM716 524q-10 -67 -66 -120t-133 -53q-75 0 -115.5 54t-30.5 119t68 119t133 54q77 0 115.5 -53t28.5 -120z" />
    <glyph glyph-name="colon" unicode=":" horiz-adv-x="391" 
d="M248 332q63 0 107.5 37.5t51.5 82.5q7 47 -25 84t-96 37t-107.5 -37.5t-50.5 -83.5q-7 -45 25 -82.5t95 -37.5zM204 52q63 0 107 37.5t51 82.5q7 46 -24.5 83.5t-95.5 37.5t-108 -37.5t-51 -83.5t25.5 -83t95.5 -37z" />
    <glyph glyph-name="semicolon" unicode=";" horiz-adv-x="391" 
d="M248 332q63 0 107.5 37.5t51.5 82.5q7 47 -25 84t-96 37t-107.5 -37.5t-50.5 -83.5q-7 -45 25 -82.5t95 -37.5zM128 74l-13 -77h220l27 175q7 46 -24.5 83.5t-95.5 37.5t-108 -37.5t-51 -83.5q-9 -64 45 -98z" />
    <glyph glyph-name="less" unicode="&#x3c;" horiz-adv-x="629" 
d="M698 791l-559 -265l-24 -154l475 -265l39 249l-168 94l198 94z" />
    <glyph glyph-name="equal" unicode="=" horiz-adv-x="603" 
d="M621 466l27 176h-490l-28 -176h491zM586 249l30 184h-491l-30 -184h491z" />
    <glyph glyph-name="greater" unicode="&#x3e;" horiz-adv-x="629" 
d="M142 544l168 -94l-198 -94l-39 -249l559 265l24 154l-475 265z" />
    <glyph glyph-name="question" unicode="?" horiz-adv-x="679" 
d="M462 535h-121l-41 -257h167l17 110q69 11 125 51.5t82 92.5q23 42 30 85q7 51 -8 101q-18 56 -71 94.5t-130 38.5h-76q-82 0 -148 -41.5t-100 -102.5q-27 -50 -36 -100l-3 -21h167l3 21q6 36 31.5 64t61.5 28h76q35 0 52.5 -25t12.5 -57q-5 -31 -30.5 -56.5t-60.5 -25.5z
M379 250q-46 0 -77 -29.5t-36 -62.5t16.5 -62t67.5 -29t77.5 29t36.5 62t-16.5 62.5t-68.5 29.5z" />
    <glyph glyph-name="at" unicode="@" horiz-adv-x="1049" 
d="M524 -1h284l24 152h-284q-94 0 -159 50t-86 125q-18 60 -9 125q10 62 48 125q46 75 126.5 124.5t174.5 49.5q93 0 158 -50t87 -124q18 -59 7 -125l-18 -118h-16l18 118q9 55 -5 103q-20 70 -81.5 118.5t-154.5 48.5q-94 0 -172 -48t-117 -119q-28 -52 -37 -103
q-9 -62 4 -105q19 -69 81 -118t155 -49h469l43 272q15 89 -9 174q-33 116 -134.5 197t-253.5 81q-153 0 -280.5 -80.5t-195.5 -197.5q-48 -82 -64 -174q-14 -90 9 -173q32 -116 134 -197.5t254 -81.5zM712 451l-18 -118h-117q-51 0 -77.5 36.5t-20.5 81.5q7 45 45.5 82
t89.5 37q37 0 63.5 -20t32.5 -50t2 -49z" />
    <glyph glyph-name="A" unicode="A" horiz-adv-x="1111" 
d="M56 0h256l317 467l169 -467h257l-356 952z" />
    <glyph glyph-name="B" unicode="B" 
d="M909 279q15 103 -37 174q76 76 92 175q7 46 -4.5 94t-40.5 89.5t-83 68t-124 26.5h-512l-34 -210h513q27 0 42.5 -20.5t10.5 -47.5q-4 -28 -26 -49.5t-49 -21.5h-513l-33 -209h513q26 0 41.5 -21t11.5 -48q-5 -28 -26.5 -48.5t-48.5 -20.5h-513l-33 -210h512
q70 0 133 26.5t105 68.5t69 90t34 94z" />
    <glyph glyph-name="C" unicode="C" horiz-adv-x="953" 
d="M922 160l-135 151l-22 -19q-99 -81 -198 -81q-109 0 -165 75.5t-41 167.5t94.5 167t188.5 75q101 0 172 -81l16 -19l184 152l-10 11q-125 147 -329 147q-96 0 -193 -37q-150 -59 -243 -173.5t-113 -241.5t36.5 -242t187.5 -174q85 -37 182 -37q204 0 375 147z" />
    <glyph glyph-name="D" unicode="D" 
d="M56 0h332q98 0 194 37.5t168 98.5q158 134 186 317q16 92 -9 173q-35 117 -137.5 198.5t-258.5 81.5h-331l-34 -210h332q99 0 158 -69q64 -71 49 -174q-16 -99 -103 -175q-78 -68 -181 -68h-332z" />
    <glyph glyph-name="E" unicode="E" horiz-adv-x="777" 
d="M831 696l33 210h-664l-34 -210h665zM776 348l33 209h-665l-33 -209h665zM721 0l33 210h-665l-33 -210h665z" />
    <glyph glyph-name="F" unicode="F" horiz-adv-x="777" 
d="M831 696l33 210h-664l-34 -210h665zM765 278l33 211h-665l-77 -489h232l44 278h433z" />
    <glyph glyph-name="G" unicode="G" horiz-adv-x="953" 
d="M922 160l-135 151l-22 -19q-99 -81 -198 -81q-109 0 -165 75.5t-41 167.5t94.5 167t188.5 75q101 0 172 -81l16 -19l184 152l-10 11q-125 147 -329 147q-96 0 -193 -37q-150 -59 -243 -173.5t-113 -241.5t36.5 -242t187.5 -174q85 -37 182 -37q204 0 375 147zM980 557
h-403l-33 -209h403z" />
    <glyph glyph-name="H" unicode="H" 
d="M431 906h-231l-144 -906h232l55 348h345l-55 -348h232l88 558h-577z" />
    <glyph glyph-name="I" unicode="I" horiz-adv-x="344" 
d="M56 0h232l143 906h-231z" />
    <glyph glyph-name="J" unicode="J" 
d="M348 383l6 35h-232l-5 -35q-26 -158 74 -269q101 -114 270 -114q167 0 306 114q134 111 158 269l83 523h-232l-82 -523q-11 -67 -66.5 -120t-132.5 -53q-75 0 -116 54t-31 119z" />
    <glyph glyph-name="K" unicode="K" horiz-adv-x="1073" 
d="M350 396l350 -395h317l-398 453l541 453h-317l-474 -397l62 396h-231l-144 -906h232z" />
    <glyph glyph-name="L" unicode="L" horiz-adv-x="777" 
d="M754 210h-433l110 696h-231l-144 -906h665z" />
    <glyph glyph-name="M" unicode="M" horiz-adv-x="1065" 
d="M287 0l107 671l-196 224l-142 -895h231zM1151 895l-600 -503l-49 -308l334 279l-57 -363h230z" />
    <glyph glyph-name="N" unicode="N" horiz-adv-x="920" 
d="M198 895l-142 -893h232l110 693zM473 391l391 -391l143 895h-232l-61 -377l-191 192z" />
    <glyph glyph-name="O" unicode="O" horiz-adv-x="1066" 
d="M893 136q160 131 189 317q29 185 -88 318q-121 135 -318 135q-199 0 -360 -136q-159 -133 -188 -317q-29 -186 87 -317q121 -136 318 -136q195 0 360 136zM566 210q-75 0 -126.5 37t-70 91.5t-9.5 114.5q16 94 94 168.5t189 74.5q74 0 125.5 -37.5t70.5 -92t10 -113.5
q-16 -94 -94 -168.5t-189 -74.5z" />
    <glyph glyph-name="P" unicode="P" 
d="M288 0l44 278h245q140 0 252 94q109 89 129 220q9 53 -4 107t-45 101t-92.5 76.5t-140.5 29.5h-476l-34 -210h477q42 0 66 -32.5t18 -71.5t-40.5 -71.5t-76.5 -32.5h-477l-77 -488h232z" />
    <glyph glyph-name="Q" unicode="Q" horiz-adv-x="1065" 
d="M533 0q-201 0 -320 134q-115 131 -86 315q30 192 188 322q159 135 361 135q200 0 319 -135q115 -130 86 -318q-22 -135 -115 -247l-140 173l-181 -157l139 -157l-12 -10q-113 -55 -239 -55zM566 210q42 0 79 12l-180 204l185 153l176 -200q18 35 24 75q15 92 -41 168
t-165 76q-110 0 -189.5 -76t-94.5 -168q-15 -94 40 -169t166 -75z" />
    <glyph glyph-name="R" unicode="R" horiz-adv-x="903" 
d="M369 490l216 -490h262l-138 321q87 44 140.5 118.5t66.5 153.5q9 53 -4 107t-45.5 100.5t-93 76t-139.5 29.5h-434l-34 -210h434q43 0 66.5 -32t17.5 -71q-6 -40 -40 -72.5t-76 -32.5q-54 0 -160 2h-39zM159 651l-103 -651h232l103 651h-232z" />
    <glyph glyph-name="S" unicode="S" 
d="M755 906h-259q-71 0 -133.5 -26.5t-104.5 -68t-68.5 -89t-34.5 -94.5q-17 -116 53 -196q74 -84 199 -84h216q21 0 39 -19q20 -23 15 -50q-5 -28 -26.5 -48.5t-49.5 -20.5l-302 3l-33 -213h302q71 0 133 26t104.5 68t69 90t34.5 95q18 114 -54 195q-73 83 -199 83h-216
q-28 0 -43 21t-10 50q5 28 26 48t49 20h261z" />
    <glyph glyph-name="T" unicode="T" horiz-adv-x="699" 
d="M787 906h-587l-34 -210h355l-110 -696h232z" />
    <glyph glyph-name="U" unicode="U" 
d="M925 383l6 35h-232l-5 -35q-10 -65 -68 -119t-133 -54q-77 0 -116.5 53t-28.5 120l83 523h-231l-83 -523q-26 -157 73 -269q101 -114 269 -114q170 0 307 114q135 112 159 269z" />
    <glyph glyph-name="V" unicode="V" horiz-adv-x="1271" 
d="M714 191l-258 715h-256l346 -962zM1102 906l-330 -487h256l330 487h-256z" />
    <glyph glyph-name="W" unicode="W" horiz-adv-x="1653" 
d="M547 -56l168 248l-259 714h-256zM1090 -56l651 962h-257l-316 -467l-133 368l-168 -248z" />
    <glyph glyph-name="X" unicode="X" horiz-adv-x="1133" 
d="M784 453l437 453h-287l-266 -274l-178 274h-290l294 -454l-438 -452h290l266 275l179 -277l286 3z" />
    <glyph glyph-name="Y" unicode="Y" horiz-adv-x="1133" 
d="M346 0l875 906h-287l-266 -275l-178 275h-290l294 -454l-438 -452h290z" />
    <glyph glyph-name="Z" unicode="Z" horiz-adv-x="1186" 
d="M346 0l928 906h-1032l-33 -211h521l-674 -695h290z" />
    <glyph glyph-name="bracketleft" unicode="[" horiz-adv-x="495" 
d="M559 754l34 213h-384l-162 -1027h383l34 213h-135l96 601h134z" />
    <glyph glyph-name="backslash" unicode="\" horiz-adv-x="810" 
d="M312 -60l595 1027h-264l-596 -1027h265z" />
    <glyph glyph-name="bracketright" unicode="]" horiz-adv-x="495" 
d="M310 754l-96 -601h-134l-33 -213h383l163 1027h-384l-34 -213h135z" />
    <glyph glyph-name="underscore" unicode="_" horiz-adv-x="748" 
d="M682 -60l34 213h-636l-33 -213h635z" />
    <glyph glyph-name="a" unicode="a" horiz-adv-x="1111" 
d="M56 0h256l317 467l169 -467h257l-356 952z" />
    <glyph glyph-name="b" unicode="b" 
d="M909 279q15 103 -37 174q76 76 92 175q7 46 -4.5 94t-40.5 89.5t-83 68t-124 26.5h-512l-34 -210h513q27 0 42.5 -20.5t10.5 -47.5q-4 -28 -26 -49.5t-49 -21.5h-513l-33 -209h513q26 0 41.5 -21t11.5 -48q-5 -28 -26.5 -48.5t-48.5 -20.5h-513l-33 -210h512
q70 0 133 26.5t105 68.5t69 90t34 94z" />
    <glyph glyph-name="c" unicode="c" horiz-adv-x="953" 
d="M922 160l-135 151l-22 -19q-99 -81 -198 -81q-109 0 -165 75.5t-41 167.5t94.5 167t188.5 75q101 0 172 -81l16 -19l184 152l-10 11q-125 147 -329 147q-96 0 -193 -37q-150 -59 -243 -173.5t-113 -241.5t36.5 -242t187.5 -174q85 -37 182 -37q204 0 375 147z" />
    <glyph glyph-name="d" unicode="d" 
d="M56 0h332q98 0 194 37.5t168 98.5q158 134 186 317q16 92 -9 173q-35 117 -137.5 198.5t-258.5 81.5h-331l-34 -210h332q99 0 158 -69q64 -71 49 -174q-16 -99 -103 -175q-78 -68 -181 -68h-332z" />
    <glyph glyph-name="e" unicode="e" horiz-adv-x="777" 
d="M831 696l33 210h-664l-34 -210h665zM776 348l33 209h-665l-33 -209h665zM721 0l33 210h-665l-33 -210h665z" />
    <glyph glyph-name="f" unicode="f" horiz-adv-x="777" 
d="M831 696l33 210h-664l-34 -210h665zM765 278l33 211h-665l-77 -489h232l44 278h433z" />
    <glyph glyph-name="g" unicode="g" horiz-adv-x="953" 
d="M922 160l-135 151l-22 -19q-99 -81 -198 -81q-109 0 -165 75.5t-41 167.5t94.5 167t188.5 75q101 0 172 -81l16 -19l184 152l-10 11q-125 147 -329 147q-96 0 -193 -37q-150 -59 -243 -173.5t-113 -241.5t36.5 -242t187.5 -174q85 -37 182 -37q204 0 375 147zM980 557
h-403l-33 -209h403z" />
    <glyph glyph-name="h" unicode="h" 
d="M431 906h-231l-144 -906h232l55 348h345l-55 -348h232l88 558h-577z" />
    <glyph glyph-name="i" unicode="i" horiz-adv-x="344" 
d="M56 0h232l143 906h-231z" />
    <glyph glyph-name="j" unicode="j" 
d="M348 383l6 35h-232l-5 -35q-26 -158 74 -269q101 -114 270 -114q167 0 306 114q134 111 158 269l83 523h-232l-82 -523q-11 -67 -66.5 -120t-132.5 -53q-75 0 -116 54t-31 119z" />
    <glyph glyph-name="k" unicode="k" horiz-adv-x="1073" 
d="M350 396l350 -395h317l-398 453l541 453h-317l-474 -397l62 396h-231l-144 -906h232z" />
    <glyph glyph-name="l" unicode="l" horiz-adv-x="777" 
d="M754 210h-433l110 696h-231l-144 -906h665z" />
    <glyph glyph-name="m" unicode="m" horiz-adv-x="1065" 
d="M287 0l107 671l-196 224l-142 -895h231zM1151 895l-600 -503l-49 -308l334 279l-57 -363h230z" />
    <glyph glyph-name="n" unicode="n" horiz-adv-x="920" 
d="M198 895l-142 -893h232l110 693zM473 391l391 -391l143 895h-232l-61 -377l-191 192z" />
    <glyph glyph-name="o" unicode="o" horiz-adv-x="1066" 
d="M893 136q160 131 189 317q29 185 -88 318q-121 135 -318 135q-199 0 -360 -136q-159 -133 -188 -317q-29 -186 87 -317q121 -136 318 -136q195 0 360 136zM566 210q-75 0 -126.5 37t-70 91.5t-9.5 114.5q16 94 94 168.5t189 74.5q74 0 125.5 -37.5t70.5 -92t10 -113.5
q-16 -94 -94 -168.5t-189 -74.5z" />
    <glyph glyph-name="p" unicode="p" 
d="M288 0l44 278h245q140 0 252 94q109 89 129 220q9 53 -4 107t-45 101t-92.5 76.5t-140.5 29.5h-476l-34 -210h477q42 0 66 -32.5t18 -71.5t-40.5 -71.5t-76.5 -32.5h-477l-77 -488h232z" />
    <glyph glyph-name="q" unicode="q" horiz-adv-x="1065" 
d="M533 0q-201 0 -320 134q-115 131 -86 315q30 192 188 322q159 135 361 135q200 0 319 -135q115 -130 86 -318q-22 -135 -115 -247l-140 173l-181 -157l139 -157l-12 -10q-113 -55 -239 -55zM566 210q42 0 79 12l-180 204l185 153l176 -200q18 35 24 75q15 92 -41 168
t-165 76q-110 0 -189.5 -76t-94.5 -168q-15 -94 40 -169t166 -75z" />
    <glyph glyph-name="r" unicode="r" horiz-adv-x="903" 
d="M369 490l216 -490h262l-138 321q87 44 140.5 118.5t66.5 153.5q9 53 -4 107t-45.5 100.5t-93 76t-139.5 29.5h-434l-34 -210h434q43 0 66.5 -32t17.5 -71q-6 -40 -40 -72.5t-76 -32.5q-54 0 -160 2h-39zM159 651l-103 -651h232l103 651h-232z" />
    <glyph glyph-name="s" unicode="s" 
d="M756 906h-260q-71 0 -133.5 -26.5t-104.5 -68t-68.5 -89t-34.5 -94.5q-17 -116 53 -196q74 -84 199 -84h216q21 0 39 -19q20 -23 15 -50q-5 -28 -26.5 -48.5t-49.5 -20.5l-302 3l-33 -213h302q71 0 133 26t104.5 68t69 90t34.5 95q18 114 -54 195q-73 83 -199 83h-216
q-28 0 -43 21t-10 50q5 28 26 48t49 20h261z" />
    <glyph glyph-name="t" unicode="t" horiz-adv-x="699" 
d="M787 906h-587l-34 -210h355l-110 -696h232z" />
    <glyph glyph-name="u" unicode="u" 
d="M925 383l6 35h-232l-5 -35q-10 -65 -68 -119t-133 -54q-77 0 -116.5 53t-28.5 120l83 523h-231l-83 -523q-26 -157 73 -269q101 -114 269 -114q170 0 307 114q135 112 159 269z" />
    <glyph glyph-name="v" unicode="v" horiz-adv-x="1271" 
d="M714 191l-258 715h-256l346 -962zM1102 906l-330 -487h256l330 487h-256z" />
    <glyph glyph-name="w" unicode="w" horiz-adv-x="1653" 
d="M547 -56l168 248l-259 714h-256zM1090 -56l651 962h-257l-316 -467l-133 368l-168 -248z" />
    <glyph glyph-name="x" unicode="x" horiz-adv-x="1133" 
d="M784 453l437 453h-287l-266 -275l-178 275h-290l294 -454l-438 -452h290l266 275l179 -277l286 3z" />
    <glyph glyph-name="y" unicode="y" horiz-adv-x="1133" 
d="M346 0l875 906h-287l-266 -275l-178 275h-290l294 -454l-438 -452h290z" />
    <glyph glyph-name="z" unicode="z" horiz-adv-x="1186" 
d="M346 0l928 906h-1032l-33 -211h521l-674 -695h290z" />
    <glyph glyph-name="cent" unicode="&#xa2;" horiz-adv-x="944" 
d="M361 67l-22 -143h250l20 129q85 17 154 57t141 101l20 17l-216 98l-15 -13q-20 -17 -48 -31l55 342q36 -23 62 -68l14 -24l202 165l-10 12l-21 24q-83 92 -211 121l22 141h-250l-24 -155q-149 -47 -243 -156.5t-113 -231.5q-12 -78 7.5 -152.5t78 -138t147.5 -94.5z
M442 578l-39 -250q-36 54 -25 124q11 72 64 126z" />
    <glyph glyph-name="copyright" unicode="&#xa9;" horiz-adv-x="1034" 
d="M842 133q136 132 136 318q0 184 -136 317t-326 133t-325 -133q-135 -134 -135 -317q0 -184 135 -318q136 -133 325 -133q188 0 326 133zM516 721q119 0 196.5 -81t77.5 -189q0 -110 -77 -190.5t-197 -80.5q-121 0 -197 80t-76 191q0 109 77 189.5t196 80.5zM613 404
l-15 -16q-33 -38 -76 -38q-16 0 -39 7q-8 4 -12 7l-6 6l-8 8q-31 31 -31 73q0 38 28 68.5t68 30.5q43 0 76 -38l15 -16l89 88l-10 11q-25 30 -76 55q-36 18 -94 18q-98 0 -164 -66t-66 -151q0 -87 65.5 -153t164.5 -66q105 0 171 72l11 12z" />
    <glyph glyph-name="registered" unicode="&#xae;" horiz-adv-x="1034" 
d="M842 133q136 132 136 318q0 184 -136 317t-326 133t-325 -133q-135 -134 -135 -317q0 -184 135 -318q136 -133 325 -133q188 0 326 133zM516 721q119 0 196.5 -81t77.5 -189q0 -110 -77 -190.5t-197 -80.5q-121 0 -197 80t-76 191q0 109 77 189.5t196 80.5zM366 271h94
v189l111 -189h108l-74 128q62 39 62 109q0 50 -36 88t-95 38h-170v-89h170q14 0 25 -11.5t11 -25.5q0 -16 -11 -27t-25 -11h-76v64h-94v-263z" />
    <glyph glyph-name="multiply" unicode="&#xd7;" horiz-adv-x="590" 
d="M108 327l102 -117l137 116l100 -117l139 118l-101 116l137 116l-101 117l-137 -116l-100 116l-139 -117l100 -116z" />
    <glyph glyph-name="divide" unicode="&#xf7;" horiz-adv-x="561" 
d="M392 704q-44 0 -78 -29t-40 -66q-4 -26 7.5 -50t35.5 -36h-178l-26 -161h174q-26 -13 -43.5 -35.5t-21.5 -47.5q-5 -38 19 -66.5t68 -28.5q45 0 78.5 28.5t39.5 66.5q8 56 -38 83h174l25 161h-178q27 13 46 36.5t23 49.5q6 38 -18.5 66.5t-68.5 28.5z" />
    <glyph glyph-name="dagger" unicode="&#x2020;" horiz-adv-x="887" 
d="M643 531h272l33 210h-271l34 218h-232l-34 -218h-272l-33 -210h272l-76 -479h231z" />
    <glyph glyph-name="Euro" unicode="&#x20ac;" horiz-adv-x="988" 
d="M105 309h156q25 -109 115.5 -186.5t230.5 -77.5q132 0 260 80l3 3l32 198l-23 -26q-4 -4 -22 -21q-3 -2 -10 -9.5t-12 -10.5q-95 -80 -207 -80q-76 0 -131 36t-82 94h291l99 132h-410l2 14q1 2 1.5 6.5t0.5 6.5h425l99 132h-462q45 57 112 93.5t143 36.5q134 0 204 -108
l7 -15l94 128l-4 2q-106 127 -280 127q-140 0 -255 -77.5t-175 -186.5h-79l-98 -132h129v-3q-2 -8 -4 -24h-52z" />
    <glyph glyph-name="trademark" unicode="&#x2122;" horiz-adv-x="894" 
d="M384 905h-328v-130h123v-295h147v295h58v-295h149v150l79 -76l78 75v-149h148v437l-226 -170z" />
    <glyph glyph-name="_FSHallmark" horiz-adv-x="1092" 
d="M1173 865l-18 -116h-978l18 116h978zM857 202q-42 0 -78 10q-37 10 -64 33q-27 22 -40 55q-14 32 -6 77l112 -2q0 -6 4 -18q-1 -16 12 -30q14 -15 26 -20q19 -11 53 -11q40 0 65 13q25 12 28 31q5 36 -85 54q-93 27 -134 53q-54 29 -44 97q9 55 53 88q35 27 94 47
q43 9 81 9q54 0 106 -22t67 -77q7 -37 4 -57h-118q2 11 -5 26q-3 9 -17 21q-3 1 -12 5.5t-15 5.5q-22 5 -27 5q-27 0 -59 -16q-26 -14 -29 -34q-5 -37 15 -48q31 -16 48 -19l41 -11l35 -8q24 -8 33 -8q19 -3 27 -8q12 -5 22 -12q22 -13 32 -32q9 -19 7 -52q-1 -26 -22 -58
q-39 -52 -97 -70q-55 -17 -113 -17zM244 359l-25 -157h-129l77 485h412l-18 -110h-283l-17 -110h235l-17 -108h-235zM549 204q-20 0 -36 18q-17 17 -14 38q4 26 25 42q18 15 43 15t45 -17q17 -16 13 -40q-3 -23 -26 -41q-24 -15 -50 -15zM1056 141l-18 -116h-978l18 116h978
z" />
    <glyph glyph-name="_Fontastica" horiz-adv-x="848" 
d="M179 358v-205h-121q-1 2 -1 5v710h532v-108h-410v-292h410v-110h-410zM788 868v-713h-532v109h411v292h-411v110h411v202h121zM677 39q-5 0 -21 6q-9 14 -10 24q0 14 9 23q12 12 22 12q14 0 28 -12l-6 -9q-1 2 -3.5 3.5t-3.5 2.5t-10 1h-5q-8 -4 -10 -7q-6 -4 -6 -10
q0 -11 4 -15q7 -7 12 -7q12 0 22 7l6 -7q-10 -12 -28 -12zM74 64v-23h-16v60h45v-11h-29v-16h28v-10h-28zM158 36q-9 0 -14 5q-18 6 -18 27q0 16 8 24q8 9 25 9q18 0 30 -15q10 -13 2 -28q-4 -16 -26 -19zM269 39q-3 0 -9 6l-8 9q0 2 -3 5l-3 3l-11 16v-37h-14v60h11
q5 -1 6 -8q3 -2 7.5 -7.5t6.5 -7.5l12 -18v41h14v-60h-5q-3 -2 -4 -2zM335 90v-49h-13v49h-20v11h52v-11h-19zM483 39q-20 0 -27 10v2l1 2q0 1 2 5l20 -7h8l5 3q0 9 -14 14q-3 0 -3 1h-6q-10 4 -10 14q-3 11 9 16q6 2 13 2q16 0 25 -4l-4 -11l-5 2h-3q-1 1 -5 1q-1 0 -2 1
h-8q-4 0 -4 -2q-2 -3 4 -10q3 -1 8.5 -3t6.5 -2q12 0 12 -15q2 -13 -11 -17q-1 -2 -12 -2zM561 90v-49h-15v49h-20v11h54v-11h-19zM620 101v-60h-15v60h15zM744 53l-6 -12h-13q12 20 24 60h17l13 -28l7 -19q0 -1 2.5 -6t4.5 -7h-14l-6 12h-29zM385 44l-4 -3h-12l25 58h15
q0 -1 6 -13q6 -10 7 -14q4 -9 6 -18q0 -2 2 -8l3 -5h-14q-1 1 -1 4q0 2 -3 8h-30v-8v-1zM159 51h6q11 4 11 18v3q0 9 -5 14q-4 4 -13 4q-2 -1 -6 -1q-1 0 -4 -4t-6 -7q-7 -6 -2 -14q4 -13 19 -13zM401 88l-11 -24h21l-2 5l-5 5q-1 3 -1 7q-1 1 -1 3.5t-1 3.5zM758 88
l-10 -24h20l-2 5q0 3 -2 5q-3 3 -3 7l-1 3q-1 3 -2 4z" />
    </font>
</defs>
</svg>
