<?xml version="1.0" standalone="no"?>
<!DOCTYPE svg PUBLIC "-//W3C//DTD SVG 1.1//EN" "http://www.w3.org/Graphics/SVG/1.1/DTD/svg11.dtd" >
<svg xmlns="http://www.w3.org/2000/svg" xmlns:xlink="http://www.w3.org/1999/xlink" version="1.1">
<metadata>
Created by FontForge 20170731 at Sun Dec  8 04:04:20 2019
 By Aleksey,,,
Copyright (c) 2019 by Fontastica. All rights reserved.
</metadata>
<defs>
<font id="Noir-Light" horiz-adv-x="825" >
  <font-face 
    font-family="Noir Light"
    font-weight="300"
    font-stretch="normal"
    units-per-em="1000"
    panose-1="0 0 4 0 0 0 0 0 0 0"
    ascent="800"
    descent="-200"
    x-height="888"
    cap-height="888"
    bbox="41 -99 1469 988"
    underline-thickness="50"
    underline-position="-200"
    unicode-range="U+000D-2122"
  />
<missing-glyph horiz-adv-x="743" 
d="M41 887h661v-885h-661v885zM652 42v807h-562v-807h562z" />
    <glyph glyph-name=".notdef" horiz-adv-x="743" 
d="M41 887h661v-885h-661v885zM652 42v807h-562v-807h562z" />
    <glyph glyph-name="uni0000" horiz-adv-x="0" 
 />
    <glyph glyph-name="nonmarkingreturn" horiz-adv-x="333" 
 />
    <glyph glyph-name="CR" unicode="&#xd;" horiz-adv-x="0" 
 />
    <glyph glyph-name="space" unicode=" " horiz-adv-x="672" 
 />
    <glyph glyph-name="exclam" unicode="!" horiz-adv-x="264" 
d="M181 285v574h-102v-574h102zM208 128q0 30 -22 50t-54 20t-54 -20t-22 -50q0 -29 22.5 -49t53.5 -20t53.5 20.5t22.5 48.5z" />
    <glyph glyph-name="quotedbl" unicode="&#x22;" horiz-adv-x="381" 
d="M145 884h-89v-249h89v249zM325 884h-89v-249h89v249z" />
    <glyph glyph-name="numbersign" unicode="#" horiz-adv-x="832" 
d="M165 248l-47 -189h122l48 189h158l-48 -189h123l48 189h143v108h-116l44 176h136v109h-109l48 189h-126l-47 -189h-156l48 189h-125l-48 -189h-141v-109h116l-44 -176h-136v-108h109zM473 356h-158l44 176h156z" />
    <glyph glyph-name="dollar" unicode="$" horiz-adv-x="662" 
d="M271 59v-158h121v157l22 3q82 11 137 72.5t55 144.5q0 94 -65.5 157t-158.5 63h-102q-44 0 -74 34t-30 78t30 78t74 34h229l53 108h-170v157h-121v-156l-22 -3q-82 -12 -137.5 -73.5t-55.5 -144.5q0 -92 66 -155.5t158 -63.5h102q45 0 74 -34.5t29 -78.5t-29.5 -77.5
t-73.5 -33.5h-243l-64 -108h196z" />
    <glyph glyph-name="percent" unicode="%" horiz-adv-x="1147" 
d="M508 610q0 92 -67.5 156t-158.5 64q-92 0 -159 -64t-67 -156q0 -93 66.5 -156t159.5 -63q91 0 158.5 63.5t67.5 155.5zM881 830h-138l-478 -771h138zM176 610q0 45 30.5 78.5t75.5 33.5q44 0 75 -34t31 -78t-31 -78t-75 -34q-45 0 -75.5 33.5t-30.5 78.5zM1091 278
q0 92 -67.5 156t-159.5 64t-158.5 -64t-66.5 -156q0 -91 66.5 -155t158.5 -64q91 0 159 64t68 155zM759 278q0 44 30.5 78.5t74.5 34.5t75 -34t31 -79q0 -44 -31 -77.5t-75 -33.5t-74.5 34t-30.5 77z" />
    <glyph glyph-name="ampersand" unicode="&#x26;" horiz-adv-x="737" 
d="M123 447q-67 -75 -67 -182q0 -63 21 -112q27 -68 85.5 -110.5t127.5 -42.5h63q99 0 166 79.5t67 185.5v131h95v131h-391q-45 0 -71.5 37.5t-26.5 78.5q0 42 26 78.5t72 36.5h63q35 0 58.5 -23.5t31 -50.5t7.5 -53h120q-2 64 -18 106q-27 70 -78.5 110.5t-120.5 40.5h-63
q-64 0 -117 -38t-80 -100q-21 -48 -21 -107q0 -90 53 -162l12 -18zM353 132h-63q-52 0 -83 41.5t-31 91.5q0 48 31.5 89.5t82.5 41.5h175v-131q0 -49 -30 -91t-82 -42z" />
    <glyph glyph-name="quotesingle" unicode="'" horiz-adv-x="201" 
d="M145 884h-89v-249h89v249z" />
    <glyph glyph-name="parenleft" unicode="(" horiz-adv-x="374" 
d="M56 712v-536q0 -104 78 -173.5t184 -69.5l-2 107q-55 0 -97.5 39t-42.5 97v536q0 56 37.5 96t92.5 40h12l-2 109q-105 0 -182.5 -70.5t-77.5 -174.5z" />
    <glyph glyph-name="parenright" unicode=")" horiz-adv-x="374" 
d="M58 40h-2l2 -107q105 0 182.5 69.5t77.5 173.5v536q0 102 -74 173.5t-175 71.5h-13l2 -109q55 0 97.5 -39t42.5 -97v-536q0 -58 -42.5 -97t-97.5 -39z" />
    <glyph glyph-name="asterisk" unicode="*" horiz-adv-x="353" 
d="M83 674l65 38v-77h57v77l66 -38l26 46l-68 39l68 40l-26 47l-66 -36v74h-57v-76l-65 38l-27 -47l68 -40l-68 -39z" />
    <glyph glyph-name="plus" unicode="+" horiz-adv-x="488" 
d="M56 393h144v-145h89v145h143v85h-143v146h-89v-146h-144v-85z" />
    <glyph glyph-name="comma" unicode="," horiz-adv-x="264" 
d="M120 59v-62h88v131q0 30 -22 50t-54 20t-54 -20t-22 -50q0 -21 13 -38t33 -25z" />
    <glyph glyph-name="hyphen" unicode="-" horiz-adv-x="488" 
d="M432 419h-376v-85h376v85z" />
    <glyph glyph-name="period" unicode="." horiz-adv-x="264" 
d="M208 128q0 30 -22 50t-54 20t-54 -20t-22 -50q0 -29 22.5 -49t53.5 -20t53.5 20.5t22.5 48.5z" />
    <glyph glyph-name="slash" unicode="/" horiz-adv-x="647" 
d="M591 957h-127l-408 -1024h128z" />
    <glyph glyph-name="zero" unicode="0" horiz-adv-x="980" 
d="M796 131q128 130 128 313q0 120 -58.5 222.5t-158.5 162t-217 59.5q-179 0 -306.5 -130t-127.5 -314q0 -183 127.5 -313.5t306.5 -130.5q175 0 306 131zM570 773q111 -27 181 -120t70 -209t-66.5 -205.5t-175.5 -121.5l-33 -10l-8 674zM435 780l7 -673l-32 7
q-112 27 -181.5 119.5t-69.5 210.5q0 115 68 208t177 120z" />
    <glyph glyph-name="one" unicode="1" horiz-adv-x="342" 
d="M177 888l-121 -105h128v-783h102v888h-109z" />
    <glyph glyph-name="two" unicode="2" horiz-adv-x="627" 
d="M564 535q0 1 0.5 2.5t0.5 3.5l3 22q0 7 1 16t1.5 15t0.5 8q0 119 -82 202.5t-198 83.5h-235v-105h235q72 0 125 -53.5t53 -127.5q0 -61 -37 -112q-10 -10 -14 -16l-361 -474h496v105h-279z" />
    <glyph glyph-name="three" unicode="3" horiz-adv-x="662" 
d="M533 463q73 73 73 178q0 102 -70.5 174.5t-170.5 72.5h-309v-105h309q57 0 98.5 -41.5t41.5 -100.5t-41 -102t-99 -43h-157v-104h157q57 0 98.5 -42.5t41.5 -101.5q0 -60 -41.5 -101.5t-98.5 -41.5h-309v-105h309q100 0 170.5 72.5t70.5 175.5q0 107 -73 177l-19 19z" />
    <glyph glyph-name="four" unicode="4" horiz-adv-x="756" 
d="M700 2v888h-102v-391h-441v391h-101v-496h542v-392h102z" />
    <glyph glyph-name="five" unicode="5" 
d="M56 1h434q117 0 198 83.5t81 204.5q0 120 -81 204q-81 83 -198 83h-333v313h-101v-418h434q73 0 125.5 -54t52.5 -128t-53 -128.5t-125 -54.5h-434v-105z" />
    <glyph glyph-name="six" unicode="6" 
d="M412 0q149 0 253 106.5t104 258.5q0 153 -104 259.5t-253 106.5q-120 0 -214 -72l-41 -31v260h-101v-523q0 -152 103.5 -258.5t252.5 -106.5zM412 626q104 0 180 -77t76 -184t-76 -183.5t-180 -76.5q-107 0 -181 75.5t-74 184.5q0 110 74 185.5t181 75.5z" />
    <glyph glyph-name="seven" unicode="7" horiz-adv-x="673" 
d="M56 888v-105h458v-287h-305v-104h305v-392h103v888h-561z" />
    <glyph glyph-name="eight" unicode="8" horiz-adv-x="682" 
d="M626 248q0 105 -72 177l-19 19l18 19q73 73 73 178q0 75 -40.5 136.5t-108.5 91.5q-38 19 -76 19h-121q-34 0 -76 -19q-67 -28 -107.5 -91t-40.5 -137q0 -105 72 -178l19 -19l-19 -19q-72 -71 -72 -177q0 -75 40.5 -137t108.5 -92q42 -19 75 -19h121q34 0 76 19
q68 30 108.5 92t40.5 137zM384 783q58 0 99 -41.5t41 -100.5q0 -60 -41 -102.5t-99 -42.5h-86q-58 0 -99.5 42.5t-41.5 102.5t41.5 101t99.5 41h86zM384 392q57 0 98.5 -42.5t41.5 -101.5q0 -60 -41 -101.5t-99 -41.5h-86q-58 0 -99.5 41.5t-41.5 101.5q0 59 41.5 101.5
t99.5 42.5h86z" />
    <glyph glyph-name="nine" unicode="9" 
d="M414 889q-149 0 -253.5 -106.5t-104.5 -258.5t104.5 -258.5t253.5 -106.5q121 0 213 71l41 31v-260h101v523q0 152 -103.5 258.5t-251.5 106.5zM414 264q-105 0 -181 76.5t-76 183.5t76 183.5t181 76.5q107 0 180.5 -75.5t73.5 -184.5t-74 -184.5t-180 -75.5z" />
    <glyph glyph-name="colon" unicode=":" horiz-adv-x="264" 
d="M208 443q0 30 -22 50t-54 20t-54 -20t-22 -50q0 -29 22.5 -49t53.5 -20t53.5 20.5t22.5 48.5zM208 128q0 30 -22 50t-54 20t-54 -20t-22 -50q0 -29 22.5 -49t53.5 -20t53.5 20.5t22.5 48.5z" />
    <glyph glyph-name="semicolon" unicode=";" horiz-adv-x="264" 
d="M208 443q0 30 -22 50t-54 20t-54 -20t-22 -50q0 -29 22.5 -49t53.5 -20t53.5 20.5t22.5 48.5zM120 59v-62h88v131q0 30 -22 50t-54 20t-54 -20t-22 -50q0 -21 13 -38t33 -25z" />
    <glyph glyph-name="less" unicode="&#x3c;" horiz-adv-x="516" 
d="M56 488v-97l404 -220v126l-263 143l263 144v124z" />
    <glyph glyph-name="equal" unicode="=" horiz-adv-x="488" 
d="M432 591h-376v-85h376v85zM432 365h-376v-85h376v85z" />
    <glyph glyph-name="greater" unicode="&#x3e;" horiz-adv-x="516" 
d="M319 440l-263 -143v-126l404 220v97l-404 220v-124z" />
    <glyph glyph-name="question" unicode="?" horiz-adv-x="642" 
d="M56 615h120q2 46 29.5 82.5t75.5 36.5h78q45 0 75.5 -33.5t30.5 -78.5q0 -46 -30.5 -79.5t-75.5 -33.5h-98v-217h120v112l21 3q81 14 132.5 73t51.5 142q0 93 -67 156t-160 63h-78q-95 0 -159.5 -64.5t-65.5 -161.5zM397 140q0 29 -22.5 49.5t-54.5 20.5
q-31 0 -52.5 -20.5t-21.5 -49.5t22 -49.5t52 -20.5q31 0 54 21t23 49z" />
    <glyph glyph-name="at" unicode="@" horiz-adv-x="1021" 
d="M510 -1h266v107h-266q-98 0 -181 53.5t-122 145.5q-31 73 -31 142q0 141 98 241t236 100t235.5 -99.5t97.5 -241.5v-150h-67v150q0 50 -21 98q-31 74 -98 117t-147 43q-111 0 -187.5 -73.5t-76.5 -184.5q0 -56 18 -100q30 -72 98.5 -115.5t147.5 -43.5h455v259
q0 123 -63 227t-167.5 163t-224.5 59q-122 0 -226 -58.5t-166 -162.5t-62 -228q0 -123 62.5 -226.5t166.5 -162.5t225 -59zM656 447v-150h-146q-60 0 -102 44.5t-42 105.5q0 62 42 107t102 45q62 0 104 -44.5t42 -107.5z" />
    <glyph glyph-name="A" unicode="A" horiz-adv-x="949" 
d="M474 857l-418 -857h114l305 620l304 -620h114z" />
    <glyph glyph-name="B" unicode="B" 
d="M697 463q72 73 72 178q0 102 -70.5 174.5t-170.5 72.5h-472v-105h472q57 0 98.5 -41.5t41.5 -100.5t-41 -102t-99 -43h-472v-104h472q57 0 98.5 -42.5t41.5 -101.5q0 -60 -41.5 -101.5t-98.5 -41.5h-472v-105h472q100 0 170.5 72.5t70.5 175.5q0 106 -72 177l-19 19z" />
    <glyph glyph-name="C" unicode="C" horiz-adv-x="835" 
d="M706 187q-92 -81 -215 -81q-137 0 -234.5 99t-97.5 240t97 239.5t235 98.5q123 0 215 -80l73 73q-123 112 -288 112q-178 0 -306.5 -130.5t-128.5 -312.5q0 -119 58.5 -221.5t159 -162.5t217.5 -60q164 0 288 113z" />
    <glyph glyph-name="D" unicode="D" 
d="M336 0q178 0 305.5 131t127.5 313q0 119 -58.5 221.5t-158.5 162.5t-216 60h-280v-105h280q137 0 233 -99q99 -101 99 -240q0 -136 -96 -240q-93 -99 -236 -99h-280v-105h280z" />
    <glyph glyph-name="E" unicode="E" horiz-adv-x="673" 
d="M617 888h-561v-105h561v105zM617 496h-561v-104h561v104zM617 105h-561v-105h561v105z" />
    <glyph glyph-name="F" unicode="F" horiz-adv-x="673" 
d="M617 888h-561v-105h561v105zM617 419h-561v-419h101v313h460v106z" />
    <glyph glyph-name="G" unicode="G" horiz-adv-x="854" 
d="M706 187q-92 -81 -215 -81q-137 0 -234.5 99t-97.5 240t97 239.5t235 98.5q123 0 215 -80l73 73q-123 112 -288 112q-178 0 -306.5 -130.5t-128.5 -312.5q0 -119 58.5 -221.5t159 -162.5t217.5 -60q164 0 288 113zM515 496v-104h283v104h-283z" />
    <glyph glyph-name="H" unicode="H" 
d="M56 888v-888h101v392h511v-392h101v497h-612v391h-101z" />
    <glyph glyph-name="I" unicode="I" horiz-adv-x="213" 
d="M157 0v888h-101v-888h101z" />
    <glyph glyph-name="J" unicode="J" 
d="M158 339h-102q10 -144 112.5 -241.5t244.5 -97.5q149 0 252.5 106.5t103.5 258.5v523h-102v-523q0 -109 -73.5 -184.5t-180.5 -75.5q-97 0 -171 68t-84 166z" />
    <glyph glyph-name="K" unicode="K" horiz-adv-x="898" 
d="M699 1h143l-434 444l434 444h-143l-436 -445zM157 0v888h-101v-888h101z" />
    <glyph glyph-name="L" unicode="L" horiz-adv-x="673" 
d="M157 105v783h-101v-888h561v105h-460z" />
    <glyph glyph-name="M" unicode="M" horiz-adv-x="979" 
d="M157 792l-101 104v-896h100zM515 477v-148l308 314v-643h100v895z" />
    <glyph glyph-name="N" unicode="N" horiz-adv-x="824" 
d="M56 2h101v801l-101 93v-894zM768 -1v896h-101v-632l-235 216v-172z" />
    <glyph glyph-name="O" unicode="O" horiz-adv-x="980" 
d="M924 444q0 120 -58.5 222.5t-158.5 162t-217 59.5q-179 0 -306.5 -130t-127.5 -314q0 -183 127.5 -313.5t306.5 -130.5q175 0 306 131q128 130 128 313zM159 444q0 143 96 241t235 98q138 0 234.5 -98.5t96.5 -240.5t-96 -240.5t-235 -98.5q-140 0 -235.5 98t-95.5 241z
" />
    <glyph glyph-name="P" unicode="P" 
d="M688 397q81 81 81 204q0 120 -81 203.5t-198 83.5h-434v-105h434q73 0 125.5 -54t52.5 -128t-53 -128.5t-125 -54.5h-434v-418h101v313h333q115 0 198 84z" />
    <glyph glyph-name="Q" unicode="Q" horiz-adv-x="979" 
d="M640 141q-70 -36 -150 -36q-140 0 -236.5 98.5t-96.5 241.5q0 141 97.5 240.5t235.5 99.5q137 0 234.5 -99.5t97.5 -240.5q0 -86 -38 -156l76 -78q63 103 63 233q0 184 -127 314q-126 130 -306 130q-181 0 -307 -130q-127 -130 -127 -318q0 -184 126 -311
q126 -129 308 -129q127 0 226 64zM644 209l72 74l-200 204l-72 -73z" />
    <glyph glyph-name="R" unicode="R" horiz-adv-x="780" 
d="M589 0h117l-180 323l26 12q78 34 125 107t47 160q0 119 -81.5 202.5t-198.5 83.5h-388v-105h388q73 0 126 -53.5t53 -127.5q0 -75 -52.5 -129.5t-126.5 -54.5q-61 0 -91 1zM56 0h101v601h-101v-601z" />
    <glyph glyph-name="S" unicode="S" 
d="M298 888q-101 0 -171.5 -72t-70.5 -175q0 -105 70 -177q69 -72 172 -72h228q59 0 100 -44q42 -45 42 -100q0 -61 -41.5 -102.5t-100.5 -40.5l-248 2v-107h248q101 0 172 72.5t71 175.5q0 104 -71 175q-71 73 -172 73h-228q-60 0 -102 43q-39 42 -39 102q0 61 40.5 101.5
t100.5 40.5h204l-1 105h-203z" />
    <glyph glyph-name="T" unicode="T" horiz-adv-x="591" 
d="M56 888v-105h376v-783h103v888h-479z" />
    <glyph glyph-name="U" unicode="U" 
d="M769 339h-102q-11 -98 -84.5 -166t-170.5 -68q-107 0 -181 75.5t-74 184.5v523h-101v-523q0 -152 103.5 -258.5t252.5 -106.5q142 0 244.5 97.5t112.5 241.5z" />
    <glyph glyph-name="V" unicode="V" horiz-adv-x="1119" 
d="M170 888h-114l418 -856l57 117zM745 471h114l204 417h-114z" />
    <glyph glyph-name="W" unicode="W" horiz-adv-x="1525" 
d="M532 150l-362 738h-114l419 -856zM1469 888h-114l-304 -621l-203 414l-58 -118l261 -531z" />
    <glyph glyph-name="X" unicode="X" horiz-adv-x="920" 
d="M404 605l-216 283h-132l282 -371zM863 888h-128l-679 -888h132zM517 286l219 -288l128 1l-283 373z" />
    <glyph glyph-name="Y" unicode="Y" horiz-adv-x="919" 
d="M404 604l-216 284h-132l282 -371zM863 888h-128l-679 -888h132z" />
    <glyph glyph-name="Z" unicode="Z" horiz-adv-x="940" 
d="M884 888h-828v-105h619l-598 -783h132z" />
    <glyph glyph-name="bracketleft" unicode="[" horiz-adv-x="374" 
d="M318 957h-262v-1024h262v107h-142v808h142v109z" />
    <glyph glyph-name="backslash" unicode="\" horiz-adv-x="647" 
d="M591 957h-127l-408 -1024h128z" />
    <glyph glyph-name="bracketright" unicode="]" horiz-adv-x="374" 
d="M198 40h-142v-107h262v1024h-262v-109h142v-808z" />
    <glyph glyph-name="underscore" unicode="_" horiz-adv-x="642" 
d="M586 40h-530v-107h530v107z" />
    <glyph glyph-name="a" unicode="a" horiz-adv-x="949" 
d="M474 857l-418 -857h114l305 620l304 -620h114z" />
    <glyph glyph-name="b" unicode="b" 
d="M697 463q72 73 72 178q0 102 -70.5 174.5t-170.5 72.5h-472v-105h472q57 0 98.5 -41.5t41.5 -100.5t-41 -102t-99 -43h-472v-104h472q57 0 98.5 -42.5t41.5 -101.5q0 -60 -41.5 -101.5t-98.5 -41.5h-472v-105h472q100 0 170.5 72.5t70.5 175.5q0 106 -72 177l-19 19z" />
    <glyph glyph-name="c" unicode="c" horiz-adv-x="835" 
d="M706 187q-92 -81 -215 -81q-137 0 -234.5 99t-97.5 240t97 239.5t235 98.5q123 0 215 -80l73 73q-123 112 -288 112q-178 0 -306.5 -130.5t-128.5 -312.5q0 -119 58.5 -221.5t159 -162.5t217.5 -60q164 0 288 113z" />
    <glyph glyph-name="d" unicode="d" 
d="M336 0q178 0 305.5 131t127.5 313q0 119 -58.5 221.5t-158.5 162.5t-216 60h-280v-105h280q137 0 233 -99q99 -101 99 -240q0 -136 -96 -240q-93 -99 -236 -99h-280v-105h280z" />
    <glyph glyph-name="e" unicode="e" horiz-adv-x="673" 
d="M617 888h-561v-105h561v105zM617 496h-561v-104h561v104zM617 105h-561v-105h561v105z" />
    <glyph glyph-name="f" unicode="f" horiz-adv-x="673" 
d="M617 888h-561v-105h561v105zM617 419h-561v-419h101v313h460v106z" />
    <glyph glyph-name="g" unicode="g" horiz-adv-x="854" 
d="M706 187q-92 -81 -215 -81q-137 0 -234.5 99t-97.5 240t97 239.5t235 98.5q123 0 215 -80l73 73q-123 112 -288 112q-178 0 -306.5 -130.5t-128.5 -312.5q0 -119 58.5 -221.5t159 -162.5t217.5 -60q164 0 288 113zM515 496v-104h283v104h-283z" />
    <glyph glyph-name="h" unicode="h" 
d="M56 888v-888h101v392h511v-392h101v497h-612v391h-101z" />
    <glyph glyph-name="i" unicode="i" horiz-adv-x="213" 
d="M157 0v888h-101v-888h101z" />
    <glyph glyph-name="j" unicode="j" 
d="M158 339h-102q10 -144 112.5 -241.5t244.5 -97.5q149 0 252.5 106.5t103.5 258.5v523h-102v-523q0 -109 -73.5 -184.5t-180.5 -75.5q-97 0 -171 68t-84 166z" />
    <glyph glyph-name="k" unicode="k" horiz-adv-x="898" 
d="M699 1h143l-434 444l434 444h-143l-436 -445zM157 0v888h-101v-888h101z" />
    <glyph glyph-name="l" unicode="l" horiz-adv-x="673" 
d="M157 105v783h-101v-888h561v105h-460z" />
    <glyph glyph-name="m" unicode="m" horiz-adv-x="979" 
d="M157 792l-101 104v-896h100zM515 477v-148l308 314v-643h100v895z" />
    <glyph glyph-name="n" unicode="n" horiz-adv-x="824" 
d="M56 2h101v801l-101 93v-894zM768 -1v896h-101v-632l-235 216v-172z" />
    <glyph glyph-name="o" unicode="o" horiz-adv-x="980" 
d="M924 444q0 120 -58.5 222.5t-158.5 162t-217 59.5q-179 0 -306.5 -130t-127.5 -314q0 -183 127.5 -313.5t306.5 -130.5q175 0 306 131q128 130 128 313zM159 444q0 143 96 241t235 98q138 0 234.5 -98.5t96.5 -240.5t-96 -240.5t-235 -98.5q-140 0 -235.5 98t-95.5 241z
" />
    <glyph glyph-name="p" unicode="p" 
d="M688 397q81 81 81 204q0 120 -81 203.5t-198 83.5h-434v-105h434q73 0 125.5 -54t52.5 -128t-53 -128.5t-125 -54.5h-434v-418h101v313h333q115 0 198 84z" />
    <glyph glyph-name="q" unicode="q" horiz-adv-x="979" 
d="M640 141q-70 -36 -150 -36q-140 0 -236.5 98.5t-96.5 241.5q0 141 97.5 240.5t235.5 99.5q137 0 234.5 -99.5t97.5 -240.5q0 -86 -38 -156l76 -78q63 103 63 233q0 184 -127 314q-126 130 -306 130q-181 0 -307 -130q-127 -130 -127 -318q0 -184 126 -311
q126 -129 308 -129q127 0 226 64zM644 209l72 74l-200 204l-72 -73z" />
    <glyph glyph-name="r" unicode="r" horiz-adv-x="780" 
d="M589 0h117l-180 323l26 12q78 34 125 107t47 160q0 119 -81.5 202.5t-198.5 83.5h-388v-105h388q73 0 126 -53.5t53 -127.5q0 -75 -52.5 -129.5t-126.5 -54.5q-61 0 -91 1zM56 0h101v601h-101v-601z" />
    <glyph glyph-name="s" unicode="s" 
d="M298 888q-101 0 -171.5 -72t-70.5 -175q0 -105 70 -177q69 -72 172 -72h228q59 0 100 -44q42 -45 42 -100q0 -61 -41.5 -102.5t-100.5 -40.5l-248 2v-107h248q101 0 172 72.5t71 175.5q0 104 -71 175q-71 73 -172 73h-228q-60 0 -102 43q-39 42 -39 102q0 61 40.5 101.5
t100.5 40.5h204v105h-204z" />
    <glyph glyph-name="t" unicode="t" horiz-adv-x="591" 
d="M56 888v-105h376v-783h103v888h-479z" />
    <glyph glyph-name="u" unicode="u" 
d="M769 339h-102q-11 -98 -84.5 -166t-170.5 -68q-107 0 -181 75.5t-74 184.5v523h-101v-523q0 -152 103.5 -258.5t252.5 -106.5q142 0 244.5 97.5t112.5 241.5z" />
    <glyph glyph-name="v" unicode="v" horiz-adv-x="1119" 
d="M170 888h-114l418 -856l57 117zM745 471h114l204 417h-114z" />
    <glyph glyph-name="w" unicode="w" horiz-adv-x="1525" 
d="M532 150l-362 738h-114l419 -856zM1469 888h-114l-304 -621l-203 414l-58 -118l261 -531z" />
    <glyph glyph-name="x" unicode="x" horiz-adv-x="920" 
d="M404 604l-216 284h-132l282 -371zM863 888h-128l-679 -888h132zM517 286l219 -288l128 1l-283 373z" />
    <glyph glyph-name="y" unicode="y" horiz-adv-x="919" 
d="M404 604l-216 284h-132l282 -371zM863 888h-128l-679 -888h132z" />
    <glyph glyph-name="z" unicode="z" horiz-adv-x="940" 
d="M884 888h-828v-105h619l-598 -783h132z" />
    <glyph glyph-name="cent" unicode="&#xa2;" horiz-adv-x="804" 
d="M748 720q-100 98 -236 117l-22 3v148h-121v-156l-19 -6q-130 -36 -212 -141.5t-82 -241.5q0 -134 82.5 -239.5t211.5 -141.5l19 -5v-142h121v133l22 3q127 18 236 119l-111 50q-50 -41 -115 -57l-32 -9v578l31 -7q86 -22 146 -86zM369 720v-552l-37 18q-71 36 -113 106
t-42 151q0 82 42 152.5t113 106.5z" />
    <glyph glyph-name="copyright" unicode="&#xa9;" horiz-adv-x="980" 
d="M796 131q128 130 128 313q0 120 -58.5 222.5t-158.5 162t-217 59.5q-179 0 -306.5 -130t-127.5 -314q0 -183 127.5 -313.5t306.5 -130.5q175 0 306 131zM490 783q138 0 234.5 -98.5t96.5 -240.5t-96 -240.5t-235 -98.5q-140 0 -235.5 98t-95.5 241t96 241t235 98z
M594 327q-43 -37 -98 -37q-62 0 -106 45t-44 109t44 108.5t106 44.5q57 0 98 -37l33 33q-54 51 -131 51q-80 0 -138 -59t-58 -141t58 -141.5t138 -59.5q75 0 131 51z" />
    <glyph glyph-name="registered" unicode="&#xae;" horiz-adv-x="980" 
d="M796 131q128 130 128 313q0 120 -58.5 222.5t-158.5 162t-217 59.5q-179 0 -306.5 -130t-127.5 -314q0 -183 127.5 -313.5t306.5 -130.5q175 0 306 131zM490 783q138 0 234.5 -98.5t96.5 -240.5t-96 -240.5t-235 -98.5q-140 0 -235.5 98t-95.5 241t96 241t235 98z
M580 258h47l-74 134l11 5q32 14 51.5 44t19.5 67q0 49 -33.5 83.5t-81.5 34.5h-160v-44h160q29 0 51 -22t22 -52q0 -32 -21.5 -54.5t-51.5 -22.5h-39zM360 258h41v248h-41v-248z" />
    <glyph glyph-name="multiply" unicode="&#xd7;" horiz-adv-x="482" 
d="M118 248l123 126l124 -127l61 63l-124 126l124 126l-61 62l-124 -127l-123 127l-62 -62l124 -126l-124 -126z" />
    <glyph glyph-name="divide" unicode="&#xf7;" horiz-adv-x="488" 
d="M244 674q-25 0 -43 -17t-18 -41q0 -25 17.5 -42t43.5 -17q25 0 42.5 17t17.5 42t-17 41.5t-43 16.5zM432 478h-376v-85h376v85zM244 316q-25 0 -43 -17.5t-18 -40.5q0 -24 18 -41t43 -17t42.5 17t17.5 41q0 25 -17 41.5t-43 16.5z" />
    <glyph glyph-name="dagger" unicode="&#x2020;" horiz-adv-x="790" 
d="M734 597v105h-288v245h-102v-245h-288v-105h288v-538h102v538h288z" />
    <glyph glyph-name="Euro" unicode="&#x20ac;" horiz-adv-x="904" 
d="M800 121v121q-99 -107 -231 -107q-80 0 -149.5 39.5t-112.5 109.5l-24 40h330l49 87h-401v80h447l50 87h-475l24 40q43 69 112.5 109t149.5 40q66 0 129 -28.5t105 -79.5l45 80q0 1 -1 1q-12 12 -36 32q-110 83 -242 83q-123 0 -226 -71.5t-148 -189.5l-6 -16h-84
l-49 -87h113v-80h-64l-49 -87h133l6 -16q45 -118 147.5 -189.5t226.5 -71.5q127 0 231 74z" />
    <glyph glyph-name="trademark" unicode="&#x2122;" horiz-adv-x="798" 
d="M299 903v-46h-83v-287h-48v287h-82v46h213zM573 699l185 190v-319h-46v205l-117 -120h-43q-61 63 -119 122v-207h-45v318z" />
    <glyph glyph-name="_FSHallmark" horiz-adv-x="1092" 
d="M1036 749h-978v116h978v-116zM825 202q-41 0 -80 10q-37 10 -69 33q-31 23 -49 55t-18 77l113 -2q0 -5 6 -18q1 -16 17 -30q15 -15 29 -20q20 -11 55 -11q40 0 63 13q23 12 23 31q0 36 -93 54q-96 27 -143 53q-59 29 -59 97q0 55 39 88q31 27 86 47q43 9 80 9
q53 0 110 -22q56 -22 79 -77q13 -37 13 -57h-118q0 12 -9 26q-6 9 -21 21q-3 1 -12.5 5.5t-15.5 5.5q-25 5 -28 5q-27 0 -57 -16q-23 -14 -23 -34q0 -36 22 -48q34 -16 51 -19l43 -11l36 -8q27 -8 35 -8q19 -3 28 -8q14 -6 24 -12q23 -13 37 -32q12 -20 15 -52
q3 -28 -13 -58q-29 -52 -86 -70q-52 -17 -110 -17zM187 202h-129v485h412v-110h-283v-110h235v-108h-235v-157zM517 204q-21 0 -39 18q-20 17 -20 38q0 26 18 42q16 15 41 15t47 -17q20 -15 20 -40q0 -23 -20 -41q-21 -15 -47 -15zM1034 25h-978v116h978v-116z" />
    <glyph glyph-name="_Fontastica" horiz-adv-x="848" 
d="M179 153h-121q-1 2 -1 5v710h532v-108h-410v-292h410v-110h-410v-205zM788 155h-532v109h411v292h-411v110h411v202h121v-713zM677 39q-5 0 -21 6q-9 14 -10 24q0 14 9 23q12 12 22 12q14 0 28 -12l-6 -9q-1 2 -3.5 3.5t-3.5 2.5t-10 1h-5q-8 -4 -10 -7q-6 -4 -6 -10
q0 -11 4 -15q7 -7 12 -7q12 0 22 7l6 -7q-10 -12 -28 -12zM74 41h-16v60h45v-11h-29v-16h28v-10h-28v-23zM158 36q-9 0 -14 5q-18 6 -18 27q0 16 8 24q8 9 25 9q18 0 30 -15q10 -13 2 -28q-4 -16 -26 -19zM269 39q-3 0 -9 6l-8 9q0 2 -3 5l-3 3l-11 16v-37h-14v60h11
q5 -1 6 -8q3 -2 7.5 -7.5t6.5 -7.5l12 -18v41h14v-60h-5q-3 -2 -4 -2zM335 41h-13v49h-20v11h52v-11h-19v-49zM483 39q-20 0 -27 10v2l1 2q0 1 2 5l20 -7h8l5 3q0 9 -14 14q-3 0 -3 1h-6q-10 4 -10 14q-3 11 9 16q6 2 13 2q16 0 25 -4l-4 -11l-5 2h-3q-1 1 -5 1q-1 0 -2 1
h-8q-4 0 -4 -2q-2 -3 4 -10q3 -1 8.5 -3t6.5 -2q12 0 12 -15q2 -13 -11 -17q-1 -2 -12 -2zM561 41h-15v49h-20v11h54v-11h-19v-49zM620 41h-15v60h15v-60zM738 41h-13q12 20 24 60h17l13 -28l7 -19q0 -1 2.5 -6t4.5 -7h-14l-6 12h-29zM381 41h-12l25 58h15q0 -1 6 -13
q6 -10 7 -14q4 -9 6 -18q0 -2 2 -8l3 -5h-14q-1 1 -1 4q0 2 -3 8h-30v-8v-1zM159 51h6q11 4 11 18v3q0 9 -5 14q-4 4 -13 4q-2 -1 -6 -1q-1 0 -4 -4t-6 -7q-7 -6 -2 -14q4 -13 19 -13zM401 88l-11 -24h21l-2 5l-5 5q-1 3 -1 7q-1 1 -1 3.5t-1 3.5zM758 88l-10 -24h20l-2 5
q0 3 -2 5q-3 3 -3 7l-1 3q-1 3 -2 4z" />
    </font>
</defs>
</svg>
